{
copyright = "Weather Icons licensed under SIL OFL 1.1 \U2014 Code licensed under MIT License \U2014 Documentation licensed under CC BY 3.0";
date = "2013-07-20 15:18:27 +0000";
designer = "Erik Flowers, Lukas Bischoff (v1 Art)";
designerURL = "http://www.helloerik.com, http://www.artill.de";
familyName = "Weather Icons";
featurePrefixes = (
{
automatic = 1;
code = "languagesystem DFLT dflt;\012";
name = Languagesystems;
}
);
fontMaster = (
{
alignmentZones = (
"{1344, 27}",
"{0, -27}"
);
ascender = 1536;
capHeight = 1792;
customParameters = (
{
name = typoAscender;
value = 1536;
},
{
name = typoDescender;
value = "-256";
},
{
name = typoLineGap;
value = 0;
}
);
descender = "-256";
horizontalStems = (
128,
256
);
id = "8BEE18A2-62EC-4A69-8B77-4987BEDA7528";
verticalStems = (
128,
256
);
weightValue = 400;
widthValue = 5;
xHeight = 1792;
}
);
glyphs = (
{
glyphname = .notdef;
layers = (
{
layerId = "8BEE18A2-62EC-4A69-8B77-4987BEDA7528";
name = Regular;
paths = (
{
closed = 1;
nodes = (
"112 1536 LINE",
"112 0 LINE",
"784 0 LINE",
"784 1536 LINE"
);
},
{
closed = 1;
nodes = (
"672 112 LINE",
"224 112 LINE",
"224 1424 LINE",
"672 1424 LINE"
);
}
);
width = 896;
}
);
},
{
glyphname = uniF000;
lastChange = "2014-05-03 20:31:55 +0000";
layers = (
{
background = {
paths = (
{
closed = 1;
nodes = (
"1658 1877 LINE SMOOTH",
"1658 1922 OFFCURVE",
"1694 1957 OFFCURVE",
"1738 1957 CURVE SMOOTH",
"1782 1957 OFFCURVE",
"1818 1922 OFFCURVE",
"1818 1877 CURVE SMOOTH",
"1818 1686 LINE SMOOTH",
"1818 1642 OFFCURVE",
"1782 1609 OFFCURVE",
"1738 1609 CURVE SMOOTH",
"1694 1609 OFFCURVE",
"1658 1642 OFFCURVE",
"1658 1686 CURVE SMOOTH"
);
},
{
closed = 1;
nodes = (
"2331 1666 LINE SMOOTH",
"2346 1681 OFFCURVE",
"2364 1689 OFFCURVE",
"2387 1689 CURVE SMOOTH",
"2431 1689 OFFCURVE",
"2467 1653 OFFCURVE",
"2467 1609 CURVE SMOOTH",
"2467 1586 OFFCURVE",
"2459 1567 OFFCURVE",
"2444 1552 CURVE SMOOTH",
"2307 1418 LINE",
"2281 1385 OFFCURVE",
"2228 1387 OFFCURVE",
"2197 1418 CURVE SMOOTH",
"2183 1433 OFFCURVE",
"2176 1452 OFFCURVE",
"2176 1474 CURVE SMOOTH",
"2176 1495 OFFCURVE",
"2183 1514 OFFCURVE",
"2197 1529 CURVE SMOOTH"
);
},
{
closed = 1;
nodes = (
"1035 1552 LINE",
"1019 1567 OFFCURVE",
"1010 1586 OFFCURVE",
"1010 1608 CURVE SMOOTH",
"1010 1652 OFFCURVE",
"1046 1688 OFFCURVE",
"1091 1688 CURVE SMOOTH",
"1112 1688 OFFCURVE",
"1131 1680 OFFCURVE",
"1146 1663 CURVE",
"1207 1603 LINE",
"1221 1588 OFFCURVE",
"1228 1570 OFFCURVE",
"1228 1547 CURVE SMOOTH",
"1228 1501 OFFCURVE",
"1195 1469 OFFCURVE",
"1149 1469 CURVE SMOOTH",
"1127 1469 OFFCURVE",
"1107 1477 OFFCURVE",
"1092 1492 CURVE SMOOTH"
);
},
{
closed = 1;
nodes = (
"249 591 LINE",
"296 748 OFFCURVE",
"428 872 OFFCURVE",
"587 910 CURVE",
"641 1163 OFFCURVE",
"865 1344 OFFCURVE",
"1128 1344 CURVE SMOOTH",
"1220 1344 OFFCURVE",
"1303 1325 OFFCURVE",
"1377 1287 CURVE",
"1473 1395 OFFCURVE",
"1594 1449 OFFCURVE",
"1738 1449 CURVE SMOOTH",
"2006 1449 OFFCURVE",
"2227 1228 OFFCURVE",
"2227 960 CURVE SMOOTH",
"2227 846 OFFCURVE",
"2191 743 OFFCURVE",
"2121 651 CURVE",
"2147 594 OFFCURVE",
"2160 532 OFFCURVE",
"2160 462 CURVE SMOOTH",
"2160 207 OFFCURVE",
"1954 -1 OFFCURVE",
"1699 -1 CURVE SMOOTH",
"1055 -1 LINE SMOOTH",
"1043 -1 OFFCURVE",
"1038 4 OFFCURVE",
"1038 15 CURVE SMOOTH",
"1038 143 LINE SMOOTH",
"1038 154 OFFCURVE",
"1043 159 OFFCURVE",
"1055 159 CURVE SMOOTH",
"1699 159 LINE SMOOTH",
"1867 159 OFFCURVE",
"2003 296 OFFCURVE",
"2003 462 CURVE SMOOTH",
"2003 627 OFFCURVE",
"1867 762 OFFCURVE",
"1699 762 CURVE SMOOTH",
"1547 762 LINE SMOOTH",
"1535 762 OFFCURVE",
"1530 767 OFFCURVE",
"1530 779 CURVE",
"1524 833 LINE SMOOTH",
"1503 1037 OFFCURVE",
"1333 1187 OFFCURVE",
"1128 1187 CURVE SMOOTH",
"924 1187 OFFCURVE",
"754 1034 OFFCURVE",
"734 833 CURVE SMOOTH",
"728 785 LINE",
"728 774 OFFCURVE",
"721 769 OFFCURVE",
"710 769 CURVE",
"661 762 LINE",
"549 754 OFFCURVE",
"456 681 OFFCURVE",
"415 581 CURVE",
"410 573 OFFCURVE",
"404 568 OFFCURVE",
"396 568 CURVE SMOOTH",
"262 568 LINE SMOOTH",
"252 568 OFFCURVE",
"247 571 OFFCURVE",
"247 579 CURVE SMOOTH",
"247 581 OFFCURVE",
"247 584 OFFCURVE",
"249 587 CURVE"
);
},
{
closed = 1;
nodes = (
"1699 923 LINE SMOOTH",
"1825 923 OFFCURVE",
"1933 878 OFFCURVE",
"2022 789 CURVE",
"2054 842 OFFCURVE",
"2070 900 OFFCURVE",
"2070 960 CURVE SMOOTH",
"2070 1142 OFFCURVE",
"1919 1292 OFFCURVE",
"1738 1292 CURVE SMOOTH",
"1651 1292 OFFCURVE",
"1574 1261 OFFCURVE",
"1507 1197 CURVE",
"1592 1116 OFFCURVE",
"1646 1024 OFFCURVE",
"1668 923 CURVE"
);
},
{
closed = 1;
nodes = (
"2655 1040 LINE SMOOTH",
"2699 1040 OFFCURVE",
"2735 1004 OFFCURVE",
"2735 960 CURVE SMOOTH",
"2735 916 OFFCURVE",
"2699 880 OFFCURVE",
"2655 880 CURVE SMOOTH",
"2466 880 LINE SMOOTH",
"2444 880 OFFCURVE",
"2426 888 OFFCURVE",
"2412 905 CURVE",
"2397 919 OFFCURVE",
"2389 939 OFFCURVE",
"2389 960 CURVE SMOOTH",
"2389 1004 OFFCURVE",
"2421 1040 OFFCURVE",
"2466 1040 CURVE SMOOTH"
);
},
{
closed = 1;
nodes = (
"1105 440 LINE SMOOTH",
"1153 440 OFFCURVE",
"1195 481 OFFCURVE",
"1195 532 CURVE SMOOTH",
"1195 583 OFFCURVE",
"1153 622 OFFCURVE",
"1105 622 CURVE SMOOTH",
"1081 622 OFFCURVE",
"1060 614 OFFCURVE",
"1042 596 CURVE",
"1025 581 OFFCURVE",
"1006 574 OFFCURVE",
"984 574 CURVE SMOOTH",
"939 574 OFFCURVE",
"907 605 OFFCURVE",
"907 651 CURVE SMOOTH",
"907 672 OFFCURVE",
"914 692 OFFCURVE",
"929 708 CURVE SMOOTH",
"976 756 OFFCURVE",
"1035 779 OFFCURVE",
"1105 779 CURVE SMOOTH",
"1243 779 OFFCURVE",
"1354 669 OFFCURVE",
"1354 532 CURVE SMOOTH",
"1354 395 OFFCURVE",
"1243 283 OFFCURVE",
"1105 283 CURVE SMOOTH",
"81 283 LINE SMOOTH",
"58 283 OFFCURVE",
"38 292 OFFCURVE",
"24 306 CURVE",
"7 321 OFFCURVE",
"-1 339 OFFCURVE",
"-1 360 CURVE SMOOTH",
"-1 404 OFFCURVE",
"37 440 OFFCURVE",
"81 440 CURVE SMOOTH"
);
},
{
closed = 1;
nodes = (
"2271 314 LINE SMOOTH",
"2256 329 OFFCURVE",
"2248 347 OFFCURVE",
"2248 370 CURVE SMOOTH",
"2248 414 OFFCURVE",
"2284 450 OFFCURVE",
"2330 450 CURVE SMOOTH",
"2351 450 OFFCURVE",
"2369 442 OFFCURVE",
"2384 427 CURVE SMOOTH",
"2444 367 LINE",
"2459 350 OFFCURVE",
"2467 331 OFFCURVE",
"2467 310 CURVE SMOOTH",
"2467 288 OFFCURVE",
"2459 269 OFFCURVE",
"2444 254 CURVE",
"2426 239 OFFCURVE",
"2407 231 OFFCURVE",
"2389 231 CURVE SMOOTH",
"2369 231 OFFCURVE",
"2349 239 OFFCURVE",
"2331 254 CURVE"
);
},
{
closed = 1;
nodes = (
"630 159 LINE SMOOTH",
"767 159 OFFCURVE",
"878 46 OFFCURVE",
"878 -91 CURVE SMOOTH",
"878 -228 OFFCURVE",
"767 -340 OFFCURVE",
"630 -340 CURVE SMOOTH",
"561 -340 OFFCURVE",
"502 -315 OFFCURVE",
"453 -266 CURVE SMOOTH",
"438 -251 OFFCURVE",
"430 -232 OFFCURVE",
"430 -210 CURVE SMOOTH",
"430 -166 OFFCURVE",
"464 -132 OFFCURVE",
"509 -132 CURVE SMOOTH",
"530 -132 OFFCURVE",
"549 -140 OFFCURVE",
"566 -155 CURVE",
"584 -173 OFFCURVE",
"605 -183 OFFCURVE",
"630 -183 CURVE SMOOTH",
"677 -183 OFFCURVE",
"721 -142 OFFCURVE",
"721 -91 CURVE SMOOTH",
"721 -40 OFFCURVE",
"677 -1 OFFCURVE",
"630 -1 CURVE SMOOTH",
"81 -1 LINE SMOOTH",
"60 -1 OFFCURVE",
"40 7 OFFCURVE",
"24 23 CURVE",
"7 38 OFFCURVE",
"-1 58 OFFCURVE",
"-1 79 CURVE SMOOTH",
"-1 123 OFFCURVE",
"37 159 OFFCURVE",
"81 159 CURVE SMOOTH"
);
}
);
};
layerId = "8BEE18A2-62EC-4A69-8B77-4987BEDA7528";
name = Regular;
paths = (
{
closed = 1;
nodes = (
"1659 1877 LINE SMOOTH",
"1659 1922 OFFCURVE",
"1695 1957 OFFCURVE",
"1739 1957 CURVE SMOOTH",
"1783 1957 OFFCURVE",
"1819 1922 OFFCURVE",
"1819 1877 CURVE SMOOTH",
"1819 1686 LINE SMOOTH",
"1819 1642 OFFCURVE",
"1783 1609 OFFCURVE",
"1739 1609 CURVE SMOOTH",
"1695 1609 OFFCURVE",
"1659 1642 OFFCURVE",
"1659 1686 CURVE SMOOTH"
);
},
{
closed = 1;
nodes = (
"2332 1666 LINE SMOOTH",
"2347 1681 OFFCURVE",
"2365 1689 OFFCURVE",
"2388 1689 CURVE SMOOTH",
"2432 1689 OFFCURVE",
"2468 1653 OFFCURVE",
"2468 1609 CURVE SMOOTH",
"2468 1586 OFFCURVE",
"2460 1567 OFFCURVE",
"2445 1552 CURVE SMOOTH",
"2308 1418 LINE",
"2282 1385 OFFCURVE",
"2229 1387 OFFCURVE",
"2198 1418 CURVE SMOOTH",
"2184 1433 OFFCURVE",
"2177 1452 OFFCURVE",
"2177 1474 CURVE SMOOTH",
"2177 1495 OFFCURVE",
"2184 1514 OFFCURVE",
"2198 1529 CURVE SMOOTH"
);
},
{
closed = 1;
nodes = (
"1036 1552 LINE",
"1020 1567 OFFCURVE",
"1011 1586 OFFCURVE",
"1011 1608 CURVE SMOOTH",
"1011 1652 OFFCURVE",
"1047 1688 OFFCURVE",
"1092 1688 CURVE SMOOTH",
"1113 1688 OFFCURVE",
"1132 1680 OFFCURVE",
"1147 1663 CURVE",
"1208 1603 LINE",
"1222 1588 OFFCURVE",
"1229 1570 OFFCURVE",
"1229 1547 CURVE SMOOTH",
"1229 1501 OFFCURVE",
"1196 1469 OFFCURVE",
"1150 1469 CURVE SMOOTH",
"1128 1469 OFFCURVE",
"1108 1477 OFFCURVE",
"1093 1492 CURVE SMOOTH"
);
},
{
closed = 1;
nodes = (
"250 591 LINE",
"297 748 OFFCURVE",
"429 872 OFFCURVE",
"588 910 CURVE",
"642 1163 OFFCURVE",
"866 1344 OFFCURVE",
"1129 1344 CURVE SMOOTH",
"1221 1344 OFFCURVE",
"1304 1325 OFFCURVE",
"1378 1287 CURVE",
"1474 1395 OFFCURVE",
"1595 1449 OFFCURVE",
"1739 1449 CURVE SMOOTH",
"2007 1449 OFFCURVE",
"2228 1228 OFFCURVE",
"2228 960 CURVE SMOOTH",
"2228 846 OFFCURVE",
"2192 743 OFFCURVE",
"2122 651 CURVE",
"2148 594 OFFCURVE",
"2161 532 OFFCURVE",
"2161 462 CURVE SMOOTH",
"2161 207 OFFCURVE",
"1955 -1 OFFCURVE",
"1700 -1 CURVE SMOOTH",
"1056 -1 LINE SMOOTH",
"1044 -1 OFFCURVE",
"1039 4 OFFCURVE",
"1039 15 CURVE SMOOTH",
"1039 143 LINE SMOOTH",
"1039 154 OFFCURVE",
"1044 159 OFFCURVE",
"1056 159 CURVE SMOOTH",
"1700 159 LINE SMOOTH",
"1868 159 OFFCURVE",
"2004 296 OFFCURVE",
"2004 462 CURVE SMOOTH",
"2004 627 OFFCURVE",
"1868 762 OFFCURVE",
"1700 762 CURVE SMOOTH",
"1548 762 LINE SMOOTH",
"1536 762 OFFCURVE",
"1531 767 OFFCURVE",
"1531 779 CURVE",
"1525 833 LINE SMOOTH",
"1504 1037 OFFCURVE",
"1334 1187 OFFCURVE",
"1129 1187 CURVE SMOOTH",
"925 1187 OFFCURVE",
"755 1034 OFFCURVE",
"735 833 CURVE SMOOTH",
"729 785 LINE",
"729 774 OFFCURVE",
"722 769 OFFCURVE",
"711 769 CURVE",
"662 762 LINE",
"550 754 OFFCURVE",
"457 681 OFFCURVE",
"416 581 CURVE",
"411 573 OFFCURVE",
"405 568 OFFCURVE",
"397 568 CURVE SMOOTH",
"263 568 LINE SMOOTH",
"253 568 OFFCURVE",
"248 571 OFFCURVE",
"248 579 CURVE SMOOTH",
"248 581 OFFCURVE",
"248 584 OFFCURVE",
"250 587 CURVE"
);
},
{
closed = 1;
nodes = (
"1700 923 LINE SMOOTH",
"1826 923 OFFCURVE",
"1934 878 OFFCURVE",
"2023 789 CURVE",
"2055 842 OFFCURVE",
"2071 900 OFFCURVE",
"2071 960 CURVE SMOOTH",
"2071 1142 OFFCURVE",
"1920 1292 OFFCURVE",
"1739 1292 CURVE SMOOTH",
"1652 1292 OFFCURVE",
"1575 1261 OFFCURVE",
"1508 1197 CURVE",
"1593 1116 OFFCURVE",
"1647 1024 OFFCURVE",
"1669 923 CURVE"
);
},
{
closed = 1;
nodes = (
"2656 1040 LINE SMOOTH",
"2700 1040 OFFCURVE",
"2736 1004 OFFCURVE",
"2736 960 CURVE SMOOTH",
"2736 916 OFFCURVE",
"2700 880 OFFCURVE",
"2656 880 CURVE SMOOTH",
"2467 880 LINE SMOOTH",
"2445 880 OFFCURVE",
"2427 888 OFFCURVE",
"2413 905 CURVE",
"2398 919 OFFCURVE",
"2390 939 OFFCURVE",
"2390 960 CURVE SMOOTH",
"2390 1004 OFFCURVE",
"2422 1040 OFFCURVE",
"2467 1040 CURVE SMOOTH"
);
},
{
closed = 1;
nodes = (
"1106 440 LINE SMOOTH",
"1154 440 OFFCURVE",
"1196 481 OFFCURVE",
"1196 532 CURVE SMOOTH",
"1196 583 OFFCURVE",
"1154 622 OFFCURVE",
"1106 622 CURVE SMOOTH",
"1082 622 OFFCURVE",
"1061 614 OFFCURVE",
"1043 596 CURVE",
"1026 581 OFFCURVE",
"1007 574 OFFCURVE",
"985 574 CURVE SMOOTH",
"940 574 OFFCURVE",
"908 605 OFFCURVE",
"908 651 CURVE SMOOTH",
"908 672 OFFCURVE",
"915 692 OFFCURVE",
"930 708 CURVE SMOOTH",
"977 756 OFFCURVE",
"1036 779 OFFCURVE",
"1106 779 CURVE SMOOTH",
"1244 779 OFFCURVE",
"1355 669 OFFCURVE",
"1355 532 CURVE SMOOTH",
"1355 395 OFFCURVE",
"1244 283 OFFCURVE",
"1106 283 CURVE SMOOTH",
"82 283 LINE SMOOTH",
"59 283 OFFCURVE",
"39 292 OFFCURVE",
"25 306 CURVE",
"8 321 OFFCURVE",
"0 339 OFFCURVE",
"0 360 CURVE SMOOTH",
"0 404 OFFCURVE",
"38 440 OFFCURVE",
"82 440 CURVE SMOOTH"
);
},
{
closed = 1;
nodes = (
"2272 314 LINE SMOOTH",
"2257 329 OFFCURVE",
"2249 347 OFFCURVE",
"2249 370 CURVE SMOOTH",
"2249 414 OFFCURVE",
"2285 450 OFFCURVE",
"2331 450 CURVE SMOOTH",
"2352 450 OFFCURVE",
"2370 442 OFFCURVE",
"2385 427 CURVE SMOOTH",
"2445 367 LINE",
"2460 350 OFFCURVE",
"2468 331 OFFCURVE",
"2468 310 CURVE SMOOTH",
"2468 288 OFFCURVE",
"2460 269 OFFCURVE",
"2445 254 CURVE",
"2427 239 OFFCURVE",
"2408 231 OFFCURVE",
"2390 231 CURVE SMOOTH",
"2370 231 OFFCURVE",
"2350 239 OFFCURVE",
"2332 254 CURVE"
);
},
{
closed = 1;
nodes = (
"631 159 LINE SMOOTH",
"768 159 OFFCURVE",
"879 46 OFFCURVE",
"879 -91 CURVE SMOOTH",
"879 -228 OFFCURVE",
"768 -340 OFFCURVE",
"631 -340 CURVE SMOOTH",
"562 -340 OFFCURVE",
"503 -315 OFFCURVE",
"454 -266 CURVE SMOOTH",
"439 -251 OFFCURVE",
"431 -232 OFFCURVE",
"431 -210 CURVE SMOOTH",
"431 -166 OFFCURVE",
"465 -132 OFFCURVE",
"510 -132 CURVE SMOOTH",
"531 -132 OFFCURVE",
"550 -140 OFFCURVE",
"567 -155 CURVE",
"585 -173 OFFCURVE",
"606 -183 OFFCURVE",
"631 -183 CURVE SMOOTH",
"678 -183 OFFCURVE",
"722 -142 OFFCURVE",
"722 -91 CURVE SMOOTH",
"722 -40 OFFCURVE",
"678 -1 OFFCURVE",
"631 -1 CURVE SMOOTH",
"82 -1 LINE SMOOTH",
"61 -1 OFFCURVE",
"41 7 OFFCURVE",
"25 23 CURVE",
"8 38 OFFCURVE",
"0 58 OFFCURVE",
"0 79 CURVE SMOOTH",
"0 123 OFFCURVE",
"38 159 OFFCURVE",
"82 159 CURVE SMOOTH"
);
}
);
width = 2736;
}
);
unicode = F000;
},
{
glyphname = uniF001;
lastChange = "2014-05-03 20:32:01 +0000";
layers = (
{
layerId = "8BEE18A2-62EC-4A69-8B77-4987BEDA7528";
name = Regular;
paths = (
{
closed = 1;
nodes = (
"1643 1875 LINE SMOOTH",
"1643 1920 OFFCURVE",
"1679 1956 OFFCURVE",
"1722 1956 CURVE SMOOTH",
"1768 1956 OFFCURVE",
"1800 1920 OFFCURVE",
"1800 1875 CURVE SMOOTH",
"1800 1684 LINE SMOOTH",
"1800 1639 OFFCURVE",
"1768 1607 OFFCURVE",
"1722 1607 CURVE SMOOTH",
"1679 1607 OFFCURVE",
"1643 1639 OFFCURVE",
"1643 1684 CURVE SMOOTH"
);
},
{
closed = 1;
nodes = (
"2316 1664 LINE",
"2331 1678 OFFCURVE",
"2350 1686 OFFCURVE",
"2373 1686 CURVE SMOOTH",
"2417 1686 OFFCURVE",
"2453 1651 OFFCURVE",
"2453 1607 CURVE SMOOTH",
"2453 1584 OFFCURVE",
"2445 1564 OFFCURVE",
"2430 1550 CURVE SMOOTH",
"2293 1415 LINE",
"2282 1400 OFFCURVE",
"2263 1392 OFFCURVE",
"2238 1392 CURVE SMOOTH",
"2213 1392 OFFCURVE",
"2193 1400 OFFCURVE",
"2182 1415 CURVE",
"2166 1430 OFFCURVE",
"2159 1449 OFFCURVE",
"2159 1471 CURVE SMOOTH",
"2159 1492 OFFCURVE",
"2166 1511 OFFCURVE",
"2182 1526 CURVE"
);
},
{
closed = 1;
nodes = (
"1016 1550 LINE",
"1001 1564 OFFCURVE",
"993 1584 OFFCURVE",
"993 1606 CURVE SMOOTH",
"993 1649 OFFCURVE",
"1028 1684 OFFCURVE",
"1075 1684 CURVE SMOOTH",
"1095 1684 OFFCURVE",
"1114 1676 OFFCURVE",
"1129 1661 CURVE SMOOTH",
"1189 1600 LINE SMOOTH",
"1204 1585 OFFCURVE",
"1212 1567 OFFCURVE",
"1212 1545 CURVE SMOOTH",
"1212 1498 OFFCURVE",
"1178 1466 OFFCURVE",
"1131 1466 CURVE SMOOTH",
"1108 1466 OFFCURVE",
"1089 1474 OFFCURVE",
"1075 1488 CURVE SMOOTH"
);
},
{
closed = 1;
nodes = (
"1038 0 LINE SMOOTH",
"1027 0 OFFCURVE",
"1022 6 OFFCURVE",
"1022 17 CURVE SMOOTH",
"1022 141 LINE SMOOTH",
"1022 153 OFFCURVE",
"1027 158 OFFCURVE",
"1038 158 CURVE SMOOTH",
"1681 158 LINE SMOOTH",
"1847 158 OFFCURVE",
"1986 295 OFFCURVE",
"1986 464 CURVE SMOOTH",
"1986 627 OFFCURVE",
"1847 765 OFFCURVE",
"1681 765 CURVE SMOOTH",
"1531 765 LINE SMOOTH",
"1520 765 OFFCURVE",
"1515 770 OFFCURVE",
"1515 782 CURVE",
"1508 835 LINE SMOOTH",
"1487 1037 OFFCURVE",
"1314 1191 OFFCURVE",
"1112 1191 CURVE SMOOTH",
"907 1191 OFFCURVE",
"735 1037 OFFCURVE",
"716 835 CURVE",
"709 782 LINE",
"709 770 OFFCURVE",
"705 765 OFFCURVE",
"694 765 CURVE SMOOTH",
"643 765 LINE",
"532 752 OFFCURVE",
"441 682 OFFCURVE",
"394 584 CURVE",
"391 575 OFFCURVE",
"382 571 OFFCURVE",
"374 571 CURVE SMOOTH",
"244 571 LINE SMOOTH",
"232 571 OFFCURVE",
"228 575 OFFCURVE",
"228 584 CURVE SMOOTH",
"228 585 OFFCURVE",
"228 588 OFFCURVE",
"230 590 CURVE",
"277 748 OFFCURVE",
"407 874 OFFCURVE",
"566 913 CURVE",
"622 1167 OFFCURVE",
"848 1348 OFFCURVE",
"1112 1348 CURVE SMOOTH",
"1204 1348 OFFCURVE",
"1287 1328 OFFCURVE",
"1364 1288 CURVE",
"1455 1387 OFFCURVE",
"1585 1446 OFFCURVE",
"1722 1446 CURVE SMOOTH",
"1991 1446 OFFCURVE",
"2213 1225 OFFCURVE",
"2213 957 CURVE SMOOTH",
"2213 842 OFFCURVE",
"2176 740 OFFCURVE",
"2104 651 CURVE",
"2133 590 OFFCURVE",
"2145 528 OFFCURVE",
"2145 464 CURVE SMOOTH",
"2145 208 OFFCURVE",
"1937 0 OFFCURVE",
"1681 0 CURVE SMOOTH"
);
},
{
closed = 1;
nodes = (
"1681 921 LINE SMOOTH",
"1809 921 OFFCURVE",
"1918 878 OFFCURVE",
"2007 788 CURVE",
"2035 837 OFFCURVE",
"2050 893 OFFCURVE",
"2050 957 CURVE SMOOTH",
"2050 1138 OFFCURVE",
"1905 1285 OFFCURVE",
"1722 1285 CURVE SMOOTH",
"1632 1285 OFFCURVE",
"1554 1255 OFFCURVE",
"1494 1197 CURVE",
"1574 1120 OFFCURVE",
"1626 1029 OFFCURVE",
"1653 921 CURVE"
);
},
{
closed = 1;
nodes = (
"2639 1028 LINE SMOOTH",
"2681 1028 OFFCURVE",
"2717 997 OFFCURVE",
"2717 954 CURVE SMOOTH",
"2717 909 OFFCURVE",
"2681 873 OFFCURVE",
"2639 873 CURVE SMOOTH",
"2449 873 LINE SMOOTH",
"2429 873 OFFCURVE",
"2410 881 OFFCURVE",
"2393 897 CURVE SMOOTH",
"2376 912 OFFCURVE",
"2368 932 OFFCURVE",
"2368 954 CURVE SMOOTH",
"2368 997 OFFCURVE",
"2404 1028 OFFCURVE",
"2449 1028 CURVE SMOOTH"
);
},
{
closed = 1;
nodes = (
"2255 308 LINE SMOOTH",
"2240 323 OFFCURVE",
"2233 343 OFFCURVE",
"2233 364 CURVE SMOOTH",
"2233 409 OFFCURVE",
"2265 444 OFFCURVE",
"2310 444 CURVE SMOOTH",
"2333 444 OFFCURVE",
"2353 435 OFFCURVE",
"2370 419 CURVE SMOOTH",
"2430 362 LINE",
"2445 346 OFFCURVE",
"2453 326 OFFCURVE",
"2453 305 CURVE SMOOTH",
"2453 284 OFFCURVE",
"2445 264 OFFCURVE",
"2430 249 CURVE",
"2409 233 OFFCURVE",
"2391 224 OFFCURVE",
"2373 224 CURVE SMOOTH",
"2355 224 OFFCURVE",
"2337 233 OFFCURVE",
"2316 249 CURVE"
);
},
{
closed = 1;
nodes = (
"1086 443 LINE SMOOTH",
"1131 443 OFFCURVE",
"1166 407 OFFCURVE",
"1166 362 CURVE SMOOTH",
"1166 318 OFFCURVE",
"1131 283 OFFCURVE",
"1086 283 CURVE SMOOTH",
"208 283 LINE SMOOTH",
"186 283 OFFCURVE",
"168 290 OFFCURVE",
"154 307 CURVE",
"139 321 OFFCURVE",
"130 341 OFFCURVE",
"130 362 CURVE SMOOTH",
"130 407 OFFCURVE",
"164 443 OFFCURVE",
"208 443 CURVE SMOOTH"
);
},
{
closed = 1;
nodes = (
"840 158 LINE SMOOTH",
"885 158 OFFCURVE",
"920 125 OFFCURVE",
"920 81 CURVE SMOOTH",
"920 36 OFFCURVE",
"885 0 OFFCURVE",
"840 0 CURVE SMOOTH",
"105 0 LINE SMOOTH",
"83 0 OFFCURVE",
"63 8 OFFCURVE",
"23 25 CURVE",
"8 40 OFFCURVE",
"0 60 OFFCURVE",
"0 82 CURVE SMOOTH",
"0 127 OFFCURVE",
"60 158 OFFCURVE",
"105 158 CURVE SMOOTH"
);
},
{
closed = 1;
nodes = (
"1253 -134 LINE SMOOTH",
"1297 -134 OFFCURVE",
"1331 -169 OFFCURVE",
"1331 -215 CURVE SMOOTH",
"1331 -258 OFFCURVE",
"1297 -294 OFFCURVE",
"1253 -294 CURVE SMOOTH",
"374 -294 LINE SMOOTH",
"354 -294 OFFCURVE",
"334 -286 OFFCURVE",
"319 -270 CURVE",
"303 -256 OFFCURVE",
"295 -235 OFFCURVE",
"295 -215 CURVE SMOOTH",
"295 -169 OFFCURVE",
"330 -134 OFFCURVE",
"374 -134 CURVE SMOOTH"
);
}
);
width = 2717;
}
);
unicode = F001;
},
{
glyphname = uniF002;
lastChange = "2014-05-03 20:32:08 +0000";
layers = (
{
layerId = "8BEE18A2-62EC-4A69-8B77-4987BEDA7528";
name = Regular;
paths = (
{
closed = 1;
nodes = (
"1435 1878 LINE SMOOTH",
"1435 1922 OFFCURVE",
"1468 1955 OFFCURVE",
"1512 1955 CURVE SMOOTH",
"1559 1955 OFFCURVE",
"1592 1922 OFFCURVE",
"1592 1878 CURVE SMOOTH",
"1592 1687 LINE SMOOTH",
"1592 1639 OFFCURVE",
"1559 1607 OFFCURVE",
"1512 1607 CURVE SMOOTH",
"1468 1607 OFFCURVE",
"1435 1639 OFFCURVE",
"1435 1687 CURVE SMOOTH"
);
},
{
closed = 1;
nodes = (
"808 1549 LINE",
"794 1564 OFFCURVE",
"785 1584 OFFCURVE",
"785 1607 CURVE SMOOTH",
"785 1651 OFFCURVE",
"820 1687 OFFCURVE",
"866 1687 CURVE SMOOTH",
"887 1687 OFFCURVE",
"906 1679 OFFCURVE",
"923 1664 CURVE",
"978 1603 LINE",
"995 1589 OFFCURVE",
"1003 1571 OFFCURVE",
"1003 1548 CURVE SMOOTH",
"1003 1502 OFFCURVE",
"965 1466 OFFCURVE",
"928 1466 CURVE",
"910 1464 OFFCURVE",
"890 1473 OFFCURVE",
"869 1489 CURVE"
);
},
{
closed = 1;
nodes = (
"2109 1664 LINE",
"2123 1679 OFFCURVE",
"2141 1687 OFFCURVE",
"2163 1687 CURVE SMOOTH",
"2207 1687 OFFCURVE",
"2241 1652 OFFCURVE",
"2241 1608 CURVE SMOOTH",
"2241 1585 OFFCURVE",
"2233 1566 OFFCURVE",
"2218 1549 CURVE",
"2084 1415 LINE",
"2066 1401 OFFCURVE",
"2047 1392 OFFCURVE",
"2029 1392 CURVE SMOOTH",
"2009 1392 OFFCURVE",
"1989 1401 OFFCURVE",
"1971 1415 CURVE",
"1957 1430 OFFCURVE",
"1950 1450 OFFCURVE",
"1950 1473 CURVE SMOOTH",
"1950 1494 OFFCURVE",
"1957 1513 OFFCURVE",
"1971 1530 CURVE"
);
},
{
closed = 1;
nodes = (
"460 -1 LINE SMOOTH",
"205 -1 OFFCURVE",
"0 206 OFFCURVE",
"0 462 CURVE SMOOTH",
"0 678 OFFCURVE",
"146 862 OFFCURVE",
"355 910 CURVE",
"412 1163 OFFCURVE",
"635 1345 OFFCURVE",
"898 1345 CURVE SMOOTH",
"993 1345 OFFCURVE",
"1077 1325 OFFCURVE",
"1150 1284 CURVE",
"1252 1392 OFFCURVE",
"1373 1446 OFFCURVE",
"1512 1446 CURVE SMOOTH",
"1782 1446 OFFCURVE",
"2001 1227 OFFCURVE",
"2001 957 CURVE SMOOTH",
"2001 838 OFFCURVE",
"1965 735 OFFCURVE",
"1894 648 CURVE",
"1921 583 OFFCURVE",
"1934 521 OFFCURVE",
"1934 462 CURVE SMOOTH",
"1934 206 OFFCURVE",
"1726 -1 OFFCURVE",
"1471 -1 CURVE SMOOTH"
);
},
{
closed = 1;
nodes = (
"1471 920 LINE SMOOTH",
"1598 920 OFFCURVE",
"1706 875 OFFCURVE",
"1796 786 CURVE",
"1827 840 OFFCURVE",
"1844 897 OFFCURVE",
"1844 957 CURVE SMOOTH",
"1844 1142 OFFCURVE",
"1697 1288 OFFCURVE",
"1512 1288 CURVE SMOOTH",
"1425 1288 OFFCURVE",
"1350 1257 OFFCURVE",
"1284 1194 CURVE",
"1364 1114 OFFCURVE",
"1417 1023 OFFCURVE",
"1441 920 CURVE"
);
},
{
closed = 1;
nodes = (
"1471 156 LINE SMOOTH",
"1636 156 OFFCURVE",
"1773 293 OFFCURVE",
"1773 462 CURVE SMOOTH",
"1773 625 OFFCURVE",
"1636 763 OFFCURVE",
"1471 763 CURVE SMOOTH",
"1320 763 LINE SMOOTH",
"1310 763 OFFCURVE",
"1304 768 OFFCURVE",
"1301 779 CURVE",
"1294 833 LINE SMOOTH",
"1275 1034 OFFCURVE",
"1103 1188 OFFCURVE",
"898 1188 CURVE SMOOTH",
"697 1188 OFFCURVE",
"529 1034 OFFCURVE",
"504 833 CURVE SMOOTH",
"498 782 LINE",
"498 771 OFFCURVE",
"491 766 OFFCURVE",
"480 766 CURVE",
"434 763 LINE",
"277 745 OFFCURVE",
"159 619 OFFCURVE",
"159 462 CURVE SMOOTH",
"159 296 OFFCURVE",
"296 156 OFFCURVE",
"460 156 CURVE SMOOTH"
);
},
{
closed = 1;
nodes = (
"2433 1037 LINE SMOOTH",
"2477 1037 OFFCURVE",
"2509 1001 OFFCURVE",
"2509 957 CURVE SMOOTH",
"2509 913 OFFCURVE",
"2477 880 OFFCURVE",
"2433 880 CURVE SMOOTH",
"2243 880 LINE SMOOTH",
"2220 880 OFFCURVE",
"2200 889 OFFCURVE",
"2186 903 CURVE",
"2169 918 OFFCURVE",
"2161 936 OFFCURVE",
"2161 957 CURVE SMOOTH",
"2161 1001 OFFCURVE",
"2199 1037 OFFCURVE",
"2243 1037 CURVE SMOOTH"
);
},
{
closed = 1;
nodes = (
"2048 310 LINE",
"2033 326 OFFCURVE",
"2025 346 OFFCURVE",
"2025 368 CURVE SMOOTH",
"2025 413 OFFCURVE",
"2060 447 OFFCURVE",
"2104 447 CURVE SMOOTH",
"2125 447 OFFCURVE",
"2143 439 OFFCURVE",
"2158 424 CURVE SMOOTH",
"2218 364 LINE SMOOTH",
"2233 349 OFFCURVE",
"2241 331 OFFCURVE",
"2241 310 CURVE SMOOTH",
"2241 264 OFFCURVE",
"2207 228 OFFCURVE",
"2163 228 CURVE SMOOTH",
"2141 228 OFFCURVE",
"2123 236 OFFCURVE",
"2109 251 CURVE"
);
}
);
width = 2509;
}
);
unicode = F002;
},
{
glyphname = uniF003;
lastChange = "2014-05-03 20:07:37 +0000";
layers = (
{
layerId = "8BEE18A2-62EC-4A69-8B77-4987BEDA7528";
name = Regular;
paths = (
{
closed = 1;
nodes = (
"1667 1875 LINE SMOOTH",
"1667 1919 OFFCURVE",
"1700 1955 OFFCURVE",
"1744 1955 CURVE SMOOTH",
"1788 1955 OFFCURVE",
"1826 1919 OFFCURVE",
"1826 1875 CURVE SMOOTH",
"1826 1684 LINE SMOOTH",
"1826 1640 OFFCURVE",
"1790 1607 OFFCURVE",
"1744 1607 CURVE SMOOTH",
"1700 1607 OFFCURVE",
"1667 1640 OFFCURVE",
"1667 1684 CURVE SMOOTH"
);
},
{
closed = 1;
nodes = (
"2339 1664 LINE SMOOTH",
"2354 1679 OFFCURVE",
"2374 1687 OFFCURVE",
"2395 1687 CURVE SMOOTH",
"2439 1687 OFFCURVE",
"2473 1653 OFFCURVE",
"2473 1609 CURVE SMOOTH",
"2473 1586 OFFCURVE",
"2465 1566 OFFCURVE",
"2450 1550 CURVE SMOOTH",
"2317 1416 LINE",
"2271 1379 OFFCURVE",
"2230 1389 OFFCURVE",
"2202 1416 CURVE",
"2188 1431 OFFCURVE",
"2180 1451 OFFCURVE",
"2180 1472 CURVE SMOOTH",
"2180 1493 OFFCURVE",
"2188 1512 OFFCURVE",
"2202 1527 CURVE SMOOTH"
);
},
{
closed = 1;
nodes = (
"1043 1550 LINE SMOOTH",
"1028 1565 OFFCURVE",
"1021 1584 OFFCURVE",
"1021 1605 CURVE SMOOTH",
"1021 1650 OFFCURVE",
"1052 1685 OFFCURVE",
"1098 1685 CURVE SMOOTH",
"1121 1685 OFFCURVE",
"1139 1677 OFFCURVE",
"1154 1661 CURVE",
"1214 1604 LINE",
"1229 1588 OFFCURVE",
"1237 1568 OFFCURVE",
"1237 1545 CURVE SMOOTH",
"1237 1499 OFFCURVE",
"1199 1465 OFFCURVE",
"1158 1465 CURVE SMOOTH",
"1137 1465 OFFCURVE",
"1119 1473 OFFCURVE",
"1103 1490 CURVE SMOOTH"
);
},
{
closed = 1;
nodes = (
"2145 599 LINE",
"2149 584 OFFCURVE",
"2144 578 OFFCURVE",
"2132 578 CURVE SMOOTH",
"1998 578 LINE SMOOTH",
"1992 578 OFFCURVE",
"1985 583 OFFCURVE",
"1979 593 CURVE",
"1932 697 OFFCURVE",
"1827 769 OFFCURVE",
"1705 769 CURVE SMOOTH",
"1555 769 LINE SMOOTH",
"1543 769 OFFCURVE",
"1537 774 OFFCURVE",
"1537 785 CURVE",
"1530 839 LINE SMOOTH",
"1509 1039 OFFCURVE",
"1338 1190 OFFCURVE",
"1137 1190 CURVE SMOOTH",
"933 1190 OFFCURVE",
"762 1038 OFFCURVE",
"742 836 CURVE SMOOTH",
"736 788 LINE",
"736 777 OFFCURVE",
"731 772 OFFCURVE",
"720 772 CURVE",
"669 765 LINE",
"563 757 OFFCURVE",
"468 689 OFFCURVE",
"424 593 CURVE",
"418 583 OFFCURVE",
"411 578 OFFCURVE",
"405 578 CURVE SMOOTH",
"271 578 LINE SMOOTH",
"261 578 OFFCURVE",
"256 583 OFFCURVE",
"256 591 CURVE SMOOTH",
"256 593 OFFCURVE",
"256 596 OFFCURVE",
"258 599 CURVE",
"315 764 OFFCURVE",
"426 868 OFFCURVE",
"592 912 CURVE",
"649 1167 OFFCURVE",
"875 1349 OFFCURVE",
"1137 1349 CURVE SMOOTH",
"1224 1349 OFFCURVE",
"1307 1330 OFFCURVE",
"1387 1291 CURVE",
"1481 1395 OFFCURVE",
"1600 1447 OFFCURVE",
"1744 1447 CURVE SMOOTH",
"2016 1447 OFFCURVE",
"2232 1229 OFFCURVE",
"2232 960 CURVE SMOOTH",
"2232 840 OFFCURVE",
"2196 738 OFFCURVE",
"2126 651 CURVE"
);
},
{
closed = 1;
nodes = (
"1705 925 LINE SMOOTH",
"1832 925 OFFCURVE",
"1940 881 OFFCURVE",
"2029 792 CURVE",
"2060 844 OFFCURVE",
"2075 899 OFFCURVE",
"2075 960 CURVE SMOOTH",
"2075 1142 OFFCURVE",
"1927 1291 OFFCURVE",
"1744 1291 CURVE SMOOTH",
"1656 1291 OFFCURVE",
"1581 1260 OFFCURVE",
"1517 1196 CURVE",
"1596 1124 OFFCURVE",
"1648 1035 OFFCURVE",
"1674 925 CURVE"
);
},
{
closed = 1;
nodes = (
"2664 1039 LINE SMOOTH",
"2708 1039 OFFCURVE",
"2741 1004 OFFCURVE",
"2741 960 CURVE SMOOTH",
"2741 915 OFFCURVE",
"2708 880 OFFCURVE",
"2664 880 CURVE SMOOTH",
"2473 880 LINE SMOOTH",
"2452 880 OFFCURVE",
"2432 888 OFFCURVE",
"2418 904 CURVE",
"2401 919 OFFCURVE",
"2393 938 OFFCURVE",
"2393 960 CURVE SMOOTH",
"2393 1004 OFFCURVE",
"2429 1039 OFFCURVE",
"2473 1039 CURVE SMOOTH"
);
},
{
closed = 1;
nodes = (
"2279 315 LINE SMOOTH",
"2263 330 OFFCURVE",
"2255 349 OFFCURVE",
"2255 371 CURVE SMOOTH",
"2255 415 OFFCURVE",
"2289 451 OFFCURVE",
"2334 451 CURVE SMOOTH",
"2357 451 OFFCURVE",
"2375 442 OFFCURVE",
"2390 428 CURVE",
"2450 367 LINE",
"2465 353 OFFCURVE",
"2473 335 OFFCURVE",
"2473 314 CURVE SMOOTH",
"2473 291 OFFCURVE",
"2465 271 OFFCURVE",
"2450 255 CURVE",
"2432 240 OFFCURVE",
"2413 232 OFFCURVE",
"2393 232 CURVE SMOOTH",
"2372 232 OFFCURVE",
"2354 240 OFFCURVE",
"2339 255 CURVE SMOOTH"
);
},
{
closed = 1;
nodes = (
"2072 444 LINE SMOOTH",
"2116 444 OFFCURVE",
"2149 411 OFFCURVE",
"2149 367 CURVE SMOOTH",
"2149 323 OFFCURVE",
"2116 287 OFFCURVE",
"2072 287 CURVE SMOOTH",
"325 287 LINE SMOOTH",
"304 287 OFFCURVE",
"284 296 OFFCURVE",
"269 312 CURVE",
"253 327 OFFCURVE",
"245 346 OFFCURVE",
"245 367 CURVE SMOOTH",
"245 411 OFFCURVE",
"281 444 OFFCURVE",
"325 444 CURVE SMOOTH"
);
},
{
closed = 1;
nodes = (
"1829 154 LINE SMOOTH",
"1874 154 OFFCURVE",
"1909 119 OFFCURVE",
"1909 74 CURVE SMOOTH",
"1909 30 OFFCURVE",
"1873 -3 OFFCURVE",
"1829 -3 CURVE SMOOTH",
"82 -3 LINE SMOOTH",
"36 -3 OFFCURVE",
"0 30 OFFCURVE",
"0 74 CURVE SMOOTH",
"0 119 OFFCURVE",
"36 154 OFFCURVE",
"82 154 CURVE SMOOTH"
);
},
{
closed = 1;
nodes = (
"2237 -137 LINE SMOOTH",
"2281 -137 OFFCURVE",
"2317 -169 OFFCURVE",
"2317 -213 CURVE SMOOTH",
"2317 -257 OFFCURVE",
"2281 -293 OFFCURVE",
"2237 -293 CURVE SMOOTH",
"488 -293 LINE SMOOTH",
"467 -293 OFFCURVE",
"447 -285 OFFCURVE",
"433 -269 CURVE",
"416 -254 OFFCURVE",
"408 -234 OFFCURVE",
"408 -213 CURVE SMOOTH",
"408 -169 OFFCURVE",
"444 -137 OFFCURVE",
"488 -137 CURVE SMOOTH"
);
}
);
width = 2741;
}
);
unicode = F003;
},
{
glyphname = uniF004;
lastChange = "2014-05-03 20:32:18 +0000";
layers = (
{
layerId = "8BEE18A2-62EC-4A69-8B77-4987BEDA7528";
name = Regular;
paths = (
{
closed = 1;
nodes = (
"1441 1884 LINE SMOOTH",
"1441 1928 OFFCURVE",
"1477 1964 OFFCURVE",
"1522 1964 CURVE SMOOTH",
"1566 1964 OFFCURVE",
"1599 1928 OFFCURVE",
"1599 1884 CURVE SMOOTH",
"1599 1691 LINE SMOOTH",
"1599 1647 OFFCURVE",
"1566 1611 OFFCURVE",
"1522 1611 CURVE SMOOTH",
"1477 1611 OFFCURVE",
"1441 1647 OFFCURVE",
"1441 1691 CURVE SMOOTH"
);
},
{
closed = 1;
nodes = (
"2118 1668 LINE",
"2133 1685 OFFCURVE",
"2151 1693 OFFCURVE",
"2172 1693 CURVE SMOOTH",
"2217 1693 OFFCURVE",
"2253 1657 OFFCURVE",
"2253 1613 CURVE SMOOTH",
"2253 1591 OFFCURVE",
"2245 1571 OFFCURVE",
"2228 1557 CURVE",
"2093 1422 LINE SMOOTH",
"2062 1391 OFFCURVE",
"2010 1389 OFFCURVE",
"1983 1422 CURVE",
"1967 1437 OFFCURVE",
"1959 1455 OFFCURVE",
"1959 1478 CURVE SMOOTH",
"1959 1499 OFFCURVE",
"1967 1519 OFFCURVE",
"1983 1534 CURVE SMOOTH"
);
},
{
closed = 1;
nodes = (
"812 1557 LINE",
"797 1571 OFFCURVE",
"789 1591 OFFCURVE",
"789 1613 CURVE SMOOTH",
"789 1657 OFFCURVE",
"823 1691 OFFCURVE",
"869 1691 CURVE SMOOTH",
"890 1691 OFFCURVE",
"910 1683 OFFCURVE",
"927 1668 CURVE",
"986 1608 LINE SMOOTH",
"1001 1593 OFFCURVE",
"1009 1575 OFFCURVE",
"1009 1552 CURVE SMOOTH",
"1009 1506 OFFCURVE",
"961 1466 OFFCURVE",
"923 1471 CURVE SMOOTH",
"904 1473 OFFCURVE",
"887 1481 OFFCURVE",
"872 1496 CURVE SMOOTH"
);
},
{
closed = 1;
nodes = (
"1477 140 LINE SMOOTH",
"1477 152 OFFCURVE",
"1484 157 OFFCURVE",
"1495 157 CURVE",
"1655 165 OFFCURVE",
"1785 301 OFFCURVE",
"1785 464 CURVE SMOOTH",
"1785 628 OFFCURVE",
"1643 766 OFFCURVE",
"1477 766 CURVE SMOOTH",
"1326 766 LINE SMOOTH",
"1314 766 OFFCURVE",
"1310 771 OFFCURVE",
"1310 783 CURVE",
"1303 837 LINE SMOOTH",
"1282 1039 OFFCURVE",
"1107 1193 OFFCURVE",
"905 1193 CURVE SMOOTH",
"700 1193 OFFCURVE",
"529 1039 OFFCURVE",
"509 837 CURVE SMOOTH",
"503 786 LINE",
"503 774 OFFCURVE",
"496 769 OFFCURVE",
"485 769 CURVE",
"435 766 LINE",
"279 748 OFFCURVE",
"159 620 OFFCURVE",
"159 464 CURVE SMOOTH",
"159 301 OFFCURVE",
"289 165 OFFCURVE",
"448 157 CURVE",
"460 157 OFFCURVE",
"465 152 OFFCURVE",
"465 140 CURVE SMOOTH",
"465 15 LINE SMOOTH",
"465 4 OFFCURVE",
"460 -1 OFFCURVE",
"448 -1 CURVE",
"199 10 OFFCURVE",
"0 214 OFFCURVE",
"0 464 CURVE SMOOTH",
"0 681 OFFCURVE",
"151 866 OFFCURVE",
"356 914 CURVE",
"414 1169 OFFCURVE",
"641 1351 OFFCURVE",
"905 1351 CURVE SMOOTH",
"997 1351 OFFCURVE",
"1081 1332 OFFCURVE",
"1158 1290 CURVE",
"1255 1399 OFFCURVE",
"1377 1453 OFFCURVE",
"1522 1453 CURVE SMOOTH",
"1791 1453 OFFCURVE",
"2013 1231 OFFCURVE",
"2013 962 CURVE SMOOTH",
"2013 845 OFFCURVE",
"1977 742 OFFCURVE",
"1903 651 CURVE",
"1929 594 OFFCURVE",
"1942 531 OFFCURVE",
"1942 464 CURVE SMOOTH",
"1942 214 OFFCURVE",
"1745 7 OFFCURVE",
"1495 -1 CURVE SMOOTH",
"1484 -1 OFFCURVE",
"1477 4 OFFCURVE",
"1477 15 CURVE SMOOTH"
);
},
{
closed = 1;
nodes = (
"1477 924 LINE SMOOTH",
"1605 924 OFFCURVE",
"1714 880 OFFCURVE",
"1804 789 CURVE",
"1835 843 OFFCURVE",
"1852 901 OFFCURVE",
"1852 962 CURVE SMOOTH",
"1852 1144 OFFCURVE",
"1704 1290 OFFCURVE",
"1522 1290 CURVE SMOOTH",
"1431 1290 OFFCURVE",
"1354 1261 OFFCURVE",
"1290 1200 CURVE",
"1369 1124 OFFCURVE",
"1421 1032 OFFCURVE",
"1448 924 CURVE"
);
},
{
closed = 1;
nodes = (
"2443 1039 LINE SMOOTH",
"2488 1039 OFFCURVE",
"2524 1006 OFFCURVE",
"2524 962 CURVE SMOOTH",
"2524 917 OFFCURVE",
"2488 881 OFFCURVE",
"2443 881 CURVE SMOOTH",
"2253 881 LINE SMOOTH",
"2232 881 OFFCURVE",
"2212 889 OFFCURVE",
"2195 906 CURVE SMOOTH",
"2179 921 OFFCURVE",
"2171 940 OFFCURVE",
"2171 962 CURVE SMOOTH",
"2171 1006 OFFCURVE",
"2207 1039 OFFCURVE",
"2253 1039 CURVE SMOOTH"
);
},
{
closed = 1;
nodes = (
"657 396 LINE SMOOTH",
"670 438 OFFCURVE",
"713 462 OFFCURVE",
"754 449 CURVE",
"798 441 OFFCURVE",
"827 398 OFFCURVE",
"812 352 CURVE SMOOTH",
"715 52 LINE SMOOTH",
"702 12 OFFCURVE",
"682 -9 OFFCURVE",
"650 -9 CURVE SMOOTH",
"630 -9 OFFCURVE",
"589 -1 OFFCURVE",
"567 34 CURVE",
"561 45 OFFCURVE",
"558 57 OFFCURVE",
"558 70 CURVE SMOOTH",
"558 78 OFFCURVE",
"559 86 OFFCURVE",
"561 95 CURVE"
);
},
{
closed = 1;
nodes = (
"976 396 LINE SMOOTH",
"989 439 OFFCURVE",
"1030 462 OFFCURVE",
"1075 449 CURVE SMOOTH",
"1116 438 OFFCURVE",
"1140 397 OFFCURVE",
"1127 352 CURVE SMOOTH",
"959 -221 LINE SMOOTH",
"951 -249 OFFCURVE",
"939 -267 OFFCURVE",
"919 -275 CURVE",
"908 -280 OFFCURVE",
"896 -282 OFFCURVE",
"883 -282 CURVE SMOOTH",
"875 -282 OFFCURVE",
"868 -280 OFFCURVE",
"860 -278 CURVE",
"816 -265 OFFCURVE",
"801 -229 OFFCURVE",
"801 -203 CURVE SMOOTH",
"801 -196 OFFCURVE",
"802 -190 OFFCURVE",
"804 -181 CURVE"
);
},
{
closed = 1;
nodes = (
"1290 396 LINE SMOOTH",
"1304 439 OFFCURVE",
"1342 462 OFFCURVE",
"1387 449 CURVE SMOOTH",
"1428 438 OFFCURVE",
"1455 397 OFFCURVE",
"1441 352 CURVE SMOOTH",
"1345 55 LINE SMOOTH",
"1330 10 OFFCURVE",
"1297 -2 OFFCURVE",
"1271 -2 CURVE SMOOTH",
"1263 -2 OFFCURVE",
"1256 -1 OFFCURVE",
"1248 1 CURVE",
"1207 14 OFFCURVE",
"1190 47 OFFCURVE",
"1190 73 CURVE SMOOTH",
"1190 82 OFFCURVE",
"1192 90 OFFCURVE",
"1194 98 CURVE"
);
},
{
closed = 1;
nodes = (
"2057 311 LINE",
"2043 326 OFFCURVE",
"2034 345 OFFCURVE",
"2034 367 CURVE SMOOTH",
"2034 411 OFFCURVE",
"2069 447 OFFCURVE",
"2113 447 CURVE SMOOTH",
"2135 447 OFFCURVE",
"2153 439 OFFCURVE",
"2167 423 CURVE",
"2228 365 LINE SMOOTH",
"2245 349 OFFCURVE",
"2253 329 OFFCURVE",
"2253 308 CURVE SMOOTH",
"2253 285 OFFCURVE",
"2245 267 OFFCURVE",
"2228 252 CURVE",
"2215 235 OFFCURVE",
"2197 227 OFFCURVE",
"2174 227 CURVE SMOOTH",
"2149 227 OFFCURVE",
"2131 235 OFFCURVE",
"2118 252 CURVE"
);
},
{
closed = 1;
nodes = (
"492 -177 OFFCURVE",
"489 -157 OFFCURVE",
"500 -137 CURVE",
"518 -96 OFFCURVE",
"564 -76 OFFCURVE",
"602 -96 CURVE",
"641 -111 OFFCURVE",
"659 -157 OFFCURVE",
"641 -198 CURVE",
"627 -237 OFFCURVE",
"579 -255 OFFCURVE",
"541 -237 CURVE",
"521 -229 OFFCURVE",
"507 -214 OFFCURVE",
"498 -195 CURVE"
);
},
{
closed = 1;
nodes = (
"1124 -186 OFFCURVE",
"1123 -177 OFFCURVE",
"1123 -167 CURVE SMOOTH",
"1123 -157 OFFCURVE",
"1124 -147 OFFCURVE",
"1129 -137 CURVE SMOOTH",
"1148 -96 OFFCURVE",
"1194 -76 OFFCURVE",
"1235 -96 CURVE SMOOTH",
"1272 -114 OFFCURVE",
"1289 -157 OFFCURVE",
"1274 -198 CURVE SMOOTH",
"1266 -218 OFFCURVE",
"1251 -231 OFFCURVE",
"1231 -239 CURVE",
"1221 -242 OFFCURVE",
"1212 -244 OFFCURVE",
"1203 -244 CURVE SMOOTH",
"1192 -244 OFFCURVE",
"1182 -242 OFFCURVE",
"1171 -237 CURVE SMOOTH",
"1152 -229 OFFCURVE",
"1138 -216 OFFCURVE",
"1129 -196 CURVE"
);
},
{
closed = 1;
nodes = (
"733 -472 OFFCURVE",
"732 -462 OFFCURVE",
"732 -454 CURVE SMOOTH",
"732 -433 OFFCURVE",
"743 -395 OFFCURVE",
"783 -379 CURVE SMOOTH",
"822 -362 OFFCURVE",
"865 -380 OFFCURVE",
"883 -421 CURVE SMOOTH",
"901 -462 OFFCURVE",
"880 -510 OFFCURVE",
"839 -525 CURVE",
"829 -528 OFFCURVE",
"819 -530 OFFCURVE",
"811 -530 CURVE SMOOTH",
"799 -530 OFFCURVE",
"789 -528 OFFCURVE",
"779 -523 CURVE",
"758 -515 OFFCURVE",
"745 -500 OFFCURVE",
"737 -481 CURVE SMOOTH"
);
}
);
width = 2524;
}
);
unicode = F004;
},
{
glyphname = uniF005;
lastChange = "2014-05-03 20:32:22 +0000";
layers = (
{
layerId = "8BEE18A2-62EC-4A69-8B77-4987BEDA7528";
name = Regular;
paths = (
{
closed = 1;
nodes = (
"1432 1882 LINE SMOOTH",
"1432 1927 OFFCURVE",
"1468 1959 OFFCURVE",
"1512 1959 CURVE SMOOTH",
"1556 1959 OFFCURVE",
"1589 1927 OFFCURVE",
"1589 1882 CURVE SMOOTH",
"1589 1691 LINE SMOOTH",
"1589 1643 OFFCURVE",
"1556 1611 OFFCURVE",
"1512 1611 CURVE SMOOTH",
"1466 1611 OFFCURVE",
"1432 1645 OFFCURVE",
"1432 1691 CURVE SMOOTH"
);
},
{
closed = 1;
nodes = (
"805 1553 LINE SMOOTH",
"790 1568 OFFCURVE",
"782 1588 OFFCURVE",
"782 1611 CURVE SMOOTH",
"782 1655 OFFCURVE",
"818 1691 OFFCURVE",
"862 1691 CURVE SMOOTH",
"884 1691 OFFCURVE",
"903 1683 OFFCURVE",
"920 1668 CURVE",
"979 1607 LINE SMOOTH",
"993 1593 OFFCURVE",
"1002 1575 OFFCURVE",
"1002 1552 CURVE SMOOTH",
"1002 1529 OFFCURVE",
"993 1509 OFFCURVE",
"979 1493 CURVE",
"941 1462 OFFCURVE",
"903 1465 OFFCURVE",
"866 1493 CURVE"
);
},
{
closed = 1;
nodes = (
"2106 1668 LINE SMOOTH",
"2121 1683 OFFCURVE",
"2139 1691 OFFCURVE",
"2160 1691 CURVE SMOOTH",
"2204 1691 OFFCURVE",
"2240 1658 OFFCURVE",
"2240 1612 CURVE SMOOTH",
"2240 1589 OFFCURVE",
"2232 1570 OFFCURVE",
"2216 1553 CURVE SMOOTH",
"2082 1419 LINE",
"2060 1404 OFFCURVE",
"2042 1396 OFFCURVE",
"2024 1396 CURVE SMOOTH",
"2006 1396 OFFCURVE",
"1988 1404 OFFCURVE",
"1972 1419 CURVE SMOOTH",
"1956 1434 OFFCURVE",
"1947 1452 OFFCURVE",
"1947 1475 CURVE SMOOTH",
"1947 1498 OFFCURVE",
"1956 1517 OFFCURVE",
"1972 1534 CURVE SMOOTH"
);
},
{
closed = 1;
nodes = (
"1471 143 LINE SMOOTH",
"1471 154 OFFCURVE",
"1478 159 OFFCURVE",
"1489 159 CURVE",
"1651 171 OFFCURVE",
"1777 303 OFFCURVE",
"1777 462 CURVE SMOOTH",
"1777 627 OFFCURVE",
"1640 763 OFFCURVE",
"1471 763 CURVE SMOOTH",
"1321 763 LINE SMOOTH",
"1309 763 OFFCURVE",
"1304 768 OFFCURVE",
"1304 779 CURVE",
"1298 833 LINE SMOOTH",
"1276 1036 OFFCURVE",
"1105 1188 OFFCURVE",
"902 1188 CURVE SMOOTH",
"697 1188 OFFCURVE",
"527 1035 OFFCURVE",
"507 833 CURVE SMOOTH",
"501 786 LINE",
"501 774 OFFCURVE",
"494 770 OFFCURVE",
"483 770 CURVE",
"434 763 LINE",
"278 750 OFFCURVE",
"159 619 OFFCURVE",
"159 462 CURVE SMOOTH",
"159 303 OFFCURVE",
"285 171 OFFCURVE",
"447 159 CURVE",
"458 159 OFFCURVE",
"463 154 OFFCURVE",
"463 143 CURVE SMOOTH",
"463 15 LINE SMOOTH",
"463 4 OFFCURVE",
"458 -1 OFFCURVE",
"447 -1 CURVE",
"198 10 OFFCURVE",
"0 213 OFFCURVE",
"0 462 CURVE SMOOTH",
"0 678 OFFCURVE",
"151 863 OFFCURVE",
"355 910 CURVE",
"412 1166 OFFCURVE",
"638 1346 OFFCURVE",
"902 1346 CURVE SMOOTH",
"988 1346 OFFCURVE",
"1072 1326 OFFCURVE",
"1150 1288 CURVE",
"1247 1396 OFFCURVE",
"1368 1450 OFFCURVE",
"1512 1450 CURVE SMOOTH",
"1781 1450 OFFCURVE",
"2001 1231 OFFCURVE",
"2001 961 CURVE SMOOTH",
"2001 845 OFFCURVE",
"1964 743 OFFCURVE",
"1890 655 CURVE",
"1920 588 OFFCURVE",
"1934 522 OFFCURVE",
"1934 462 CURVE SMOOTH",
"1934 213 OFFCURVE",
"1738 7 OFFCURVE",
"1489 -1 CURVE SMOOTH",
"1478 -1 OFFCURVE",
"1471 4 OFFCURVE",
"1471 15 CURVE SMOOTH"
);
},
{
closed = 1;
nodes = (
"1471 923 LINE SMOOTH",
"1596 923 OFFCURVE",
"1704 879 OFFCURVE",
"1794 792 CURVE",
"1825 846 OFFCURVE",
"1841 904 OFFCURVE",
"1841 961 CURVE SMOOTH",
"1841 1146 OFFCURVE",
"1694 1293 OFFCURVE",
"1512 1293 CURVE SMOOTH",
"1422 1293 OFFCURVE",
"1345 1262 OFFCURVE",
"1281 1198 CURVE",
"1363 1121 OFFCURVE",
"1417 1030 OFFCURVE",
"1442 923 CURVE"
);
},
{
closed = 1;
nodes = (
"2430 1041 LINE SMOOTH",
"2474 1041 OFFCURVE",
"2510 1005 OFFCURVE",
"2510 961 CURVE SMOOTH",
"2510 917 OFFCURVE",
"2474 884 OFFCURVE",
"2430 884 CURVE SMOOTH",
"2239 884 LINE SMOOTH",
"2217 884 OFFCURVE",
"2198 892 OFFCURVE",
"2183 907 CURVE SMOOTH",
"2167 922 OFFCURVE",
"2159 940 OFFCURVE",
"2159 961 CURVE SMOOTH",
"2159 1005 OFFCURVE",
"2195 1041 OFFCURVE",
"2239 1041 CURVE SMOOTH"
);
},
{
closed = 1;
nodes = (
"728 -590 LINE",
"700 -590 LINE",
"930 9 LINE",
"728 9 LINE SMOOTH",
"717 9 OFFCURVE",
"712 15 OFFCURVE",
"715 28 CURVE",
"916 562 LINE",
"921 570 OFFCURVE",
"928 575 OFFCURVE",
"936 575 CURVE SMOOTH",
"1211 575 LINE SMOOTH",
"1226 575 OFFCURVE",
"1231 568 OFFCURVE",
"1224 555 CURVE SMOOTH",
"1010 162 LINE",
"1214 162 LINE SMOOTH",
"1227 162 OFFCURVE",
"1231 151 OFFCURVE",
"1224 143 CURVE"
);
},
{
closed = 1;
nodes = (
"2046 315 LINE SMOOTH",
"2031 331 OFFCURVE",
"2023 351 OFFCURVE",
"2023 372 CURVE SMOOTH",
"2023 416 OFFCURVE",
"2057 450 OFFCURVE",
"2101 450 CURVE SMOOTH",
"2123 450 OFFCURVE",
"2142 442 OFFCURVE",
"2159 428 CURVE",
"2216 367 LINE",
"2232 352 OFFCURVE",
"2240 334 OFFCURVE",
"2240 313 CURVE SMOOTH",
"2240 267 OFFCURVE",
"2204 231 OFFCURVE",
"2160 231 CURVE SMOOTH",
"2139 231 OFFCURVE",
"2121 239 OFFCURVE",
"2106 254 CURVE SMOOTH"
);
}
);
width = 2510;
}
);
unicode = F005;
},
{
glyphname = uniF006;
lastChange = "2014-05-03 20:32:25 +0000";
layers = (
{
layerId = "8BEE18A2-62EC-4A69-8B77-4987BEDA7528";
name = Regular;
paths = (
{
closed = 1;
nodes = (
"1438 1875 LINE SMOOTH",
"1438 1919 OFFCURVE",
"1470 1955 OFFCURVE",
"1514 1955 CURVE SMOOTH",
"1559 1955 OFFCURVE",
"1595 1919 OFFCURVE",
"1595 1875 CURVE SMOOTH",
"1595 1683 LINE SMOOTH",
"1595 1639 OFFCURVE",
"1559 1607 OFFCURVE",
"1514 1607 CURVE SMOOTH",
"1470 1607 OFFCURVE",
"1438 1639 OFFCURVE",
"1438 1683 CURVE SMOOTH"
);
},
{
closed = 1;
nodes = (
"2108 1664 LINE",
"2124 1679 OFFCURVE",
"2144 1687 OFFCURVE",
"2165 1687 CURVE SMOOTH",
"2210 1687 OFFCURVE",
"2244 1651 OFFCURVE",
"2244 1607 CURVE SMOOTH",
"2244 1584 OFFCURVE",
"2236 1564 OFFCURVE",
"2221 1549 CURVE SMOOTH",
"2087 1415 LINE",
"2041 1378 OFFCURVE",
"2002 1387 OFFCURVE",
"1974 1415 CURVE SMOOTH",
"1959 1430 OFFCURVE",
"1953 1450 OFFCURVE",
"1953 1471 CURVE SMOOTH",
"1953 1492 OFFCURVE",
"1959 1512 OFFCURVE",
"1974 1526 CURVE"
);
},
{
closed = 1;
nodes = (
"811 1549 LINE SMOOTH",
"796 1564 OFFCURVE",
"788 1584 OFFCURVE",
"788 1605 CURVE SMOOTH",
"788 1649 OFFCURVE",
"823 1685 OFFCURVE",
"867 1685 CURVE",
"888 1683 OFFCURVE",
"908 1675 OFFCURVE",
"922 1661 CURVE SMOOTH",
"981 1600 LINE SMOOTH",
"996 1585 OFFCURVE",
"1004 1567 OFFCURVE",
"1004 1544 CURVE SMOOTH",
"1004 1522 OFFCURVE",
"996 1504 OFFCURVE",
"981 1489 CURVE",
"948 1451 OFFCURVE",
"896 1463 OFFCURVE",
"872 1489 CURVE"
);
},
{
closed = 1;
nodes = (
"1470 139 LINE SMOOTH",
"1470 151 OFFCURVE",
"1477 156 OFFCURVE",
"1488 156 CURVE",
"1647 164 OFFCURVE",
"1773 296 OFFCURVE",
"1773 458 CURVE SMOOTH",
"1773 627 OFFCURVE",
"1635 763 OFFCURVE",
"1470 763 CURVE SMOOTH",
"1320 763 LINE SMOOTH",
"1310 763 OFFCURVE",
"1303 768 OFFCURVE",
"1300 779 CURVE",
"1294 833 LINE SMOOTH",
"1274 1034 OFFCURVE",
"1102 1185 OFFCURVE",
"898 1185 CURVE SMOOTH",
"693 1185 OFFCURVE",
"528 1034 OFFCURVE",
"504 830 CURVE SMOOTH",
"497 779 LINE",
"497 771 OFFCURVE",
"492 766 OFFCURVE",
"482 766 CURVE",
"433 759 LINE",
"276 746 OFFCURVE",
"158 615 OFFCURVE",
"158 458 CURVE SMOOTH",
"158 296 OFFCURVE",
"284 164 OFFCURVE",
"443 156 CURVE",
"454 156 OFFCURVE",
"459 151 OFFCURVE",
"459 139 CURVE SMOOTH",
"459 15 LINE SMOOTH",
"459 4 OFFCURVE",
"454 -1 OFFCURVE",
"443 -1 CURVE",
"194 10 OFFCURVE",
"0 210 OFFCURVE",
"0 458 CURVE SMOOTH",
"0 674 OFFCURVE",
"145 859 OFFCURVE",
"355 907 CURVE",
"412 1163 OFFCURVE",
"634 1345 OFFCURVE",
"898 1345 CURVE SMOOTH",
"984 1345 OFFCURVE",
"1069 1325 OFFCURVE",
"1153 1284 CURVE",
"1249 1392 OFFCURVE",
"1370 1446 OFFCURVE",
"1514 1446 CURVE SMOOTH",
"1784 1446 OFFCURVE",
"2003 1226 OFFCURVE",
"2003 957 CURVE SMOOTH",
"2003 839 OFFCURVE",
"1967 735 OFFCURVE",
"1894 645 CURVE",
"1918 584 OFFCURVE",
"1930 522 OFFCURVE",
"1930 458 CURVE SMOOTH",
"1930 210 OFFCURVE",
"1737 7 OFFCURVE",
"1488 -1 CURVE SMOOTH",
"1477 -1 OFFCURVE",
"1470 4 OFFCURVE",
"1470 15 CURVE SMOOTH"
);
},
{
closed = 1;
nodes = (
"1470 920 LINE SMOOTH",
"1596 920 OFFCURVE",
"1704 874 OFFCURVE",
"1796 782 CURVE",
"1830 838 OFFCURVE",
"1846 897 OFFCURVE",
"1846 957 CURVE SMOOTH",
"1846 1139 OFFCURVE",
"1699 1284 OFFCURVE",
"1514 1284 CURVE SMOOTH",
"1423 1284 OFFCURVE",
"1346 1253 OFFCURVE",
"1284 1191 CURVE",
"1364 1111 OFFCURVE",
"1416 1019 OFFCURVE",
"1441 920 CURVE"
);
},
{
closed = 1;
nodes = (
"2435 1037 LINE SMOOTH",
"2479 1037 OFFCURVE",
"2512 1001 OFFCURVE",
"2512 957 CURVE SMOOTH",
"2512 913 OFFCURVE",
"2479 877 OFFCURVE",
"2435 877 CURVE SMOOTH",
"2246 877 LINE SMOOTH",
"2224 877 OFFCURVE",
"2205 885 OFFCURVE",
"2188 902 CURVE",
"2172 916 OFFCURVE",
"2164 936 OFFCURVE",
"2164 957 CURVE SMOOTH",
"2164 1001 OFFCURVE",
"2201 1037 OFFCURVE",
"2246 1037 CURVE SMOOTH"
);
},
{
closed = 1;
nodes = (
"654 395 LINE",
"667 435 OFFCURVE",
"710 460 OFFCURVE",
"751 447 CURVE",
"795 435 OFFCURVE",
"822 396 OFFCURVE",
"808 350 CURVE SMOOTH",
"782 266 LINE SMOOTH",
"769 222 OFFCURVE",
"723 201 OFFCURVE",
"685 212 CURVE SMOOTH",
"641 226 OFFCURVE",
"626 258 OFFCURVE",
"628 284 CURVE",
"628 293 OFFCURVE",
"630 301 OFFCURVE",
"631 309 CURVE"
);
},
{
closed = 1;
nodes = (
"1280 391 LINE SMOOTH",
"1293 434 OFFCURVE",
"1333 457 OFFCURVE",
"1377 444 CURVE SMOOTH",
"1418 432 OFFCURVE",
"1443 390 OFFCURVE",
"1431 347 CURVE SMOOTH",
"1408 263 LINE SMOOTH",
"1402 240 OFFCURVE",
"1388 224 OFFCURVE",
"1370 214 CURVE",
"1359 209 OFFCURVE",
"1348 206 OFFCURVE",
"1336 206 CURVE SMOOTH",
"1328 206 OFFCURVE",
"1320 208 OFFCURVE",
"1312 209 CURVE",
"1267 222 OFFCURVE",
"1251 257 OFFCURVE",
"1251 284 CURVE SMOOTH",
"1251 291 OFFCURVE",
"1253 297 OFFCURVE",
"1254 306 CURVE"
);
},
{
closed = 1;
nodes = (
"2051 310 LINE",
"2035 324 OFFCURVE",
"2026 342 OFFCURVE",
"2026 365 CURVE SMOOTH",
"2026 388 OFFCURVE",
"2035 406 OFFCURVE",
"2051 421 CURVE",
"2082 453 OFFCURVE",
"2133 452 OFFCURVE",
"2160 421 CURVE",
"2221 364 LINE",
"2236 347 OFFCURVE",
"2244 328 OFFCURVE",
"2244 306 CURVE SMOOTH",
"2244 285 OFFCURVE",
"2236 265 OFFCURVE",
"2221 251 CURVE",
"2203 236 OFFCURVE",
"2183 228 OFFCURVE",
"2165 228 CURVE SMOOTH",
"2146 228 OFFCURVE",
"2126 236 OFFCURVE",
"2108 251 CURVE"
);
},
{
closed = 1;
nodes = (
"891 102 LINE",
"904 146 OFFCURVE",
"948 171 OFFCURVE",
"989 159 CURVE SMOOTH",
"1034 146 OFFCURVE",
"1058 103 OFFCURVE",
"1045 63 CURVE SMOOTH",
"1020 -21 LINE SMOOTH",
"1004 -75 OFFCURVE",
"962 -90 OFFCURVE",
"922 -79 CURVE",
"881 -71 OFFCURVE",
"865 -31 OFFCURVE",
"867 -7 CURVE",
"867 1 OFFCURVE",
"868 10 OFFCURVE",
"870 18 CURVE SMOOTH"
);
},
{
closed = 1;
nodes = (
"579 33 OFFCURVE",
"571 50 OFFCURVE",
"571 72 CURVE SMOOTH",
"571 116 OFFCURVE",
"603 149 OFFCURVE",
"647 149 CURVE SMOOTH",
"692 149 OFFCURVE",
"726 116 OFFCURVE",
"726 72 CURVE SMOOTH",
"726 28 OFFCURVE",
"692 -5 OFFCURVE",
"647 -5 CURVE SMOOTH",
"626 -5 OFFCURVE",
"608 3 OFFCURVE",
"594 18 CURVE SMOOTH"
);
},
{
closed = 1;
nodes = (
"1202 29 OFFCURVE",
"1194 47 OFFCURVE",
"1194 68 CURVE SMOOTH",
"1194 113 OFFCURVE",
"1227 145 OFFCURVE",
"1271 145 CURVE SMOOTH",
"1315 145 OFFCURVE",
"1348 113 OFFCURVE",
"1348 68 CURVE SMOOTH",
"1348 24 OFFCURVE",
"1315 -8 OFFCURVE",
"1271 -8 CURVE SMOOTH",
"1249 -8 OFFCURVE",
"1231 0 OFFCURVE",
"1217 15 CURVE"
);
},
{
closed = 1;
nodes = (
"515 -126 LINE SMOOTH",
"526 -81 OFFCURVE",
"571 -57 OFFCURVE",
"612 -69 CURVE SMOOTH",
"656 -82 OFFCURVE",
"678 -124 OFFCURVE",
"669 -165 CURVE SMOOTH",
"656 -222 LINE SMOOTH",
"643 -278 OFFCURVE",
"598 -289 OFFCURVE",
"559 -278 CURVE SMOOTH",
"518 -265 OFFCURVE",
"500 -227 OFFCURVE",
"500 -199 CURVE SMOOTH",
"500 -193 OFFCURVE",
"500 -186 OFFCURVE",
"502 -181 CURVE"
);
},
{
closed = 1;
nodes = (
"1137 -129 LINE",
"1150 -85 OFFCURVE",
"1192 -61 OFFCURVE",
"1238 -72 CURVE",
"1279 -85 OFFCURVE",
"1305 -129 OFFCURVE",
"1292 -169 CURVE",
"1279 -225 LINE SMOOTH",
"1269 -267 OFFCURVE",
"1243 -286 OFFCURVE",
"1208 -286 CURVE SMOOTH",
"1200 -286 OFFCURVE",
"1192 -284 OFFCURVE",
"1182 -283 CURVE",
"1141 -271 OFFCURVE",
"1125 -234 OFFCURVE",
"1125 -207 CURVE SMOOTH",
"1125 -199 OFFCURVE",
"1127 -193 OFFCURVE",
"1128 -184 CURVE"
);
},
{
closed = 1;
nodes = (
"818 -259 OFFCURVE",
"809 -241 OFFCURVE",
"809 -219 CURVE SMOOTH",
"809 -175 OFFCURVE",
"842 -143 OFFCURVE",
"886 -143 CURVE SMOOTH",
"930 -143 OFFCURVE",
"963 -175 OFFCURVE",
"963 -219 CURVE SMOOTH",
"963 -264 OFFCURVE",
"930 -296 OFFCURVE",
"886 -296 CURVE SMOOTH",
"865 -296 OFFCURVE",
"847 -288 OFFCURVE",
"832 -273 CURVE SMOOTH"
);
},
{
closed = 1;
nodes = (
"752 -414 LINE",
"765 -373 OFFCURVE",
"809 -347 OFFCURVE",
"849 -360 CURVE",
"893 -368 OFFCURVE",
"917 -411 OFFCURVE",
"906 -458 CURVE SMOOTH",
"893 -513 LINE SMOOTH",
"881 -562 OFFCURVE",
"844 -570 OFFCURVE",
"819 -570 CURVE SMOOTH",
"811 -570 OFFCURVE",
"804 -569 OFFCURVE",
"796 -567 CURVE",
"752 -554 OFFCURVE",
"736 -518 OFFCURVE",
"736 -490 CURVE SMOOTH",
"736 -484 OFFCURVE",
"737 -477 OFFCURVE",
"739 -469 CURVE SMOOTH"
);
}
);
width = 2525;
}
);
unicode = F006;
},
{
glyphname = uniF007;
lastChange = "2014-05-03 20:32:29 +0000";
layers = (
{
layerId = "8BEE18A2-62EC-4A69-8B77-4987BEDA7528";
name = Regular;
paths = (
{
closed = 1;
nodes = (
"1442 1881 LINE SMOOTH",
"1442 1925 OFFCURVE",
"1478 1961 OFFCURVE",
"1522 1961 CURVE SMOOTH",
"1567 1961 OFFCURVE",
"1603 1925 OFFCURVE",
"1603 1881 CURVE SMOOTH",
"1603 1688 LINE SMOOTH",
"1603 1644 OFFCURVE",
"1567 1611 OFFCURVE",
"1522 1611 CURVE SMOOTH",
"1478 1611 OFFCURVE",
"1442 1644 OFFCURVE",
"1442 1688 CURVE SMOOTH"
);
},
{
closed = 1;
nodes = (
"2119 1669 LINE",
"2134 1683 OFFCURVE",
"2152 1692 OFFCURVE",
"2175 1692 CURVE SMOOTH",
"2219 1692 OFFCURVE",
"2256 1655 OFFCURVE",
"2256 1611 CURVE SMOOTH",
"2256 1588 OFFCURVE",
"2247 1568 OFFCURVE",
"2233 1554 CURVE SMOOTH",
"2094 1419 LINE",
"2068 1386 OFFCURVE",
"2016 1388 OFFCURVE",
"1984 1419 CURVE",
"1970 1434 OFFCURVE",
"1963 1453 OFFCURVE",
"1963 1475 CURVE SMOOTH",
"1963 1496 OFFCURVE",
"1970 1516 OFFCURVE",
"1984 1531 CURVE SMOOTH"
);
},
{
closed = 1;
nodes = (
"816 1554 LINE",
"799 1568 OFFCURVE",
"791 1586 OFFCURVE",
"791 1609 CURVE SMOOTH",
"791 1654 OFFCURVE",
"827 1688 OFFCURVE",
"872 1688 CURVE SMOOTH",
"893 1688 OFFCURVE",
"913 1680 OFFCURVE",
"927 1665 CURVE SMOOTH",
"987 1605 LINE SMOOTH",
"1001 1590 OFFCURVE",
"1010 1572 OFFCURVE",
"1010 1549 CURVE SMOOTH",
"1010 1503 OFFCURVE",
"962 1463 OFFCURVE",
"924 1468 CURVE SMOOTH",
"904 1470 OFFCURVE",
"888 1478 OFFCURVE",
"873 1493 CURVE SMOOTH"
);
},
{
closed = 1;
nodes = (
"1349 -230 LINE SMOOTH",
"1321 -268 OFFCURVE",
"1266 -276 OFFCURVE",
"1238 -244 CURVE",
"1206 -218 OFFCURVE",
"1198 -167 OFFCURVE",
"1224 -133 CURVE SMOOTH",
"1429 130 LINE",
"1440 143 OFFCURVE",
"1468 152 OFFCURVE",
"1513 157 CURVE SMOOTH",
"1664 170 OFFCURVE",
"1785 303 OFFCURVE",
"1785 461 CURVE SMOOTH",
"1785 627 OFFCURVE",
"1647 763 OFFCURVE",
"1483 763 CURVE SMOOTH",
"1330 763 LINE SMOOTH",
"1320 763 OFFCURVE",
"1314 768 OFFCURVE",
"1310 779 CURVE",
"1304 834 LINE SMOOTH",
"1284 1036 OFFCURVE",
"1112 1190 OFFCURVE",
"906 1190 CURVE SMOOTH",
"701 1190 OFFCURVE",
"530 1036 OFFCURVE",
"510 834 CURVE",
"503 783 LINE",
"503 771 OFFCURVE",
"497 766 OFFCURVE",
"485 766 CURVE",
"439 763 LINE",
"282 745 OFFCURVE",
"163 618 OFFCURVE",
"163 461 CURVE SMOOTH",
"163 291 OFFCURVE",
"300 153 OFFCURVE",
"466 153 CURVE",
"357 22 LINE",
"349 15 OFFCURVE",
"342 14 OFFCURVE",
"334 15 CURVE",
"139 69 OFFCURVE",
"0 250 OFFCURVE",
"0 461 CURVE SMOOTH",
"0 678 OFFCURVE",
"152 863 OFFCURVE",
"362 911 CURVE",
"416 1166 OFFCURVE",
"642 1348 OFFCURVE",
"906 1348 CURVE SMOOTH",
"1001 1348 OFFCURVE",
"1085 1328 OFFCURVE",
"1159 1287 CURVE",
"1261 1396 OFFCURVE",
"1383 1450 OFFCURVE",
"1522 1450 CURVE SMOOTH",
"1792 1450 OFFCURVE",
"2014 1228 OFFCURVE",
"2014 959 CURVE SMOOTH",
"2014 842 OFFCURVE",
"1978 738 OFFCURVE",
"1904 648 CURVE",
"1930 590 OFFCURVE",
"1943 528 OFFCURVE",
"1943 461 CURVE SMOOTH",
"1943 224 OFFCURVE",
"1761 23 OFFCURVE",
"1529 -1 CURVE"
);
},
{
closed = 1;
nodes = (
"1483 921 LINE SMOOTH",
"1610 921 OFFCURVE",
"1718 876 OFFCURVE",
"1808 786 CURVE",
"1840 840 OFFCURVE",
"1856 898 OFFCURVE",
"1856 959 CURVE SMOOTH",
"1856 1141 OFFCURVE",
"1707 1287 OFFCURVE",
"1522 1287 CURVE SMOOTH",
"1435 1287 OFFCURVE",
"1358 1258 OFFCURVE",
"1291 1197 CURVE",
"1373 1120 OFFCURVE",
"1427 1028 OFFCURVE",
"1452 921 CURVE"
);
},
{
closed = 1;
nodes = (
"2445 1036 LINE SMOOTH",
"2489 1036 OFFCURVE",
"2525 1003 OFFCURVE",
"2525 959 CURVE SMOOTH",
"2525 914 OFFCURVE",
"2489 878 OFFCURVE",
"2445 878 CURVE SMOOTH",
"2254 878 LINE SMOOTH",
"2233 878 OFFCURVE",
"2213 886 OFFCURVE",
"2198 903 CURVE",
"2183 918 OFFCURVE",
"2175 937 OFFCURVE",
"2175 959 CURVE SMOOTH",
"2175 1003 OFFCURVE",
"2210 1036 OFFCURVE",
"2254 1036 CURVE SMOOTH"
);
},
{
closed = 1;
nodes = (
"2058 308 LINE SMOOTH",
"2043 323 OFFCURVE",
"2035 342 OFFCURVE",
"2035 364 CURVE SMOOTH",
"2035 408 OFFCURVE",
"2071 444 OFFCURVE",
"2117 444 CURVE SMOOTH",
"2139 444 OFFCURVE",
"2157 436 OFFCURVE",
"2172 420 CURVE",
"2233 362 LINE",
"2247 346 OFFCURVE",
"2256 326 OFFCURVE",
"2256 304 CURVE SMOOTH",
"2256 283 OFFCURVE",
"2247 263 OFFCURVE",
"2233 249 CURVE",
"2211 232 OFFCURVE",
"2193 224 OFFCURVE",
"2175 224 CURVE SMOOTH",
"2170 224 LINE",
"2150 226 OFFCURVE",
"2134 234 OFFCURVE",
"2119 249 CURVE SMOOTH"
);
},
{
closed = 1;
nodes = (
"752 259 LINE",
"783 292 OFFCURVE",
"834 298 OFFCURVE",
"867 270 CURVE",
"900 244 OFFCURVE",
"904 192 OFFCURVE",
"877 158 CURVE SMOOTH",
"673 -105 LINE SMOOTH",
"648 -138 OFFCURVE",
"594 -141 OFFCURVE",
"561 -114 CURVE SMOOTH",
"545 -101 OFFCURVE",
"535 -83 OFFCURVE",
"533 -62 CURVE",
"533 -52 LINE SMOOTH",
"533 -34 OFFCURVE",
"540 -17 OFFCURVE",
"551 -3 CURVE SMOOTH"
);
},
{
closed = 1;
nodes = (
"1143 255 LINE SMOOTH",
"1169 288 OFFCURVE",
"1220 295 OFFCURVE",
"1253 268 CURVE",
"1286 237 OFFCURVE",
"1292 191 OFFCURVE",
"1266 153 CURVE",
"879 -335 LINE",
"851 -373 OFFCURVE",
"795 -379 OFFCURVE",
"767 -348 CURVE",
"749 -333 OFFCURVE",
"739 -315 OFFCURVE",
"737 -294 CURVE",
"737 -284 LINE SMOOTH",
"737 -266 OFFCURVE",
"742 -251 OFFCURVE",
"754 -236 CURVE SMOOTH"
);
},
{
closed = 1;
nodes = (
"357 -290 OFFCURVE",
"359 -274 OFFCURVE",
"367 -249 CURVE",
"382 -208 OFFCURVE",
"430 -190 OFFCURVE",
"471 -208 CURVE SMOOTH",
"509 -226 OFFCURVE",
"530 -272 OFFCURVE",
"512 -310 CURVE",
"497 -351 OFFCURVE",
"448 -371 OFFCURVE",
"407 -353 CURVE SMOOTH",
"385 -343 OFFCURVE",
"371 -328 OFFCURVE",
"364 -308 CURVE SMOOTH"
);
},
{
closed = 1;
nodes = (
"1068 -411 OFFCURVE",
"1066 -401 OFFCURVE",
"1066 -391 CURVE SMOOTH",
"1066 -379 OFFCURVE",
"1068 -369 OFFCURVE",
"1072 -358 CURVE SMOOTH",
"1087 -318 OFFCURVE",
"1137 -300 OFFCURVE",
"1178 -318 CURVE",
"1217 -333 OFFCURVE",
"1235 -381 OFFCURVE",
"1217 -422 CURVE",
"1209 -443 OFFCURVE",
"1194 -457 OFFCURVE",
"1174 -465 CURVE",
"1164 -468 OFFCURVE",
"1155 -470 OFFCURVE",
"1146 -470 CURVE SMOOTH",
"1135 -470 OFFCURVE",
"1125 -468 OFFCURVE",
"1114 -463 CURVE SMOOTH",
"1095 -455 OFFCURVE",
"1081 -442 OFFCURVE",
"1072 -420 CURVE SMOOTH"
);
},
{
closed = 1;
nodes = (
"583 -524 OFFCURVE",
"581 -514 OFFCURVE",
"581 -506 CURVE SMOOTH",
"581 -494 OFFCURVE",
"583 -484 OFFCURVE",
"588 -473 CURVE",
"602 -434 OFFCURVE",
"652 -414 OFFCURVE",
"693 -432 CURVE",
"732 -447 OFFCURVE",
"750 -496 OFFCURVE",
"732 -537 CURVE SMOOTH",
"724 -557 OFFCURVE",
"711 -570 OFFCURVE",
"691 -578 CURVE",
"681 -581 OFFCURVE",
"671 -583 OFFCURVE",
"662 -583 CURVE SMOOTH",
"650 -583 OFFCURVE",
"640 -581 OFFCURVE",
"629 -577 CURVE",
"607 -568 OFFCURVE",
"594 -553 OFFCURVE",
"586 -534 CURVE"
);
}
);
width = 2525;
}
);
unicode = F007;
},
{
glyphname = uniF008;
lastChange = "2014-05-03 20:32:33 +0000";
layers = (
{
layerId = "8BEE18A2-62EC-4A69-8B77-4987BEDA7528";
name = Regular;
paths = (
{
closed = 1;
nodes = (
"1438 1879 LINE SMOOTH",
"1438 1925 OFFCURVE",
"1472 1960 OFFCURVE",
"1518 1960 CURVE SMOOTH",
"1562 1960 OFFCURVE",
"1595 1927 OFFCURVE",
"1595 1879 CURVE SMOOTH",
"1595 1687 LINE SMOOTH",
"1595 1643 OFFCURVE",
"1562 1610 OFFCURVE",
"1518 1610 CURVE SMOOTH",
"1474 1610 OFFCURVE",
"1438 1643 OFFCURVE",
"1438 1687 CURVE SMOOTH"
);
},
{
closed = 1;
nodes = (
"810 1553 LINE SMOOTH",
"795 1568 OFFCURVE",
"787 1587 OFFCURVE",
"787 1610 CURVE SMOOTH",
"787 1655 OFFCURVE",
"823 1691 OFFCURVE",
"869 1691 CURVE SMOOTH",
"890 1691 OFFCURVE",
"910 1682 OFFCURVE",
"925 1668 CURVE",
"984 1607 LINE",
"998 1591 OFFCURVE",
"1007 1571 OFFCURVE",
"1007 1548 CURVE SMOOTH",
"1007 1502 OFFCURVE",
"966 1471 OFFCURVE",
"928 1471 CURVE SMOOTH",
"908 1471 OFFCURVE",
"889 1478 OFFCURVE",
"871 1492 CURVE"
);
},
{
closed = 1;
nodes = (
"2113 1668 LINE",
"2128 1682 OFFCURVE",
"2146 1691 OFFCURVE",
"2167 1691 CURVE SMOOTH",
"2212 1691 OFFCURVE",
"2248 1658 OFFCURVE",
"2248 1612 CURVE SMOOTH",
"2248 1589 OFFCURVE",
"2240 1569 OFFCURVE",
"2223 1553 CURVE SMOOTH",
"2089 1419 LINE",
"2056 1381 OFFCURVE",
"2003 1392 OFFCURVE",
"1979 1419 CURVE",
"1962 1433 OFFCURVE",
"1954 1451 OFFCURVE",
"1954 1474 CURVE SMOOTH",
"1954 1497 OFFCURVE",
"1962 1517 OFFCURVE",
"1979 1533 CURVE SMOOTH"
);
},
{
closed = 1;
nodes = (
"1474 140 LINE SMOOTH",
"1474 151 OFFCURVE",
"1480 156 OFFCURVE",
"1492 156 CURVE",
"1651 164 OFFCURVE",
"1780 300 OFFCURVE",
"1780 463 CURVE SMOOTH",
"1780 627 OFFCURVE",
"1639 764 OFFCURVE",
"1474 764 CURVE SMOOTH",
"1323 764 LINE SMOOTH",
"1312 764 OFFCURVE",
"1307 769 OFFCURVE",
"1307 781 CURVE",
"1300 835 LINE SMOOTH",
"1279 1037 OFFCURVE",
"1105 1191 OFFCURVE",
"903 1191 CURVE SMOOTH",
"698 1191 OFFCURVE",
"528 1037 OFFCURVE",
"508 835 CURVE SMOOTH",
"502 784 LINE",
"502 773 OFFCURVE",
"495 768 OFFCURVE",
"484 768 CURVE",
"435 764 LINE SMOOTH",
"279 746 OFFCURVE",
"159 618 OFFCURVE",
"159 463 CURVE SMOOTH",
"159 300 OFFCURVE",
"289 164 OFFCURVE",
"448 156 CURVE",
"459 156 OFFCURVE",
"464 151 OFFCURVE",
"464 140 CURVE SMOOTH",
"464 15 LINE SMOOTH",
"464 4 OFFCURVE",
"459 -1 OFFCURVE",
"448 -1 CURVE",
"198 10 OFFCURVE",
"0 214 OFFCURVE",
"0 463 CURVE SMOOTH",
"0 679 OFFCURVE",
"151 864 OFFCURVE",
"356 912 CURVE",
"413 1166 OFFCURVE",
"639 1348 OFFCURVE",
"903 1348 CURVE SMOOTH",
"995 1348 OFFCURVE",
"1079 1328 OFFCURVE",
"1156 1287 CURVE",
"1253 1396 OFFCURVE",
"1374 1450 OFFCURVE",
"1518 1450 CURVE SMOOTH",
"1787 1450 OFFCURVE",
"2008 1230 OFFCURVE",
"2008 959 CURVE SMOOTH",
"2008 843 OFFCURVE",
"1972 740 OFFCURVE",
"1899 650 CURVE",
"1925 592 OFFCURVE",
"1938 530 OFFCURVE",
"1938 463 CURVE SMOOTH",
"1938 214 OFFCURVE",
"1741 7 OFFCURVE",
"1492 -1 CURVE SMOOTH",
"1480 -1 OFFCURVE",
"1474 4 OFFCURVE",
"1474 15 CURVE SMOOTH"
);
},
{
closed = 1;
nodes = (
"1474 922 LINE SMOOTH",
"1602 922 OFFCURVE",
"1710 877 OFFCURVE",
"1800 787 CURVE",
"1831 841 OFFCURVE",
"1848 899 OFFCURVE",
"1848 959 CURVE SMOOTH",
"1848 1143 OFFCURVE",
"1702 1291 OFFCURVE",
"1518 1291 CURVE SMOOTH",
"1430 1291 OFFCURVE",
"1353 1259 OFFCURVE",
"1287 1197 CURVE",
"1366 1122 OFFCURVE",
"1418 1030 OFFCURVE",
"1444 922 CURVE"
);
},
{
closed = 1;
nodes = (
"2438 1040 LINE SMOOTH",
"2482 1040 OFFCURVE",
"2518 1004 OFFCURVE",
"2518 959 CURVE SMOOTH",
"2518 915 OFFCURVE",
"2482 879 OFFCURVE",
"2438 879 CURVE SMOOTH",
"2248 879 LINE SMOOTH",
"2226 879 OFFCURVE",
"2207 887 OFFCURVE",
"2190 904 CURVE",
"2174 918 OFFCURVE",
"2166 938 OFFCURVE",
"2166 959 CURVE SMOOTH",
"2166 1004 OFFCURVE",
"2203 1040 OFFCURVE",
"2248 1040 CURVE SMOOTH"
);
},
{
closed = 1;
nodes = (
"656 395 LINE",
"669 436 OFFCURVE",
"712 461 OFFCURVE",
"753 448 CURVE",
"797 440 OFFCURVE",
"822 396 OFFCURVE",
"810 351 CURVE SMOOTH",
"662 -198 LINE SMOOTH",
"651 -238 OFFCURVE",
"629 -257 OFFCURVE",
"591 -257 CURVE SMOOTH",
"583 -257 OFFCURVE",
"573 -256 OFFCURVE",
"565 -254 CURVE",
"521 -241 OFFCURVE",
"504 -205 OFFCURVE",
"504 -177 CURVE SMOOTH",
"504 -170 OFFCURVE",
"506 -164 OFFCURVE",
"508 -157 CURVE SMOOTH"
);
},
{
closed = 1;
nodes = (
"974 395 LINE SMOOTH",
"985 436 OFFCURVE",
"1028 461 OFFCURVE",
"1072 448 CURVE SMOOTH",
"1113 436 OFFCURVE",
"1137 395 OFFCURVE",
"1125 351 CURVE SMOOTH",
"901 -483 LINE",
"894 -524 OFFCURVE",
"860 -544 OFFCURVE",
"834 -544 CURVE SMOOTH",
"826 -544 OFFCURVE",
"817 -543 OFFCURVE",
"809 -541 CURVE",
"758 -533 OFFCURVE",
"747 -492 OFFCURVE",
"747 -465 CURVE SMOOTH",
"747 -457 OFFCURVE",
"749 -447 OFFCURVE",
"750 -439 CURVE"
);
},
{
closed = 1;
nodes = (
"1287 395 LINE SMOOTH",
"1298 436 OFFCURVE",
"1339 461 OFFCURVE",
"1384 448 CURVE SMOOTH",
"1425 436 OFFCURVE",
"1450 395 OFFCURVE",
"1438 351 CURVE SMOOTH",
"1290 -198 LINE",
"1281 -246 OFFCURVE",
"1242 -257 OFFCURVE",
"1216 -257 CURVE SMOOTH",
"1208 -257 OFFCURVE",
"1201 -256 OFFCURVE",
"1193 -254 CURVE",
"1152 -241 OFFCURVE",
"1135 -205 OFFCURVE",
"1135 -179 CURVE SMOOTH",
"1135 -172 OFFCURVE",
"1137 -165 OFFCURVE",
"1139 -157 CURVE SMOOTH"
);
},
{
closed = 1;
nodes = (
"2053 310 LINE",
"2038 327 OFFCURVE",
"2030 346 OFFCURVE",
"2030 368 CURVE SMOOTH",
"2030 412 OFFCURVE",
"2064 448 OFFCURVE",
"2108 448 CURVE SMOOTH",
"2130 448 OFFCURVE",
"2149 440 OFFCURVE",
"2166 425 CURVE",
"2223 364 LINE",
"2240 350 OFFCURVE",
"2248 332 OFFCURVE",
"2248 310 CURVE SMOOTH",
"2248 264 OFFCURVE",
"2212 230 OFFCURVE",
"2171 230 CURVE",
"2169 232 LINE",
"2148 232 OFFCURVE",
"2130 238 OFFCURVE",
"2113 251 CURVE"
);
}
);
width = 2518;
}
);
unicode = F008;
},
{
glyphname = uniF009;
lastChange = "2014-05-03 20:10:00 +0000";
layers = (
{
layerId = "8BEE18A2-62EC-4A69-8B77-4987BEDA7528";
name = Regular;
paths = (
{
closed = 1;
nodes = (
"1432 1871 LINE SMOOTH",
"1432 1917 OFFCURVE",
"1466 1951 OFFCURVE",
"1512 1951 CURVE SMOOTH",
"1558 1951 OFFCURVE",
"1592 1917 OFFCURVE",
"1592 1871 CURVE SMOOTH",
"1592 1683 LINE SMOOTH",
"1592 1637 OFFCURVE",
"1558 1603 OFFCURVE",
"1512 1603 CURVE SMOOTH",
"1466 1603 OFFCURVE",
"1432 1637 OFFCURVE",
"1432 1683 CURVE SMOOTH"
);
},
{
closed = 1;
nodes = (
"808 1545 LINE SMOOTH",
"792 1560 OFFCURVE",
"784 1580 OFFCURVE",
"784 1603 CURVE SMOOTH",
"784 1647 OFFCURVE",
"820 1683 OFFCURVE",
"864 1683 CURVE SMOOTH",
"885 1683 OFFCURVE",
"905 1675 OFFCURVE",
"920 1660 CURVE SMOOTH",
"978 1599 LINE SMOOTH",
"993 1583 OFFCURVE",
"1001 1563 OFFCURVE",
"1001 1542 CURVE SMOOTH",
"1001 1521 OFFCURVE",
"993 1501 OFFCURVE",
"978 1485 CURVE",
"938 1454 OFFCURVE",
"902 1452 OFFCURVE",
"869 1485 CURVE SMOOTH"
);
},
{
closed = 1;
nodes = (
"2106 1660 LINE SMOOTH",
"2122 1675 OFFCURVE",
"2142 1683 OFFCURVE",
"2163 1683 CURVE SMOOTH",
"2207 1683 OFFCURVE",
"2241 1648 OFFCURVE",
"2241 1604 CURVE SMOOTH",
"2241 1581 OFFCURVE",
"2233 1562 OFFCURVE",
"2218 1545 CURVE",
"2084 1411 LINE",
"2066 1396 OFFCURVE",
"2047 1388 OFFCURVE",
"2029 1388 CURVE SMOOTH",
"2009 1388 OFFCURVE",
"1989 1396 OFFCURVE",
"1971 1411 CURVE",
"1957 1426 OFFCURVE",
"1950 1445 OFFCURVE",
"1950 1468 CURVE SMOOTH",
"1950 1490 OFFCURVE",
"1957 1509 OFFCURVE",
"1971 1526 CURVE"
);
},
{
closed = 1;
nodes = (
"1476 142 LINE SMOOTH",
"1476 153 OFFCURVE",
"1481 158 OFFCURVE",
"1492 158 CURVE",
"1649 170 OFFCURVE",
"1777 305 OFFCURVE",
"1777 464 CURVE SMOOTH",
"1777 628 OFFCURVE",
"1639 765 OFFCURVE",
"1476 765 CURVE SMOOTH",
"1320 765 LINE SMOOTH",
"1309 765 OFFCURVE",
"1304 770 OFFCURVE",
"1304 781 CURVE",
"1297 835 LINE",
"1278 1037 OFFCURVE",
"1106 1190 OFFCURVE",
"902 1190 CURVE SMOOTH",
"697 1190 OFFCURVE",
"527 1037 OFFCURVE",
"507 835 CURVE SMOOTH",
"501 785 LINE",
"501 773 OFFCURVE",
"494 768 OFFCURVE",
"483 768 CURVE",
"437 765 LINE",
"280 747 OFFCURVE",
"162 621 OFFCURVE",
"162 464 CURVE SMOOTH",
"162 302 OFFCURVE",
"288 166 OFFCURVE",
"447 158 CURVE",
"458 158 OFFCURVE",
"463 153 OFFCURVE",
"463 142 CURVE SMOOTH",
"463 17 LINE SMOOTH",
"463 6 OFFCURVE",
"458 1 OFFCURVE",
"447 1 CURVE",
"198 13 OFFCURVE",
"0 215 OFFCURVE",
"0 464 CURVE SMOOTH",
"0 680 OFFCURVE",
"151 865 OFFCURVE",
"360 912 CURVE",
"414 1166 OFFCURVE",
"638 1347 OFFCURVE",
"902 1347 CURVE SMOOTH",
"995 1347 OFFCURVE",
"1080 1328 OFFCURVE",
"1157 1287 CURVE",
"1253 1390 OFFCURVE",
"1373 1442 OFFCURVE",
"1512 1442 CURVE SMOOTH",
"1782 1442 OFFCURVE",
"2001 1223 OFFCURVE",
"2001 953 CURVE SMOOTH",
"2001 837 OFFCURVE",
"1965 734 OFFCURVE",
"1895 647 CURVE",
"1921 590 OFFCURVE",
"1934 528 OFFCURVE",
"1934 464 CURVE SMOOTH",
"1934 215 OFFCURVE",
"1741 9 OFFCURVE",
"1492 1 CURVE SMOOTH",
"1481 1 OFFCURVE",
"1476 6 OFFCURVE",
"1476 17 CURVE SMOOTH"
);
},
{
closed = 1;
nodes = (
"1476 922 LINE SMOOTH",
"1602 922 OFFCURVE",
"1710 878 OFFCURVE",
"1800 788 CURVE",
"1829 845 OFFCURVE",
"1844 899 OFFCURVE",
"1844 953 CURVE SMOOTH",
"1844 1136 OFFCURVE",
"1695 1284 OFFCURVE",
"1512 1284 CURVE SMOOTH",
"1425 1284 OFFCURVE",
"1351 1254 OFFCURVE",
"1288 1194 CURVE",
"1368 1118 OFFCURVE",
"1420 1028 OFFCURVE",
"1445 922 CURVE"
);
},
{
closed = 1;
nodes = (
"2429 1033 LINE SMOOTH",
"2475 1033 OFFCURVE",
"2510 999 OFFCURVE",
"2510 953 CURVE SMOOTH",
"2510 909 OFFCURVE",
"2477 876 OFFCURVE",
"2429 876 CURVE SMOOTH",
"2238 876 LINE SMOOTH",
"2217 876 OFFCURVE",
"2199 884 OFFCURVE",
"2184 899 CURVE SMOOTH",
"2169 914 OFFCURVE",
"2161 932 OFFCURVE",
"2161 953 CURVE SMOOTH",
"2161 997 OFFCURVE",
"2194 1033 OFFCURVE",
"2238 1033 CURVE SMOOTH"
);
},
{
closed = 1;
nodes = (
"658 397 LINE",
"666 441 OFFCURVE",
"709 464 OFFCURVE",
"754 453 CURVE",
"795 439 OFFCURVE",
"821 395 OFFCURVE",
"808 356 CURVE",
"785 260 LINE",
"772 214 OFFCURVE",
"727 192 OFFCURVE",
"687 206 CURVE SMOOTH",
"646 220 OFFCURVE",
"627 245 OFFCURVE",
"627 279 CURVE SMOOTH",
"627 287 OFFCURVE",
"628 294 OFFCURVE",
"630 302 CURVE"
);
},
{
closed = 1;
nodes = (
"1288 394 LINE SMOOTH",
"1299 435 OFFCURVE",
"1340 459 OFFCURVE",
"1384 446 CURVE SMOOTH",
"1425 435 OFFCURVE",
"1451 394 OFFCURVE",
"1438 349 CURVE SMOOTH",
"1412 256 LINE",
"1405 219 OFFCURVE",
"1373 196 OFFCURVE",
"1338 196 CURVE",
"1314 199 LINE",
"1273 210 OFFCURVE",
"1257 248 OFFCURVE",
"1257 274 CURVE SMOOTH",
"1257 281 OFFCURVE",
"1258 287 OFFCURVE",
"1260 295 CURVE SMOOTH"
);
},
{
closed = 1;
nodes = (
"2048 305 LINE SMOOTH",
"2032 322 OFFCURVE",
"2024 341 OFFCURVE",
"2024 364 CURVE SMOOTH",
"2024 408 OFFCURVE",
"2060 443 OFFCURVE",
"2104 443 CURVE SMOOTH",
"2125 443 OFFCURVE",
"2143 435 OFFCURVE",
"2158 420 CURVE SMOOTH",
"2218 359 LINE SMOOTH",
"2249 328 OFFCURVE",
"2253 279 OFFCURVE",
"2218 246 CURVE",
"2200 227 OFFCURVE",
"2182 217 OFFCURVE",
"2164 217 CURVE SMOOTH",
"2145 217 OFFCURVE",
"2125 227 OFFCURVE",
"2106 246 CURVE SMOOTH"
);
},
{
closed = 1;
nodes = (
"895 104 LINE",
"903 148 OFFCURVE",
"947 173 OFFCURVE",
"993 161 CURVE",
"1034 148 OFFCURVE",
"1059 106 OFFCURVE",
"1046 62 CURVE",
"1023 -32 LINE SMOOTH",
"1008 -86 OFFCURVE",
"965 -100 OFFCURVE",
"926 -89 CURVE SMOOTH",
"885 -76 OFFCURVE",
"867 -38 OFFCURVE",
"867 -10 CURVE SMOOTH",
"867 -4 OFFCURVE",
"867 3 OFFCURVE",
"869 8 CURVE"
);
},
{
closed = 1;
nodes = (
"533 -50 LINE",
"542 -5 OFFCURVE",
"584 19 OFFCURVE",
"630 8 CURVE",
"671 -5 OFFCURVE",
"697 -50 OFFCURVE",
"684 -89 CURVE",
"661 -187 LINE",
"646 -238 OFFCURVE",
"597 -256 OFFCURVE",
"563 -244 CURVE SMOOTH",
"524 -231 OFFCURVE",
"506 -192 OFFCURVE",
"506 -161 CURVE SMOOTH",
"506 -156 OFFCURVE",
"506 -149 OFFCURVE",
"507 -143 CURVE"
);
},
{
closed = 1;
nodes = (
"1157 -53 LINE",
"1170 -12 OFFCURVE",
"1214 14 OFFCURVE",
"1253 1 CURVE",
"1297 -7 OFFCURVE",
"1322 -50 OFFCURVE",
"1311 -95 CURVE",
"1284 -190 LINE SMOOTH",
"1271 -236 OFFCURVE",
"1234 -251 OFFCURVE",
"1209 -251 CURVE",
"1186 -248 LINE",
"1145 -230 OFFCURVE",
"1129 -197 OFFCURVE",
"1127 -171 CURVE",
"1127 -164 OFFCURVE",
"1129 -158 OFFCURVE",
"1131 -149 CURVE"
);
},
{
closed = 1;
nodes = (
"771 -341 LINE SMOOTH",
"782 -300 OFFCURVE",
"825 -274 OFFCURVE",
"869 -287 CURVE SMOOTH",
"910 -298 OFFCURVE",
"936 -341 OFFCURVE",
"923 -385 CURVE SMOOTH",
"898 -478 LINE SMOOTH",
"890 -506 OFFCURVE",
"877 -524 OFFCURVE",
"859 -532 CURVE SMOOTH",
"848 -537 OFFCURVE",
"836 -539 OFFCURVE",
"825 -539 CURVE SMOOTH",
"816 -539 OFFCURVE",
"810 -537 OFFCURVE",
"802 -536 CURVE",
"758 -522 OFFCURVE",
"741 -483 OFFCURVE",
"741 -457 CURVE SMOOTH",
"741 -450 OFFCURVE",
"743 -444 OFFCURVE",
"745 -437 CURVE SMOOTH"
);
}
);
width = 2510;
}
);
unicode = F009;
},
{
glyphname = uniF00A;
lastChange = "2014-05-03 20:32:38 +0000";
layers = (
{
layerId = "8BEE18A2-62EC-4A69-8B77-4987BEDA7528";
name = Regular;
paths = (
{
closed = 1;
nodes = (
"1431 1872 LINE SMOOTH",
"1431 1916 OFFCURVE",
"1467 1952 OFFCURVE",
"1511 1952 CURVE SMOOTH",
"1555 1952 OFFCURVE",
"1588 1916 OFFCURVE",
"1588 1872 CURVE SMOOTH",
"1588 1681 LINE SMOOTH",
"1588 1637 OFFCURVE",
"1555 1605 OFFCURVE",
"1511 1605 CURVE SMOOTH",
"1467 1605 OFFCURVE",
"1431 1637 OFFCURVE",
"1431 1681 CURVE SMOOTH"
);
},
{
closed = 1;
nodes = (
"2103 1662 LINE SMOOTH",
"2118 1677 OFFCURVE",
"2136 1685 OFFCURVE",
"2157 1685 CURVE SMOOTH",
"2201 1685 OFFCURVE",
"2237 1649 OFFCURVE",
"2237 1605 CURVE SMOOTH",
"2237 1584 OFFCURVE",
"2229 1564 OFFCURVE",
"2213 1548 CURVE SMOOTH",
"2079 1414 LINE",
"2046 1376 OFFCURVE",
"1994 1388 OFFCURVE",
"1969 1414 CURVE",
"1953 1429 OFFCURVE",
"1945 1447 OFFCURVE",
"1945 1469 CURVE SMOOTH",
"1945 1491 OFFCURVE",
"1953 1510 OFFCURVE",
"1969 1525 CURVE"
);
},
{
closed = 1;
nodes = (
"806 1548 LINE SMOOTH",
"791 1562 OFFCURVE",
"783 1582 OFFCURVE",
"783 1603 CURVE SMOOTH",
"783 1647 OFFCURVE",
"819 1683 OFFCURVE",
"865 1683 CURVE SMOOTH",
"886 1683 OFFCURVE",
"906 1675 OFFCURVE",
"920 1659 CURVE",
"979 1602 LINE",
"994 1585 OFFCURVE",
"1002 1566 OFFCURVE",
"1002 1543 CURVE SMOOTH",
"1002 1497 OFFCURVE",
"955 1458 OFFCURVE",
"917 1463 CURVE",
"898 1464 OFFCURVE",
"881 1473 OFFCURVE",
"867 1487 CURVE SMOOTH"
);
},
{
closed = 1;
nodes = (
"1467 141 LINE SMOOTH",
"1467 153 OFFCURVE",
"1473 158 OFFCURVE",
"1485 158 CURVE",
"1643 166 OFFCURVE",
"1772 303 OFFCURVE",
"1772 459 CURVE SMOOTH",
"1772 624 OFFCURVE",
"1635 763 OFFCURVE",
"1467 763 CURVE SMOOTH",
"1317 763 LINE SMOOTH",
"1305 763 OFFCURVE",
"1301 768 OFFCURVE",
"1301 779 CURVE",
"1294 833 LINE SMOOTH",
"1274 1034 OFFCURVE",
"1101 1187 OFFCURVE",
"899 1187 CURVE SMOOTH",
"695 1187 OFFCURVE",
"526 1034 OFFCURVE",
"506 830 CURVE",
"499 783 LINE",
"499 771 OFFCURVE",
"493 766 OFFCURVE",
"482 766 CURVE",
"433 760 LINE SMOOTH",
"278 742 OFFCURVE",
"158 614 OFFCURVE",
"158 459 CURVE SMOOTH",
"158 303 OFFCURVE",
"287 166 OFFCURVE",
"446 158 CURVE",
"457 158 OFFCURVE",
"462 153 OFFCURVE",
"462 141 CURVE SMOOTH",
"462 17 LINE SMOOTH",
"462 6 OFFCURVE",
"457 1 OFFCURVE",
"446 1 CURVE SMOOTH",
"198 9 OFFCURVE",
"0 213 OFFCURVE",
"0 459 CURVE SMOOTH",
"0 676 OFFCURVE",
"147 858 OFFCURVE",
"354 910 CURVE",
"411 1163 OFFCURVE",
"636 1344 OFFCURVE",
"899 1344 CURVE SMOOTH",
"991 1344 OFFCURVE",
"1074 1324 OFFCURVE",
"1150 1283 CURVE",
"1247 1391 OFFCURVE",
"1367 1445 OFFCURVE",
"1511 1445 CURVE SMOOTH",
"1779 1445 OFFCURVE",
"1999 1225 OFFCURVE",
"1999 957 CURVE SMOOTH",
"1999 841 OFFCURVE",
"1963 738 OFFCURVE",
"1889 649 CURVE",
"1916 592 OFFCURVE",
"1929 528 OFFCURVE",
"1929 459 CURVE SMOOTH",
"1929 213 OFFCURVE",
"1733 9 OFFCURVE",
"1485 1 CURVE SMOOTH",
"1473 1 OFFCURVE",
"1467 6 OFFCURVE",
"1467 17 CURVE SMOOTH"
);
},
{
closed = 1;
nodes = (
"1467 920 LINE SMOOTH",
"1594 920 OFFCURVE",
"1702 876 OFFCURVE",
"1792 786 CURVE",
"1823 840 OFFCURVE",
"1839 897 OFFCURVE",
"1839 957 CURVE SMOOTH",
"1839 1138 OFFCURVE",
"1692 1287 OFFCURVE",
"1511 1287 CURVE SMOOTH",
"1423 1287 OFFCURVE",
"1346 1256 OFFCURVE",
"1281 1194 CURVE",
"1359 1119 OFFCURVE",
"1411 1027 OFFCURVE",
"1438 920 CURVE"
);
},
{
closed = 1;
nodes = (
"2426 1037 LINE SMOOTH",
"2470 1037 OFFCURVE",
"2506 1001 OFFCURVE",
"2506 957 CURVE SMOOTH",
"2506 913 OFFCURVE",
"2470 877 OFFCURVE",
"2426 877 CURVE SMOOTH",
"2237 877 LINE SMOOTH",
"2216 877 OFFCURVE",
"2196 885 OFFCURVE",
"2180 902 CURVE",
"2164 916 OFFCURVE",
"2155 936 OFFCURVE",
"2155 957 CURVE SMOOTH",
"2155 1001 OFFCURVE",
"2193 1037 OFFCURVE",
"2237 1037 CURVE SMOOTH"
);
},
{
closed = 1;
nodes = (
"2043 311 LINE SMOOTH",
"2028 326 OFFCURVE",
"2020 345 OFFCURVE",
"2020 368 CURVE SMOOTH",
"2020 412 OFFCURVE",
"2054 448 OFFCURVE",
"2098 448 CURVE SMOOTH",
"2120 448 OFFCURVE",
"2139 440 OFFCURVE",
"2155 425 CURVE",
"2213 365 LINE",
"2229 350 OFFCURVE",
"2237 332 OFFCURVE",
"2237 311 CURVE SMOOTH",
"2237 265 OFFCURVE",
"2199 229 OFFCURVE",
"2162 229 CURVE SMOOTH",
"2144 229 OFFCURVE",
"2124 238 OFFCURVE",
"2103 252 CURVE"
);
},
{
closed = 1;
nodes = (
"898 198 OFFCURVE",
"889 216 OFFCURVE",
"889 238 CURVE SMOOTH",
"889 282 OFFCURVE",
"925 316 OFFCURVE",
"966 316 CURVE SMOOTH",
"1010 316 OFFCURVE",
"1046 282 OFFCURVE",
"1046 238 CURVE SMOOTH",
"1046 194 OFFCURVE",
"1010 161 OFFCURVE",
"966 161 CURVE SMOOTH",
"945 161 OFFCURVE",
"927 169 OFFCURVE",
"912 184 CURVE SMOOTH"
);
},
{
closed = 1;
nodes = (
"592 122 OFFCURVE",
"625 158 OFFCURVE",
"669 158 CURVE SMOOTH",
"713 158 OFFCURVE",
"746 122 OFFCURVE",
"746 81 CURVE SMOOTH",
"746 37 OFFCURVE",
"713 1 OFFCURVE",
"669 1 CURVE SMOOTH",
"625 1 OFFCURVE",
"592 37 OFFCURVE",
"592 81 CURVE SMOOTH"
);
},
{
closed = 1;
nodes = (
"1190 122 OFFCURVE",
"1224 158 OFFCURVE",
"1268 158 CURVE SMOOTH",
"1312 158 OFFCURVE",
"1345 122 OFFCURVE",
"1345 81 CURVE SMOOTH",
"1345 37 OFFCURVE",
"1312 1 OFFCURVE",
"1268 1 CURVE SMOOTH",
"1224 1 OFFCURVE",
"1190 37 OFFCURVE",
"1190 81 CURVE SMOOTH"
);
},
{
closed = 1;
nodes = (
"898 -139 OFFCURVE",
"889 -120 OFFCURVE",
"889 -98 CURVE SMOOTH",
"889 -54 OFFCURVE",
"925 -19 OFFCURVE",
"966 -19 CURVE SMOOTH",
"1010 -19 OFFCURVE",
"1046 -54 OFFCURVE",
"1046 -98 CURVE SMOOTH",
"1046 -143 OFFCURVE",
"1010 -177 OFFCURVE",
"966 -177 CURVE SMOOTH",
"945 -177 OFFCURVE",
"927 -169 OFFCURVE",
"912 -154 CURVE SMOOTH"
);
},
{
closed = 1;
nodes = (
"601 -296 OFFCURVE",
"592 -278 OFFCURVE",
"592 -257 CURVE SMOOTH",
"592 -213 OFFCURVE",
"625 -180 OFFCURVE",
"669 -180 CURVE SMOOTH",
"713 -180 OFFCURVE",
"746 -213 OFFCURVE",
"746 -257 CURVE SMOOTH",
"746 -301 OFFCURVE",
"713 -333 OFFCURVE",
"669 -333 CURVE SMOOTH",
"648 -333 OFFCURVE",
"630 -325 OFFCURVE",
"615 -311 CURVE"
);
},
{
closed = 1;
nodes = (
"1198 -296 OFFCURVE",
"1190 -278 OFFCURVE",
"1190 -257 CURVE SMOOTH",
"1190 -213 OFFCURVE",
"1224 -180 OFFCURVE",
"1268 -180 CURVE SMOOTH",
"1312 -180 OFFCURVE",
"1345 -213 OFFCURVE",
"1345 -257 CURVE SMOOTH",
"1345 -301 OFFCURVE",
"1312 -333 OFFCURVE",
"1268 -333 CURVE SMOOTH",
"1247 -333 OFFCURVE",
"1227 -325 OFFCURVE",
"1212 -311 CURVE"
);
},
{
closed = 1;
nodes = (
"898 -479 OFFCURVE",
"889 -461 OFFCURVE",
"889 -439 CURVE SMOOTH",
"889 -395 OFFCURVE",
"925 -360 OFFCURVE",
"966 -360 CURVE SMOOTH",
"1010 -360 OFFCURVE",
"1046 -395 OFFCURVE",
"1046 -439 CURVE SMOOTH",
"1046 -484 OFFCURVE",
"1010 -516 OFFCURVE",
"966 -516 CURVE SMOOTH",
"945 -516 OFFCURVE",
"927 -508 OFFCURVE",
"912 -493 CURVE SMOOTH"
);
}
);
width = 2506;
}
);
unicode = F00A;
},
{
glyphname = uniF00B;
lastChange = "2014-05-03 20:32:41 +0000";
layers = (
{
layerId = "8BEE18A2-62EC-4A69-8B77-4987BEDA7528";
name = Regular;
paths = (
{
closed = 1;
nodes = (
"1431 1875 LINE SMOOTH",
"1431 1920 OFFCURVE",
"1467 1952 OFFCURVE",
"1511 1952 CURVE SMOOTH",
"1555 1952 OFFCURVE",
"1587 1920 OFFCURVE",
"1587 1875 CURVE SMOOTH",
"1587 1685 LINE SMOOTH",
"1587 1641 OFFCURVE",
"1555 1605 OFFCURVE",
"1511 1605 CURVE SMOOTH",
"1467 1605 OFFCURVE",
"1431 1641 OFFCURVE",
"1431 1685 CURVE SMOOTH"
);
},
{
closed = 1;
nodes = (
"806 1548 LINE",
"791 1562 OFFCURVE",
"783 1582 OFFCURVE",
"783 1605 CURVE SMOOTH",
"783 1649 OFFCURVE",
"817 1685 OFFCURVE",
"863 1685 CURVE SMOOTH",
"884 1685 OFFCURVE",
"904 1676 OFFCURVE",
"920 1662 CURVE",
"979 1601 LINE SMOOTH",
"993 1587 OFFCURVE",
"1002 1569 OFFCURVE",
"1002 1546 CURVE SMOOTH",
"1002 1523 OFFCURVE",
"993 1504 OFFCURVE",
"979 1487 CURVE",
"941 1456 OFFCURVE",
"904 1459 OFFCURVE",
"866 1487 CURVE"
);
},
{
closed = 1;
nodes = (
"2103 1662 LINE SMOOTH",
"2117 1676 OFFCURVE",
"2135 1685 OFFCURVE",
"2157 1685 CURVE SMOOTH",
"2201 1685 OFFCURVE",
"2237 1652 OFFCURVE",
"2237 1606 CURVE SMOOTH",
"2237 1583 OFFCURVE",
"2228 1564 OFFCURVE",
"2212 1548 CURVE SMOOTH",
"2078 1414 LINE",
"2057 1399 OFFCURVE",
"2039 1391 OFFCURVE",
"2021 1391 CURVE SMOOTH",
"2003 1391 OFFCURVE",
"1985 1399 OFFCURVE",
"1969 1414 CURVE SMOOTH",
"1953 1428 OFFCURVE",
"1945 1446 OFFCURVE",
"1945 1469 CURVE SMOOTH",
"1945 1492 OFFCURVE",
"1953 1512 OFFCURVE",
"1969 1528 CURVE SMOOTH"
);
},
{
closed = 1;
nodes = (
"1467 141 LINE SMOOTH",
"1467 153 OFFCURVE",
"1473 158 OFFCURVE",
"1484 158 CURVE",
"1643 166 OFFCURVE",
"1772 301 OFFCURVE",
"1772 463 CURVE SMOOTH",
"1772 626 OFFCURVE",
"1631 763 OFFCURVE",
"1467 763 CURVE SMOOTH",
"1316 763 LINE SMOOTH",
"1305 763 OFFCURVE",
"1300 768 OFFCURVE",
"1300 779 CURVE",
"1294 833 LINE SMOOTH",
"1272 1034 OFFCURVE",
"1099 1187 OFFCURVE",
"899 1187 CURVE SMOOTH",
"695 1187 OFFCURVE",
"525 1034 OFFCURVE",
"506 833 CURVE",
"499 782 LINE",
"499 771 OFFCURVE",
"493 766 OFFCURVE",
"481 766 CURVE",
"432 763 LINE",
"277 745 OFFCURVE",
"158 618 OFFCURVE",
"158 463 CURVE SMOOTH",
"158 301 OFFCURVE",
"287 166 OFFCURVE",
"445 158 CURVE",
"457 158 OFFCURVE",
"462 153 OFFCURVE",
"462 141 CURVE SMOOTH",
"462 17 LINE SMOOTH",
"462 6 OFFCURVE",
"457 1 OFFCURVE",
"445 1 CURVE",
"197 12 OFFCURVE",
"0 215 OFFCURVE",
"0 463 CURVE SMOOTH",
"0 678 OFFCURVE",
"150 862 OFFCURVE",
"354 910 CURVE",
"411 1163 OFFCURVE",
"636 1344 OFFCURVE",
"899 1344 CURVE SMOOTH",
"990 1344 OFFCURVE",
"1073 1324 OFFCURVE",
"1150 1283 CURVE",
"1246 1391 OFFCURVE",
"1367 1445 OFFCURVE",
"1511 1445 CURVE SMOOTH",
"1778 1445 OFFCURVE",
"1998 1226 OFFCURVE",
"1998 957 CURVE SMOOTH",
"1998 841 OFFCURVE",
"1962 738 OFFCURVE",
"1889 649 CURVE",
"1915 592 OFFCURVE",
"1928 530 OFFCURVE",
"1928 463 CURVE SMOOTH",
"1928 215 OFFCURVE",
"1732 9 OFFCURVE",
"1484 1 CURVE SMOOTH",
"1473 1 OFFCURVE",
"1467 6 OFFCURVE",
"1467 17 CURVE SMOOTH"
);
},
{
closed = 1;
nodes = (
"1467 920 LINE SMOOTH",
"1594 920 OFFCURVE",
"1701 875 OFFCURVE",
"1791 786 CURVE",
"1822 843 OFFCURVE",
"1839 900 OFFCURVE",
"1839 957 CURVE SMOOTH",
"1839 1140 OFFCURVE",
"1693 1287 OFFCURVE",
"1511 1287 CURVE SMOOTH",
"1419 1287 OFFCURVE",
"1343 1256 OFFCURVE",
"1281 1194 CURVE",
"1359 1119 OFFCURVE",
"1411 1027 OFFCURVE",
"1437 920 CURVE"
);
},
{
closed = 1;
nodes = (
"2426 1037 LINE SMOOTH",
"2470 1037 OFFCURVE",
"2506 1001 OFFCURVE",
"2506 957 CURVE SMOOTH",
"2506 913 OFFCURVE",
"2470 880 OFFCURVE",
"2426 880 CURVE SMOOTH",
"2237 880 LINE SMOOTH",
"2214 880 OFFCURVE",
"2194 889 OFFCURVE",
"2179 903 CURVE SMOOTH",
"2163 918 OFFCURVE",
"2155 936 OFFCURVE",
"2155 957 CURVE SMOOTH",
"2155 1001 OFFCURVE",
"2193 1037 OFFCURVE",
"2237 1037 CURVE SMOOTH"
);
},
{
closed = 1;
nodes = (
"1057 779 LINE",
"1114 719 OFFCURVE",
"1144 670 OFFCURVE",
"1144 629 CURVE SMOOTH",
"1144 582 OFFCURVE",
"1104 543 OFFCURVE",
"1057 543 CURVE SMOOTH",
"1007 543 OFFCURVE",
"966 582 OFFCURVE",
"966 629 CURVE SMOOTH",
"966 663 OFFCURVE",
"1003 722 OFFCURVE",
"1034 755 CURVE SMOOTH"
);
},
{
closed = 1;
nodes = (
"685 606 LINE",
"695 596 OFFCURVE",
"708 583 OFFCURVE",
"723 567 CURVE",
"752 533 OFFCURVE",
"816 433 OFFCURVE",
"816 381 CURVE SMOOTH",
"816 308 OFFCURVE",
"759 252 OFFCURVE",
"685 252 CURVE SMOOTH",
"612 252 OFFCURVE",
"551 309 OFFCURVE",
"551 381 CURVE SMOOTH",
"551 433 OFFCURVE",
"607 521 OFFCURVE",
"652 569 CURVE SMOOTH"
);
},
{
closed = 1;
nodes = (
"2042 311 LINE",
"2028 327 OFFCURVE",
"2020 347 OFFCURVE",
"2020 370 CURVE SMOOTH",
"2020 414 OFFCURVE",
"2054 448 OFFCURVE",
"2098 448 CURVE SMOOTH",
"2119 448 OFFCURVE",
"2139 440 OFFCURVE",
"2155 425 CURVE",
"2212 365 LINE",
"2228 350 OFFCURVE",
"2237 332 OFFCURVE",
"2237 311 CURVE SMOOTH",
"2237 288 OFFCURVE",
"2228 270 OFFCURVE",
"2212 256 CURVE",
"2199 239 OFFCURVE",
"2181 231 OFFCURVE",
"2158 231 CURVE SMOOTH",
"2134 231 OFFCURVE",
"2116 239 OFFCURVE",
"2103 256 CURVE"
);
},
{
closed = 1;
nodes = (
"1046 355 LINE",
"1051 350 OFFCURVE",
"1059 342 OFFCURVE",
"1070 334 CURVE",
"1090 314 OFFCURVE",
"1150 247 OFFCURVE",
"1189 195 CURVE SMOOTH",
"1227 141 OFFCURVE",
"1264 65 OFFCURVE",
"1264 11 CURVE SMOOTH",
"1264 -108 OFFCURVE",
"1168 -206 OFFCURVE",
"1046 -206 CURVE SMOOTH",
"927 -206 OFFCURVE",
"829 -112 OFFCURVE",
"829 11 CURVE SMOOTH",
"829 65 OFFCURVE",
"863 138 OFFCURVE",
"905 197 CURVE SMOOTH",
"948 254 OFFCURVE",
"993 306 OFFCURVE",
"1024 334 CURVE SMOOTH"
);
}
);
width = 2506;
}
);
unicode = F00B;
},
{
glyphname = uniF00C;
lastChange = "2014-05-03 20:10:34 +0000";
layers = (
{
layerId = "8BEE18A2-62EC-4A69-8B77-4987BEDA7528";
name = Regular;
paths = (
{
closed = 1;
nodes = (
"1051 1841 LINE SMOOTH",
"1051 1891 OFFCURVE",
"1092 1928 OFFCURVE",
"1142 1928 CURVE SMOOTH",
"1193 1928 OFFCURVE",
"1234 1891 OFFCURVE",
"1234 1841 CURVE SMOOTH",
"1234 1622 LINE SMOOTH",
"1234 1570 OFFCURVE",
"1193 1530 OFFCURVE",
"1142 1530 CURVE SMOOTH",
"1092 1530 OFFCURVE",
"1051 1570 OFFCURVE",
"1051 1622 CURVE SMOOTH"
);
},
{
closed = 1;
nodes = (
"335 1468 LINE",
"318 1484 OFFCURVE",
"311 1507 OFFCURVE",
"311 1531 CURVE SMOOTH",
"311 1582 OFFCURVE",
"345 1622 OFFCURVE",
"398 1622 CURVE SMOOTH",
"423 1622 OFFCURVE",
"445 1612 OFFCURVE",
"463 1595 CURVE SMOOTH",
"617 1442 LINE SMOOTH",
"633 1425 OFFCURVE",
"643 1402 OFFCURVE",
"643 1376 CURVE SMOOTH",
"643 1350 OFFCURVE",
"633 1327 OFFCURVE",
"617 1311 CURVE",
"574 1279 OFFCURVE",
"529 1279 OFFCURVE",
"486 1311 CURVE"
);
},
{
closed = 1;
nodes = (
"1819 1595 LINE SMOOTH",
"1836 1612 OFFCURVE",
"1857 1622 OFFCURVE",
"1883 1622 CURVE SMOOTH",
"1935 1622 OFFCURVE",
"1975 1582 OFFCURVE",
"1975 1531 CURVE SMOOTH",
"1975 1507 OFFCURVE",
"1967 1484 OFFCURVE",
"1950 1468 CURVE SMOOTH",
"1793 1311 LINE SMOOTH",
"1776 1294 OFFCURVE",
"1756 1285 OFFCURVE",
"1729 1285 CURVE SMOOTH",
"1703 1285 OFFCURVE",
"1683 1294 OFFCURVE",
"1666 1311 CURVE SMOOTH",
"1649 1329 OFFCURVE",
"1641 1352 OFFCURVE",
"1641 1378 CURVE SMOOTH",
"1641 1402 OFFCURVE",
"1649 1425 OFFCURVE",
"1666 1442 CURVE SMOOTH"
);
},
{
closed = 1;
nodes = (
"583 787 LINE SMOOTH",
"583 1096 OFFCURVE",
"830 1347 OFFCURVE",
"1142 1347 CURVE SMOOTH",
"1449 1347 OFFCURVE",
"1701 1096 OFFCURVE",
"1701 787 CURVE SMOOTH",
"1701 598 OFFCURVE",
"1604 423 OFFCURVE",
"1449 324 CURVE",
"1462 292 OFFCURVE",
"1468 254 OFFCURVE",
"1468 209 CURVE SMOOTH",
"1468 24 OFFCURVE",
"1320 -125 OFFCURVE",
"1139 -125 CURVE SMOOTH",
"499 -125 LINE SMOOTH",
"318 -125 OFFCURVE",
"165 28 OFFCURVE",
"165 209 CURVE SMOOTH",
"165 357 OFFCURVE",
"258 478 OFFCURVE",
"398 522 CURVE",
"428 624 OFFCURVE",
"489 702 OFFCURVE",
"583 755 CURVE"
);
},
{
closed = 1;
nodes = (
"774 806 LINE SMOOTH",
"946 806 OFFCURVE",
"1095 702 OFFCURVE",
"1150 538 CURVE",
"1219 538 OFFCURVE",
"1283 517 OFFCURVE",
"1340 470 CURVE",
"1447 537 OFFCURVE",
"1516 655 OFFCURVE",
"1516 787 CURVE SMOOTH",
"1516 998 OFFCURVE",
"1350 1167 OFFCURVE",
"1142 1167 CURVE SMOOTH",
"938 1167 OFFCURVE",
"776 1010 OFFCURVE",
"763 806 CURVE"
);
},
{
closed = 1;
nodes = (
"251 879 LINE SMOOTH",
"303 879 OFFCURVE",
"342 840 OFFCURVE",
"342 787 CURVE SMOOTH",
"342 737 OFFCURVE",
"301 700 OFFCURVE",
"251 700 CURVE SMOOTH",
"94 700 LINE SMOOTH",
"39 700 OFFCURVE",
"0 737 OFFCURVE",
"0 787 CURVE SMOOTH",
"0 841 OFFCURVE",
"39 879 OFFCURVE",
"94 879 CURVE SMOOTH"
);
},
{
closed = 1;
nodes = (
"2133 879 LINE SMOOTH",
"2185 879 OFFCURVE",
"2224 840 OFFCURVE",
"2224 787 CURVE SMOOTH",
"2224 737 OFFCURVE",
"2183 700 OFFCURVE",
"2133 700 CURVE SMOOTH",
"1976 700 LINE SMOOTH",
"1921 700 OFFCURVE",
"1882 737 OFFCURVE",
"1882 787 CURVE SMOOTH",
"1882 841 OFFCURVE",
"1921 879 OFFCURVE",
"1976 879 CURVE SMOOTH"
);
},
{
closed = 1;
nodes = (
"1139 57 LINE SMOOTH",
"1219 57 OFFCURVE",
"1288 125 OFFCURVE",
"1288 209 CURVE SMOOTH",
"1288 290 OFFCURVE",
"1219 357 OFFCURVE",
"1139 357 CURVE SMOOTH",
"1016 357 LINE SMOOTH",
"1006 357 OFFCURVE",
"998 365 OFFCURVE",
"993 378 CURVE",
"985 438 LINE SMOOTH",
"972 544 OFFCURVE",
"884 627 OFFCURVE",
"774 627 CURVE SMOOTH",
"667 627 OFFCURVE",
"581 544 OFFCURVE",
"568 438 CURVE",
"559 386 LINE",
"559 373 OFFCURVE",
"554 365 OFFCURVE",
"541 365 CURVE",
"483 357 LINE",
"405 350 OFFCURVE",
"350 287 OFFCURVE",
"350 209 CURVE SMOOTH",
"350 125 OFFCURVE",
"415 57 OFFCURVE",
"499 57 CURVE SMOOTH"
);
},
{
closed = 1;
nodes = (
"1666 136 LINE SMOOTH",
"1649 154 OFFCURVE",
"1641 175 OFFCURVE",
"1641 201 CURVE SMOOTH",
"1641 251 OFFCURVE",
"1677 290 OFFCURVE",
"1729 290 CURVE SMOOTH",
"1756 290 OFFCURVE",
"1776 282 OFFCURVE",
"1793 266 CURVE SMOOTH",
"1950 109 LINE SMOOTH",
"1967 92 OFFCURVE",
"1975 71 OFFCURVE",
"1975 47 CURVE SMOOTH",
"1975 23 OFFCURVE",
"1967 0 OFFCURVE",
"1950 -16 CURVE",
"1897 -60 OFFCURVE",
"1851 -49 OFFCURVE",
"1819 -16 CURVE SMOOTH"
);
}
);
width = 2224;
}
);
unicode = F00C;
},
{
glyphname = uniF00D;
lastChange = "2014-05-03 23:44:34 +0000";
layers = (
{
layerId = "8BEE18A2-62EC-4A69-8B77-4987BEDA7528";
name = Regular;
paths = (
{
closed = 1;
nodes = (
"912 1396 LINE SMOOTH",
"912 1352 OFFCURVE",
"947 1320 OFFCURVE",
"991 1320 CURVE SMOOTH",
"1035 1320 OFFCURVE",
"1071 1352 OFFCURVE",
"1071 1396 CURVE SMOOTH",
"1071 1586 LINE SMOOTH",
"1071 1630 OFFCURVE",
"1035 1666 OFFCURVE",
"991 1666 CURVE SMOOTH",
"947 1666 OFFCURVE",
"912 1630 OFFCURVE",
"912 1586 CURVE SMOOTH"
);
},
{
closed = 1;
nodes = (
"426 1130 LINE",
"440 1115 OFFCURVE",
"460 1107 OFFCURVE",
"481 1107 CURVE SMOOTH",
"525 1107 OFFCURVE",
"559 1141 OFFCURVE",
"559 1185 CURVE SMOOTH",
"559 1206 OFFCURVE",
"551 1226 OFFCURVE",
"536 1240 CURVE",
"403 1377 LINE",
"388 1391 OFFCURVE",
"369 1400 OFFCURVE",
"348 1400 CURVE SMOOTH",
"325 1400 OFFCURVE",
"306 1391 OFFCURVE",
"289 1377 CURVE",
"275 1361 OFFCURVE",
"267 1341 OFFCURVE",
"267 1320 CURVE SMOOTH",
"267 1297 OFFCURVE",
"275 1278 OFFCURVE",
"289 1263 CURVE"
);
},
{
closed = 1;
nodes = (
"1448 1240 LINE",
"1433 1226 OFFCURVE",
"1427 1206 OFFCURVE",
"1427 1185 CURVE SMOOTH",
"1427 1141 OFFCURVE",
"1459 1107 OFFCURVE",
"1501 1107 CURVE SMOOTH",
"1522 1107 OFFCURVE",
"1540 1115 OFFCURVE",
"1557 1130 CURVE",
"1693 1263 LINE SMOOTH",
"1708 1278 OFFCURVE",
"1716 1297 OFFCURVE",
"1716 1320 CURVE SMOOTH",
"1716 1364 OFFCURVE",
"1680 1400 OFFCURVE",
"1636 1400 CURVE SMOOTH",
"1613 1400 OFFCURVE",
"1596 1391 OFFCURVE",
"1581 1377 CURVE"
);
},
{
closed = 1;
nodes = (
"505 407 OFFCURVE",
"725 189 OFFCURVE",
"991 189 CURVE SMOOTH",
"1258 189 OFFCURVE",
"1477 407 OFFCURVE",
"1477 675 CURVE SMOOTH",
"1477 941 OFFCURVE",
"1258 1161 OFFCURVE",
"991 1161 CURVE SMOOTH",
"725 1161 OFFCURVE",
"505 941 OFFCURVE",
"505 675 CURVE SMOOTH"
);
},
{
closed = 1;
nodes = (
"663 855 OFFCURVE",
"811 1000 OFFCURVE",
"991 1000 CURVE SMOOTH",
"1173 1000 OFFCURVE",
"1321 855 OFFCURVE",
"1321 675 CURVE SMOOTH",
"1321 493 OFFCURVE",
"1173 345 OFFCURVE",
"991 345 CURVE SMOOTH",
"809 345 OFFCURVE",
"663 493 OFFCURVE",
"663 675 CURVE SMOOTH"
);
},
{
closed = 1;
nodes = (
"270 595 LINE SMOOTH",
"314 595 OFFCURVE",
"346 631 OFFCURVE",
"346 675 CURVE SMOOTH",
"346 719 OFFCURVE",
"314 755 OFFCURVE",
"270 755 CURVE SMOOTH",
"80 755 LINE SMOOTH",
"59 755 OFFCURVE",
"39 746 OFFCURVE",
"24 732 CURVE SMOOTH",
"8 716 OFFCURVE",
"0 696 OFFCURVE",
"0 675 CURVE SMOOTH",
"0 631 OFFCURVE",
"36 595 OFFCURVE",
"80 595 CURVE SMOOTH"
);
},
{
closed = 1;
nodes = (
"1903 595 LINE SMOOTH",
"1946 595 OFFCURVE",
"1984 631 OFFCURVE",
"1984 675 CURVE SMOOTH",
"1984 719 OFFCURVE",
"1946 755 OFFCURVE",
"1903 755 CURVE SMOOTH",
"1714 755 LINE SMOOTH",
"1693 755 OFFCURVE",
"1675 746 OFFCURVE",
"1661 732 CURVE SMOOTH",
"1646 716 OFFCURVE",
"1638 696 OFFCURVE",
"1638 675 CURVE SMOOTH",
"1638 631 OFFCURVE",
"1670 595 OFFCURVE",
"1714 595 CURVE SMOOTH"
);
},
{
closed = 1;
nodes = (
"289 85 LINE",
"275 69 OFFCURVE",
"267 49 OFFCURVE",
"267 28 CURVE SMOOTH",
"267 7 OFFCURVE",
"275 -12 OFFCURVE",
"289 -27 CURVE",
"327 -56 OFFCURVE",
"366 -56 OFFCURVE",
"403 -27 CURVE",
"536 106 LINE",
"551 123 OFFCURVE",
"559 142 OFFCURVE",
"559 165 CURVE SMOOTH",
"559 209 OFFCURVE",
"525 240 OFFCURVE",
"481 240 CURVE SMOOTH",
"460 240 OFFCURVE",
"440 233 OFFCURVE",
"426 218 CURVE"
);
},
{
closed = 1;
nodes = (
"1581 -27 LINE",
"1618 -56 OFFCURVE",
"1656 -56 OFFCURVE",
"1693 -27 CURVE",
"1708 -12 OFFCURVE",
"1716 7 OFFCURVE",
"1716 28 CURVE SMOOTH",
"1716 49 OFFCURVE",
"1708 69 OFFCURVE",
"1693 85 CURVE",
"1557 218 LINE SMOOTH",
"1542 233 OFFCURVE",
"1522 240 OFFCURVE",
"1501 240 CURVE SMOOTH",
"1480 240 OFFCURVE",
"1462 233 OFFCURVE",
"1448 218 CURVE",
"1433 204 OFFCURVE",
"1427 186 OFFCURVE",
"1427 165 CURVE SMOOTH",
"1427 142 OFFCURVE",
"1433 123 OFFCURVE",
"1448 106 CURVE"
);
},
{
closed = 1;
nodes = (
"912 -236 LINE SMOOTH",
"912 -282 OFFCURVE",
"947 -318 OFFCURVE",
"991 -318 CURVE SMOOTH",
"1035 -318 OFFCURVE",
"1071 -282 OFFCURVE",
"1071 -236 CURVE SMOOTH",
"1071 -51 LINE SMOOTH",
"1071 -6 OFFCURVE",
"1037 28 OFFCURVE",
"991 28 CURVE SMOOTH",
"946 28 OFFCURVE",
"912 -6 OFFCURVE",
"912 -51 CURVE SMOOTH"
);
}
);
width = 1984;
}
);
unicode = F00D;
},
{
glyphname = uniF00E;
lastChange = "2014-05-03 23:34:47 +0000";
layers = (
{
layerId = "8BEE18A2-62EC-4A69-8B77-4987BEDA7528";
name = Regular;
paths = (
{
closed = 1;
nodes = (
"1439 1882 LINE SMOOTH",
"1439 1927 OFFCURVE",
"1475 1963 OFFCURVE",
"1519 1963 CURVE SMOOTH",
"1564 1963 OFFCURVE",
"1597 1927 OFFCURVE",
"1597 1882 CURVE SMOOTH",
"1597 1690 LINE SMOOTH",
"1597 1645 OFFCURVE",
"1564 1609 OFFCURVE",
"1519 1609 CURVE SMOOTH",
"1475 1609 OFFCURVE",
"1439 1645 OFFCURVE",
"1439 1690 CURVE SMOOTH"
);
},
{
closed = 1;
nodes = (
"2117 1667 LINE",
"2131 1683 OFFCURVE",
"2149 1691 OFFCURVE",
"2171 1691 CURVE SMOOTH",
"2192 1691 OFFCURVE",
"2212 1683 OFFCURVE",
"2227 1667 CURVE",
"2243 1652 OFFCURVE",
"2251 1634 OFFCURVE",
"2251 1611 CURVE SMOOTH",
"2251 1588 OFFCURVE",
"2243 1570 OFFCURVE",
"2227 1555 CURVE SMOOTH",
"2092 1420 LINE",
"2059 1382 OFFCURVE",
"2006 1394 OFFCURVE",
"1982 1420 CURVE",
"1967 1435 OFFCURVE",
"1960 1455 OFFCURVE",
"1960 1476 CURVE SMOOTH",
"1960 1497 OFFCURVE",
"1967 1517 OFFCURVE",
"1982 1532 CURVE SMOOTH"
);
},
{
closed = 1;
nodes = (
"809 1555 LINE SMOOTH",
"794 1570 OFFCURVE",
"786 1589 OFFCURVE",
"786 1611 CURVE SMOOTH",
"786 1655 OFFCURVE",
"822 1690 OFFCURVE",
"868 1690 CURVE SMOOTH",
"889 1690 OFFCURVE",
"909 1682 OFFCURVE",
"924 1667 CURVE SMOOTH",
"983 1606 LINE SMOOTH",
"998 1591 OFFCURVE",
"1006 1573 OFFCURVE",
"1006 1550 CURVE SMOOTH",
"1006 1504 OFFCURVE",
"959 1464 OFFCURVE",
"921 1469 CURVE SMOOTH",
"901 1471 OFFCURVE",
"885 1479 OFFCURVE",
"870 1494 CURVE SMOOTH"
);
},
{
closed = 1;
nodes = (
"1478 140 LINE SMOOTH",
"1478 152 OFFCURVE",
"1485 157 OFFCURVE",
"1496 157 CURVE",
"1656 165 OFFCURVE",
"1783 302 OFFCURVE",
"1783 464 CURVE SMOOTH",
"1783 629 OFFCURVE",
"1644 767 OFFCURVE",
"1478 767 CURVE SMOOTH",
"1327 767 LINE SMOOTH",
"1316 767 OFFCURVE",
"1311 772 OFFCURVE",
"1311 783 CURVE",
"1304 838 LINE SMOOTH",
"1283 1040 OFFCURVE",
"1108 1195 OFFCURVE",
"906 1195 CURVE SMOOTH",
"700 1195 OFFCURVE",
"529 1040 OFFCURVE",
"510 838 CURVE SMOOTH",
"503 783 LINE",
"500 775 OFFCURVE",
"493 770 OFFCURVE",
"482 770 CURVE",
"435 767 LINE",
"278 749 OFFCURVE",
"159 622 OFFCURVE",
"159 464 CURVE SMOOTH",
"159 321 OFFCURVE",
"258 200 OFFCURVE",
"391 167 CURVE",
"491 436 LINE",
"496 445 OFFCURVE",
"505 450 OFFCURVE",
"513 450 CURVE SMOOTH",
"789 450 LINE SMOOTH",
"804 450 OFFCURVE",
"809 443 OFFCURVE",
"802 430 CURVE SMOOTH",
"570 -4 LINE",
"774 -4 LINE SMOOTH",
"788 -4 OFFCURVE",
"792 -16 OFFCURVE",
"786 -24 CURVE SMOOTH",
"379 -552 LINE",
"352 -552 LINE",
"485 -159 LINE",
"286 -159 LINE SMOOTH",
"274 -159 OFFCURVE",
"269 -152 OFFCURVE",
"273 -139 CURVE",
"334 19 LINE",
"138 73 OFFCURVE",
"0 254 OFFCURVE",
"0 464 CURVE SMOOTH",
"0 681 OFFCURVE",
"151 867 OFFCURVE",
"357 915 CURVE",
"414 1170 OFFCURVE",
"641 1353 OFFCURVE",
"906 1353 CURVE SMOOTH",
"998 1353 OFFCURVE",
"1082 1333 OFFCURVE",
"1159 1292 CURVE",
"1251 1390 OFFCURVE",
"1383 1451 OFFCURVE",
"1519 1451 CURVE SMOOTH",
"1789 1451 OFFCURVE",
"2011 1229 OFFCURVE",
"2011 959 CURVE SMOOTH",
"2011 843 OFFCURVE",
"1975 741 OFFCURVE",
"1904 652 CURVE",
"1931 594 OFFCURVE",
"1944 532 OFFCURVE",
"1944 464 CURVE SMOOTH",
"1944 214 OFFCURVE",
"1746 7 OFFCURVE",
"1496 -1 CURVE SMOOTH",
"1485 -1 OFFCURVE",
"1478 4 OFFCURVE",
"1478 15 CURVE SMOOTH"
);
},
{
closed = 1;
nodes = (
"1478 925 LINE SMOOTH",
"1607 925 OFFCURVE",
"1715 881 OFFCURVE",
"1806 790 CURVE",
"1835 841 OFFCURVE",
"1850 897 OFFCURVE",
"1850 959 CURVE SMOOTH",
"1850 1142 OFFCURVE",
"1702 1288 OFFCURVE",
"1519 1288 CURVE SMOOTH",
"1431 1288 OFFCURVE",
"1355 1259 OFFCURVE",
"1291 1198 CURVE",
"1370 1126 OFFCURVE",
"1422 1035 OFFCURVE",
"1449 925 CURVE"
);
},
{
closed = 1;
nodes = (
"2442 1037 LINE SMOOTH",
"2487 1037 OFFCURVE",
"2523 1004 OFFCURVE",
"2523 959 CURVE SMOOTH",
"2523 915 OFFCURVE",
"2487 879 OFFCURVE",
"2442 879 CURVE SMOOTH",
"2250 879 LINE SMOOTH",
"2228 879 OFFCURVE",
"2209 887 OFFCURVE",
"2194 904 CURVE",
"2177 918 OFFCURVE",
"2169 938 OFFCURVE",
"2169 959 CURVE SMOOTH",
"2169 1004 OFFCURVE",
"2205 1037 OFFCURVE",
"2250 1037 CURVE SMOOTH"
);
},
{
closed = 1;
nodes = (
"1311 397 LINE",
"1324 438 OFFCURVE",
"1366 463 OFFCURVE",
"1408 450 CURVE",
"1452 441 OFFCURVE",
"1477 399 OFFCURVE",
"1465 353 CURVE SMOOTH",
"1439 259 LINE SMOOTH",
"1431 232 OFFCURVE",
"1417 214 OFFCURVE",
"1399 206 CURVE",
"1378 198 OFFCURVE",
"1357 196 OFFCURVE",
"1342 201 CURVE",
"1297 214 OFFCURVE",
"1281 251 OFFCURVE",
"1281 279 CURVE SMOOTH",
"1281 285 OFFCURVE",
"1283 292 OFFCURVE",
"1284 298 CURVE"
);
},
{
closed = 1;
nodes = (
"2056 308 LINE SMOOTH",
"2041 323 OFFCURVE",
"2033 343 OFFCURVE",
"2033 364 CURVE SMOOTH",
"2033 408 OFFCURVE",
"2067 445 OFFCURVE",
"2112 445 CURVE SMOOTH",
"2133 445 OFFCURVE",
"2153 436 OFFCURVE",
"2169 420 CURVE SMOOTH",
"2227 362 LINE SMOOTH",
"2243 346 OFFCURVE",
"2251 326 OFFCURVE",
"2251 305 CURVE SMOOTH",
"2251 283 OFFCURVE",
"2243 264 OFFCURVE",
"2227 249 CURVE",
"2214 232 OFFCURVE",
"2197 224 OFFCURVE",
"2176 224 CURVE",
"2174 226 LINE",
"2153 226 OFFCURVE",
"2133 234 OFFCURVE",
"2117 249 CURVE SMOOTH"
);
},
{
closed = 1;
nodes = (
"916 107 LINE",
"929 152 OFFCURVE",
"973 175 OFFCURVE",
"1014 163 CURVE SMOOTH",
"1059 150 OFFCURVE",
"1084 107 OFFCURVE",
"1072 66 CURVE SMOOTH",
"1044 -31 LINE SMOOTH",
"1029 -83 OFFCURVE",
"985 -100 OFFCURVE",
"947 -88 CURVE SMOOTH",
"903 -75 OFFCURVE",
"888 -41 OFFCURVE",
"889 -14 CURVE",
"889 -6 OFFCURVE",
"891 1 OFFCURVE",
"893 9 CURVE SMOOTH"
);
},
{
closed = 1;
nodes = (
"1182 -52 LINE SMOOTH",
"1194 -11 OFFCURVE",
"1237 15 OFFCURVE",
"1281 2 CURVE SMOOTH",
"1322 -9 OFFCURVE",
"1347 -50 OFFCURVE",
"1334 -95 CURVE",
"1311 -190 LINE",
"1302 -218 OFFCURVE",
"1289 -238 OFFCURVE",
"1269 -246 CURVE",
"1260 -251 OFFCURVE",
"1250 -253 OFFCURVE",
"1240 -253 CURVE SMOOTH",
"1232 -253 OFFCURVE",
"1222 -251 OFFCURVE",
"1214 -248 CURVE",
"1190 -240 OFFCURVE",
"1174 -225 OFFCURVE",
"1163 -207 CURVE SMOOTH",
"1156 -195 OFFCURVE",
"1153 -182 OFFCURVE",
"1153 -171 CURVE SMOOTH",
"1153 -164 OFFCURVE",
"1154 -157 OFFCURVE",
"1156 -149 CURVE SMOOTH"
);
},
{
closed = 1;
nodes = (
"792 -342 LINE",
"806 -300 OFFCURVE",
"850 -274 OFFCURVE",
"889 -287 CURVE",
"934 -296 OFFCURVE",
"959 -338 OFFCURVE",
"947 -384 CURVE SMOOTH",
"921 -480 LINE SMOOTH",
"914 -508 OFFCURVE",
"901 -526 OFFCURVE",
"881 -534 CURVE",
"870 -539 OFFCURVE",
"858 -541 OFFCURVE",
"845 -541 CURVE SMOOTH",
"837 -541 OFFCURVE",
"830 -539 OFFCURVE",
"822 -537 CURVE",
"781 -524 OFFCURVE",
"764 -486 OFFCURVE",
"764 -462 CURVE SMOOTH",
"764 -453 OFFCURVE",
"766 -447 OFFCURVE",
"768 -439 CURVE SMOOTH"
);
}
);
width = 2523;
}
);
unicode = F00E;
},
{
glyphname = uniF010;
lastChange = "2014-05-03 20:12:45 +0000";
layers = (
{
layerId = "8BEE18A2-62EC-4A69-8B77-4987BEDA7528";
name = Regular;
paths = (
{
closed = 1;
nodes = (
"1436 1878 LINE SMOOTH",
"1436 1922 OFFCURVE",
"1472 1958 OFFCURVE",
"1516 1958 CURVE SMOOTH",
"1561 1958 OFFCURVE",
"1593 1922 OFFCURVE",
"1593 1878 CURVE SMOOTH",
"1593 1686 LINE SMOOTH",
"1593 1642 OFFCURVE",
"1561 1606 OFFCURVE",
"1516 1606 CURVE SMOOTH",
"1472 1606 OFFCURVE",
"1436 1642 OFFCURVE",
"1436 1686 CURVE SMOOTH"
);
},
{
closed = 1;
nodes = (
"2111 1663 LINE SMOOTH",
"2126 1679 OFFCURVE",
"2144 1688 OFFCURVE",
"2165 1688 CURVE SMOOTH",
"2209 1688 OFFCURVE",
"2245 1652 OFFCURVE",
"2245 1607 CURVE SMOOTH",
"2245 1586 OFFCURVE",
"2237 1566 OFFCURVE",
"2221 1552 CURVE",
"2086 1417 LINE SMOOTH",
"2055 1386 OFFCURVE",
"2003 1385 OFFCURVE",
"1977 1417 CURVE",
"1960 1432 OFFCURVE",
"1952 1450 OFFCURVE",
"1952 1473 CURVE SMOOTH",
"1952 1494 OFFCURVE",
"1960 1514 OFFCURVE",
"1977 1529 CURVE"
);
},
{
closed = 1;
nodes = (
"809 1552 LINE",
"794 1566 OFFCURVE",
"786 1586 OFFCURVE",
"786 1607 CURVE SMOOTH",
"786 1652 OFFCURVE",
"820 1686 OFFCURVE",
"866 1686 CURVE SMOOTH",
"887 1686 OFFCURVE",
"907 1678 OFFCURVE",
"923 1663 CURVE",
"982 1602 LINE",
"997 1588 OFFCURVE",
"1005 1570 OFFCURVE",
"1005 1547 CURVE SMOOTH",
"1005 1524 OFFCURVE",
"997 1506 OFFCURVE",
"979 1491 CURVE",
"953 1458 OFFCURVE",
"900 1460 OFFCURVE",
"869 1491 CURVE SMOOTH"
);
},
{
closed = 1;
nodes = (
"1472 143 LINE SMOOTH",
"1472 154 OFFCURVE",
"1479 159 OFFCURVE",
"1490 159 CURVE",
"1652 171 OFFCURVE",
"1778 304 OFFCURVE",
"1778 462 CURVE SMOOTH",
"1778 628 OFFCURVE",
"1641 764 OFFCURVE",
"1472 764 CURVE SMOOTH",
"1321 764 LINE SMOOTH",
"1310 764 OFFCURVE",
"1305 769 OFFCURVE",
"1305 780 CURVE",
"1299 834 LINE SMOOTH",
"1277 1036 OFFCURVE",
"1104 1190 OFFCURVE",
"902 1190 CURVE SMOOTH",
"697 1190 OFFCURVE",
"527 1036 OFFCURVE",
"507 834 CURVE SMOOTH",
"501 787 LINE",
"501 775 OFFCURVE",
"494 770 OFFCURVE",
"483 770 CURVE",
"434 764 LINE SMOOTH",
"278 746 OFFCURVE",
"158 618 OFFCURVE",
"158 462 CURVE SMOOTH",
"158 323 OFFCURVE",
"257 199 OFFCURVE",
"389 166 CURVE",
"489 435 LINE",
"494 443 OFFCURVE",
"502 448 OFFCURVE",
"511 448 CURVE SMOOTH",
"786 448 LINE SMOOTH",
"801 448 OFFCURVE",
"805 441 OFFCURVE",
"799 428 CURVE",
"568 -4 LINE",
"771 -4 LINE SMOOTH",
"784 -4 OFFCURVE",
"789 -16 OFFCURVE",
"783 -24 CURVE SMOOTH",
"394 -527 LINE",
"367 -527 LINE",
"483 -158 LINE",
"285 -158 LINE SMOOTH",
"273 -158 OFFCURVE",
"268 -152 OFFCURVE",
"272 -139 CURVE",
"332 19 LINE",
"137 78 OFFCURVE",
"0 254 OFFCURVE",
"0 462 CURVE SMOOTH",
"0 679 OFFCURVE",
"150 864 OFFCURVE",
"355 911 CURVE",
"412 1165 OFFCURVE",
"638 1347 OFFCURVE",
"902 1347 CURVE SMOOTH",
"994 1347 OFFCURVE",
"1077 1327 OFFCURVE",
"1154 1286 CURVE",
"1251 1394 OFFCURVE",
"1372 1448 OFFCURVE",
"1516 1448 CURVE SMOOTH",
"1785 1448 OFFCURVE",
"2006 1227 OFFCURVE",
"2006 959 CURVE SMOOTH",
"2006 842 OFFCURVE",
"1970 739 OFFCURVE",
"1896 649 CURVE",
"1923 592 OFFCURVE",
"1936 530 OFFCURVE",
"1936 462 CURVE SMOOTH",
"1936 213 OFFCURVE",
"1739 7 OFFCURVE",
"1490 -1 CURVE SMOOTH",
"1479 -1 OFFCURVE",
"1472 4 OFFCURVE",
"1472 15 CURVE SMOOTH"
);
},
{
closed = 1;
nodes = (
"1472 924 LINE SMOOTH",
"1598 924 OFFCURVE",
"1706 878 OFFCURVE",
"1798 787 CURVE",
"1829 841 OFFCURVE",
"1846 898 OFFCURVE",
"1846 959 CURVE SMOOTH",
"1846 1141 OFFCURVE",
"1698 1286 OFFCURVE",
"1516 1286 CURVE SMOOTH",
"1426 1286 OFFCURVE",
"1349 1257 OFFCURVE",
"1285 1196 CURVE",
"1362 1123 OFFCURVE",
"1415 1031 OFFCURVE",
"1443 924 CURVE"
);
},
{
closed = 1;
nodes = (
"2435 1036 LINE SMOOTH",
"2479 1036 OFFCURVE",
"2516 1003 OFFCURVE",
"2516 959 CURVE SMOOTH",
"2516 915 OFFCURVE",
"2479 878 OFFCURVE",
"2435 878 CURVE SMOOTH",
"2245 878 LINE SMOOTH",
"2224 878 OFFCURVE",
"2204 887 OFFCURVE",
"2188 903 CURVE SMOOTH",
"2172 918 OFFCURVE",
"2163 937 OFFCURVE",
"2163 959 CURVE SMOOTH",
"2163 1003 OFFCURVE",
"2199 1036 OFFCURVE",
"2245 1036 CURVE SMOOTH"
);
},
{
closed = 1;
nodes = (
"973 395 LINE SMOOTH",
"984 436 OFFCURVE",
"1027 461 OFFCURVE",
"1071 448 CURVE SMOOTH",
"1112 436 OFFCURVE",
"1135 395 OFFCURVE",
"1123 351 CURVE SMOOTH",
"909 -449 LINE SMOOTH",
"897 -494 OFFCURVE",
"855 -507 OFFCURVE",
"830 -507 CURVE SMOOTH",
"824 -507 OFFCURVE",
"817 -506 OFFCURVE",
"811 -504 CURVE SMOOTH",
"770 -489 OFFCURVE",
"753 -457 OFFCURVE",
"755 -432 CURVE",
"755 -424 OFFCURVE",
"756 -416 OFFCURVE",
"758 -408 CURVE SMOOTH"
);
},
{
closed = 1;
nodes = (
"1285 395 LINE SMOOTH",
"1296 437 OFFCURVE",
"1338 461 OFFCURVE",
"1382 448 CURVE SMOOTH",
"1423 436 OFFCURVE",
"1448 396 OFFCURVE",
"1436 351 CURVE SMOOTH",
"1297 -167 LINE SMOOTH",
"1290 -195 OFFCURVE",
"1277 -213 OFFCURVE",
"1258 -221 CURVE",
"1248 -226 OFFCURVE",
"1238 -227 OFFCURVE",
"1228 -227 CURVE SMOOTH",
"1220 -227 OFFCURVE",
"1210 -226 OFFCURVE",
"1200 -222 CURVE SMOOTH",
"1179 -213 OFFCURVE",
"1164 -200 OFFCURVE",
"1153 -182 CURVE SMOOTH",
"1146 -170 OFFCURVE",
"1143 -159 OFFCURVE",
"1143 -147 CURVE SMOOTH",
"1143 -141 OFFCURVE",
"1145 -134 OFFCURVE",
"1146 -126 CURVE"
);
},
{
closed = 1;
nodes = (
"2050 310 LINE",
"2036 325 OFFCURVE",
"2027 344 OFFCURVE",
"2027 366 CURVE SMOOTH",
"2027 410 OFFCURVE",
"2062 446 OFFCURVE",
"2106 446 CURVE SMOOTH",
"2127 446 OFFCURVE",
"2145 438 OFFCURVE",
"2160 421 CURVE",
"2221 364 LINE SMOOTH",
"2237 348 OFFCURVE",
"2245 328 OFFCURVE",
"2245 307 CURVE SMOOTH",
"2245 284 OFFCURVE",
"2237 266 OFFCURVE",
"2221 251 CURVE",
"2206 235 OFFCURVE",
"2190 227 OFFCURVE",
"2172 227 CURVE",
"2167 228 OFFCURVE",
"2163 228 OFFCURVE",
"2162 228 CURVE",
"2140 230 OFFCURVE",
"2122 238 OFFCURVE",
"2111 251 CURVE"
);
}
);
width = 2516;
}
);
unicode = F010;
},
{
glyphname = uniF011;
lastChange = "2014-05-03 20:13:21 +0000";
layers = (
{
layerId = "8BEE18A2-62EC-4A69-8B77-4987BEDA7528";
name = Regular;
paths = (
{
closed = 1;
nodes = (
"202 594 LINE",
"250 752 OFFCURVE",
"383 877 OFFCURVE",
"543 915 CURVE",
"597 1170 OFFCURVE",
"823 1353 OFFCURVE",
"1087 1353 CURVE SMOOTH",
"1349 1353 OFFCURVE",
"1572 1176 OFFCURVE",
"1630 928 CURVE",
"1659 928 LINE SMOOTH",
"1916 928 OFFCURVE",
"2125 721 OFFCURVE",
"2125 464 CURVE SMOOTH",
"2125 208 OFFCURVE",
"1916 -1 OFFCURVE",
"1659 -1 CURVE SMOOTH",
"1014 -1 LINE SMOOTH",
"1002 -1 OFFCURVE",
"997 4 OFFCURVE",
"997 15 CURVE SMOOTH",
"997 144 LINE SMOOTH",
"997 155 OFFCURVE",
"1002 160 OFFCURVE",
"1014 160 CURVE SMOOTH",
"1659 160 LINE SMOOTH",
"1829 160 OFFCURVE",
"1967 298 OFFCURVE",
"1967 464 CURVE SMOOTH",
"1967 631 OFFCURVE",
"1829 767 OFFCURVE",
"1659 767 CURVE SMOOTH",
"1508 767 LINE SMOOTH",
"1497 767 OFFCURVE",
"1492 772 OFFCURVE",
"1492 783 CURVE",
"1485 838 LINE SMOOTH",
"1464 1043 OFFCURVE",
"1293 1195 OFFCURVE",
"1087 1195 CURVE SMOOTH",
"881 1195 OFFCURVE",
"710 1040 OFFCURVE",
"691 838 CURVE",
"684 790 LINE",
"684 779 OFFCURVE",
"677 774 OFFCURVE",
"666 774 CURVE",
"617 767 LINE",
"505 759 OFFCURVE",
"411 685 OFFCURVE",
"370 585 CURVE",
"365 576 OFFCURVE",
"359 571 OFFCURVE",
"350 571 CURVE SMOOTH",
"215 571 LINE SMOOTH",
"206 571 OFFCURVE",
"200 575 OFFCURVE",
"200 583 CURVE SMOOTH",
"200 585 OFFCURVE",
"200 587 OFFCURVE",
"202 591 CURVE"
);
},
{
closed = 1;
nodes = (
"1064 285 LINE SMOOTH",
"1202 285 OFFCURVE",
"1314 397 OFFCURVE",
"1314 535 CURVE SMOOTH",
"1314 673 OFFCURVE",
"1202 783 OFFCURVE",
"1064 783 CURVE SMOOTH",
"992 783 OFFCURVE",
"933 760 OFFCURVE",
"885 712 CURVE SMOOTH",
"870 696 OFFCURVE",
"864 677 OFFCURVE",
"864 655 CURVE SMOOTH",
"864 610 OFFCURVE",
"895 578 OFFCURVE",
"941 578 CURVE SMOOTH",
"964 578 OFFCURVE",
"983 585 OFFCURVE",
"1000 599 CURVE",
"1018 618 OFFCURVE",
"1039 626 OFFCURVE",
"1064 626 CURVE SMOOTH",
"1112 626 OFFCURVE",
"1155 586 OFFCURVE",
"1155 535 CURVE SMOOTH",
"1155 484 OFFCURVE",
"1112 443 OFFCURVE",
"1064 443 CURVE SMOOTH",
"80 443 LINE SMOOTH",
"59 443 OFFCURVE",
"40 435 OFFCURVE",
"24 420 CURVE SMOOTH",
"8 404 OFFCURVE",
"0 383 OFFCURVE",
"0 362 CURVE SMOOTH",
"0 318 OFFCURVE",
"36 285 OFFCURVE",
"80 285 CURVE SMOOTH"
);
},
{
closed = 1;
nodes = (
"585 -1 LINE SMOOTH",
"633 -1 OFFCURVE",
"676 -41 OFFCURVE",
"676 -91 CURVE SMOOTH",
"676 -143 OFFCURVE",
"633 -183 OFFCURVE",
"585 -183 CURVE SMOOTH",
"561 -183 OFFCURVE",
"540 -174 OFFCURVE",
"521 -156 CURVE SMOOTH",
"505 -141 OFFCURVE",
"485 -133 OFFCURVE",
"464 -133 CURVE SMOOTH",
"417 -133 OFFCURVE",
"386 -167 OFFCURVE",
"386 -212 CURVE SMOOTH",
"386 -233 OFFCURVE",
"393 -253 OFFCURVE",
"408 -268 CURVE SMOOTH",
"457 -317 OFFCURVE",
"517 -341 OFFCURVE",
"585 -341 CURVE SMOOTH",
"723 -341 OFFCURVE",
"835 -230 OFFCURVE",
"835 -91 CURVE SMOOTH",
"835 46 OFFCURVE",
"723 160 OFFCURVE",
"585 160 CURVE SMOOTH",
"80 160 LINE SMOOTH",
"59 160 OFFCURVE",
"40 152 OFFCURVE",
"24 137 CURVE SMOOTH",
"8 121 OFFCURVE",
"0 100 OFFCURVE",
"0 79 CURVE SMOOTH",
"0 35 OFFCURVE",
"36 -1 OFFCURVE",
"80 -1 CURVE SMOOTH"
);
}
);
width = 2125;
}
);
unicode = F011;
},
{
glyphname = uniF012;
lastChange = "2014-05-03 20:13:58 +0000";
layers = (
{
layerId = "8BEE18A2-62EC-4A69-8B77-4987BEDA7528";
name = Regular;
paths = (
{
closed = 1;
nodes = (
"305 588 LINE",
"353 748 OFFCURVE",
"482 871 OFFCURVE",
"644 908 CURVE",
"698 1164 OFFCURVE",
"924 1348 OFFCURVE",
"1189 1348 CURVE SMOOTH",
"1446 1348 OFFCURVE",
"1669 1171 OFFCURVE",
"1729 921 CURVE",
"1758 921 LINE SMOOTH",
"2015 921 OFFCURVE",
"2222 715 OFFCURVE",
"2222 459 CURVE SMOOTH",
"2222 204 OFFCURVE",
"2015 -2 OFFCURVE",
"1758 -2 CURVE SMOOTH",
"1115 -2 LINE SMOOTH",
"1103 -2 OFFCURVE",
"1098 4 OFFCURVE",
"1098 15 CURVE SMOOTH",
"1098 140 LINE SMOOTH",
"1098 152 OFFCURVE",
"1103 156 OFFCURVE",
"1115 156 CURVE SMOOTH",
"1758 156 LINE SMOOTH",
"1924 156 OFFCURVE",
"2064 295 OFFCURVE",
"2064 459 CURVE SMOOTH",
"2064 628 OFFCURVE",
"1927 765 OFFCURVE",
"1758 765 CURVE SMOOTH",
"1608 765 LINE SMOOTH",
"1596 765 OFFCURVE",
"1592 769 OFFCURVE",
"1592 780 CURVE",
"1585 835 LINE SMOOTH",
"1560 1037 OFFCURVE",
"1393 1187 OFFCURVE",
"1189 1187 CURVE SMOOTH",
"983 1187 OFFCURVE",
"812 1035 OFFCURVE",
"791 832 CURVE SMOOTH",
"785 784 LINE",
"785 773 OFFCURVE",
"780 767 OFFCURVE",
"769 767 CURVE",
"718 761 LINE",
"608 753 OFFCURVE",
"515 679 OFFCURVE",
"474 579 CURVE",
"469 571 OFFCURVE",
"460 566 OFFCURVE",
"452 566 CURVE SMOOTH",
"319 566 LINE SMOOTH",
"308 566 OFFCURVE",
"304 571 OFFCURVE",
"304 579 CURVE SMOOTH",
"304 581 OFFCURVE",
"304 584 OFFCURVE",
"305 586 CURVE"
);
},
{
closed = 1;
nodes = (
"1166 281 LINE SMOOTH",
"1210 281 OFFCURVE",
"1242 317 OFFCURVE",
"1242 361 CURVE SMOOTH",
"1242 405 OFFCURVE",
"1210 438 OFFCURVE",
"1166 438 CURVE SMOOTH",
"326 438 LINE SMOOTH",
"305 438 OFFCURVE",
"285 432 OFFCURVE",
"271 417 CURVE",
"254 402 OFFCURVE",
"246 382 OFFCURVE",
"246 361 CURVE SMOOTH",
"246 317 OFFCURVE",
"282 281 OFFCURVE",
"326 281 CURVE SMOOTH"
);
},
{
closed = 1;
nodes = (
"920 -2 LINE SMOOTH",
"964 -2 OFFCURVE",
"997 32 OFFCURVE",
"997 76 CURVE SMOOTH",
"997 123 OFFCURVE",
"964 156 OFFCURVE",
"920 156 CURVE SMOOTH",
"82 156 LINE SMOOTH",
"36 156 OFFCURVE",
"0 122 OFFCURVE",
"0 76 CURVE SMOOTH",
"0 32 OFFCURVE",
"36 -2 OFFCURVE",
"82 -2 CURVE SMOOTH"
);
},
{
closed = 1;
nodes = (
"1329 -293 LINE SMOOTH",
"1374 -293 OFFCURVE",
"1410 -257 OFFCURVE",
"1410 -213 CURVE SMOOTH",
"1410 -168 OFFCURVE",
"1374 -135 OFFCURVE",
"1329 -135 CURVE SMOOTH",
"490 -135 LINE SMOOTH",
"469 -135 OFFCURVE",
"449 -142 OFFCURVE",
"435 -157 CURVE",
"418 -172 OFFCURVE",
"410 -191 OFFCURVE",
"410 -213 CURVE SMOOTH",
"410 -257 OFFCURVE",
"446 -293 OFFCURVE",
"490 -293 CURVE SMOOTH"
);
}
);
width = 2222;
}
);
unicode = F012;
},
{
glyphname = uniF013;
lastChange = "2014-05-03 20:14:12 +0000";
layers = (
{
layerId = "8BEE18A2-62EC-4A69-8B77-4987BEDA7528";
name = Regular;
paths = (
{
closed = 1;
nodes = (
"1717 1038 LINE SMOOTH",
"1914 1038 OFFCURVE",
"2074 878 OFFCURVE",
"2074 681 CURVE SMOOTH",
"2074 494 OFFCURVE",
"1926 338 OFFCURVE",
"1739 327 CURVE",
"1730 327 OFFCURVE",
"1725 333 OFFCURVE",
"1725 342 CURVE SMOOTH",
"1725 448 LINE SMOOTH",
"1725 458 OFFCURVE",
"1730 463 OFFCURVE",
"1739 463 CURVE",
"1852 475 OFFCURVE",
"1939 569 OFFCURVE",
"1939 681 CURVE SMOOTH",
"1939 801 OFFCURVE",
"1839 901 OFFCURVE",
"1717 901 CURVE SMOOTH",
"1585 901 LINE",
"1576 961 LINE",
"1564 1109 OFFCURVE",
"1439 1223 OFFCURVE",
"1288 1223 CURVE SMOOTH",
"1212 1223 OFFCURVE",
"1146 1196 OFFCURVE",
"1090 1143 CURVE",
"1086 1138 OFFCURVE",
"1079 1137 OFFCURVE",
"1069 1140 CURVE",
"1031 1164 OFFCURVE",
"997 1180 OFFCURVE",
"969 1192 CURVE",
"955 1196 OFFCURVE",
"952 1202 OFFCURVE",
"962 1211 CURVE",
"1048 1310 OFFCURVE",
"1156 1359 OFFCURVE",
"1288 1359 CURVE SMOOTH",
"1481 1359 OFFCURVE",
"1654 1224 OFFCURVE",
"1703 1038 CURVE"
);
},
{
closed = 1;
nodes = (
"1264 -1 LINE SMOOTH",
"1484 -1 OFFCURVE",
"1662 178 OFFCURVE",
"1662 397 CURVE SMOOTH",
"1662 617 OFFCURVE",
"1484 794 OFFCURVE",
"1264 794 CURVE SMOOTH",
"1239 794 LINE",
"1187 1006 OFFCURVE",
"996 1157 OFFCURVE",
"775 1157 CURVE SMOOTH",
"548 1157 OFFCURVE",
"356 1002 OFFCURVE",
"309 783 CURVE",
"129 742 OFFCURVE",
"0 583 OFFCURVE",
"0 397 CURVE SMOOTH",
"0 178 OFFCURVE",
"179 -1 OFFCURVE",
"398 -1 CURVE SMOOTH"
);
},
{
closed = 1;
nodes = (
"415 662 LINE",
"425 662 OFFCURVE",
"430 666 OFFCURVE",
"430 676 CURVE",
"436 716 LINE",
"453 891 OFFCURVE",
"599 1022 OFFCURVE",
"775 1022 CURVE SMOOTH",
"951 1022 OFFCURVE",
"1097 892 OFFCURVE",
"1115 716 CURVE SMOOTH",
"1121 670 LINE",
"1121 660 OFFCURVE",
"1125 656 OFFCURVE",
"1135 656 CURVE SMOOTH",
"1264 656 LINE SMOOTH",
"1409 656 OFFCURVE",
"1527 539 OFFCURVE",
"1527 397 CURVE SMOOTH",
"1527 255 OFFCURVE",
"1409 137 OFFCURVE",
"1264 137 CURVE SMOOTH",
"398 137 LINE SMOOTH",
"253 137 OFFCURVE",
"136 255 OFFCURVE",
"136 397 CURVE SMOOTH",
"136 532 OFFCURVE",
"239 645 OFFCURVE",
"373 656 CURVE"
);
}
);
width = 2074;
}
);
unicode = F013;
},
{
glyphname = uniF014;
lastChange = "2014-05-03 20:14:34 +0000";
layers = (
{
layerId = "8BEE18A2-62EC-4A69-8B77-4987BEDA7528";
name = Regular;
paths = (
{
closed = 1;
nodes = (
"257 596 LINE",
"304 754 OFFCURVE",
"433 874 OFFCURVE",
"591 912 CURVE",
"648 1166 OFFCURVE",
"872 1348 OFFCURVE",
"1134 1348 CURVE SMOOTH",
"1390 1348 OFFCURVE",
"1609 1172 OFFCURVE",
"1670 925 CURVE",
"1700 925 LINE SMOOTH",
"1909 925 OFFCURVE",
"2086 788 OFFCURVE",
"2140 599 CURVE",
"2143 585 OFFCURVE",
"2138 578 OFFCURVE",
"2127 578 CURVE SMOOTH",
"1993 578 LINE SMOOTH",
"1987 578 OFFCURVE",
"1980 583 OFFCURVE",
"1974 593 CURVE",
"1927 697 OFFCURVE",
"1822 769 OFFCURVE",
"1700 769 CURVE SMOOTH",
"1551 769 LINE SMOOTH",
"1539 769 OFFCURVE",
"1533 773 OFFCURVE",
"1533 785 CURVE",
"1526 838 LINE SMOOTH",
"1505 1039 OFFCURVE",
"1334 1188 OFFCURVE",
"1134 1188 CURVE SMOOTH",
"931 1188 OFFCURVE",
"760 1037 OFFCURVE",
"740 835 CURVE SMOOTH",
"734 788 LINE",
"734 777 OFFCURVE",
"729 772 OFFCURVE",
"718 772 CURVE",
"667 765 LINE",
"562 757 OFFCURVE",
"467 689 OFFCURVE",
"423 593 CURVE",
"417 583 OFFCURVE",
"410 578 OFFCURVE",
"404 578 CURVE SMOOTH",
"270 578 LINE SMOOTH",
"260 578 OFFCURVE",
"256 583 OFFCURVE",
"256 591 CURVE SMOOTH",
"256 593 OFFCURVE",
"256 596 OFFCURVE",
"257 599 CURVE"
);
},
{
closed = 1;
nodes = (
"2067 289 LINE SMOOTH",
"2110 289 OFFCURVE",
"2143 324 OFFCURVE",
"2143 368 CURVE SMOOTH",
"2143 412 OFFCURVE",
"2110 445 OFFCURVE",
"2067 445 CURVE SMOOTH",
"324 445 LINE SMOOTH",
"303 445 OFFCURVE",
"283 438 OFFCURVE",
"269 424 CURVE",
"252 409 OFFCURVE",
"244 389 OFFCURVE",
"244 368 CURVE SMOOTH",
"244 324 OFFCURVE",
"280 289 OFFCURVE",
"324 289 CURVE SMOOTH"
);
},
{
closed = 1;
nodes = (
"1824 -1 LINE SMOOTH",
"1868 -1 OFFCURVE",
"1904 31 OFFCURVE",
"1904 75 CURVE SMOOTH",
"1904 121 OFFCURVE",
"1870 155 OFFCURVE",
"1824 155 CURVE SMOOTH",
"82 155 LINE SMOOTH",
"36 155 OFFCURVE",
"0 121 OFFCURVE",
"0 75 CURVE SMOOTH",
"0 31 OFFCURVE",
"36 -1 OFFCURVE",
"82 -1 CURVE SMOOTH"
);
},
{
closed = 1;
nodes = (
"2231 -291 LINE SMOOTH",
"2275 -291 OFFCURVE",
"2311 -255 OFFCURVE",
"2311 -211 CURVE SMOOTH",
"2311 -167 OFFCURVE",
"2275 -135 OFFCURVE",
"2231 -135 CURVE SMOOTH",
"487 -135 LINE SMOOTH",
"466 -135 OFFCURVE",
"446 -141 OFFCURVE",
"431 -156 CURVE",
"415 -170 OFFCURVE",
"407 -190 OFFCURVE",
"407 -211 CURVE SMOOTH",
"407 -255 OFFCURVE",
"443 -291 OFFCURVE",
"487 -291 CURVE SMOOTH"
);
}
);
width = 2311;
}
);
unicode = F014;
},
{
glyphname = uniF015;
lastChange = "2014-05-03 20:14:51 +0000";
layers = (
{
layerId = "8BEE18A2-62EC-4A69-8B77-4987BEDA7528";
name = Regular;
paths = (
{
closed = 1;
nodes = (
"1471 920 LINE SMOOTH",
"1726 920 OFFCURVE",
"1934 717 OFFCURVE",
"1934 462 CURVE SMOOTH",
"1934 213 OFFCURVE",
"1737 7 OFFCURVE",
"1489 -1 CURVE SMOOTH",
"1477 -1 OFFCURVE",
"1471 4 OFFCURVE",
"1471 15 CURVE SMOOTH",
"1471 140 LINE SMOOTH",
"1471 151 OFFCURVE",
"1477 156 OFFCURVE",
"1489 156 CURVE",
"1647 164 OFFCURVE",
"1777 300 OFFCURVE",
"1777 462 CURVE SMOOTH",
"1777 626 OFFCURVE",
"1636 763 OFFCURVE",
"1471 763 CURVE SMOOTH",
"1320 763 LINE SMOOTH",
"1309 763 OFFCURVE",
"1304 768 OFFCURVE",
"1304 779 CURVE",
"1297 833 LINE SMOOTH",
"1276 1035 OFFCURVE",
"1103 1188 OFFCURVE",
"901 1188 CURVE SMOOTH",
"697 1188 OFFCURVE",
"527 1035 OFFCURVE",
"507 833 CURVE SMOOTH",
"501 783 LINE",
"501 771 OFFCURVE",
"494 766 OFFCURVE",
"483 766 CURVE",
"433 763 LINE",
"278 745 OFFCURVE",
"159 617 OFFCURVE",
"159 462 CURVE SMOOTH",
"159 300 OFFCURVE",
"288 164 OFFCURVE",
"447 156 CURVE",
"458 156 OFFCURVE",
"463 151 OFFCURVE",
"463 140 CURVE SMOOTH",
"463 15 LINE SMOOTH",
"463 4 OFFCURVE",
"458 -1 OFFCURVE",
"447 -1 CURVE",
"198 10 OFFCURVE",
"0 213 OFFCURVE",
"0 462 CURVE SMOOTH",
"0 678 OFFCURVE",
"150 863 OFFCURVE",
"355 910 CURVE",
"412 1164 OFFCURVE",
"638 1345 OFFCURVE",
"901 1345 CURVE SMOOTH",
"1158 1345 OFFCURVE",
"1381 1169 OFFCURVE",
"1441 920 CURVE"
);
},
{
closed = 1;
nodes = (
"654 395 LINE",
"667 434 OFFCURVE",
"702 450 OFFCURVE",
"728 450 CURVE SMOOTH",
"736 450 OFFCURVE",
"743 449 OFFCURVE",
"751 447 CURVE",
"795 439 OFFCURVE",
"820 397 OFFCURVE",
"808 351 CURVE SMOOTH",
"724 35 LINE SMOOTH",
"709 -22 OFFCURVE",
"662 -37 OFFCURVE",
"625 -19 CURVE",
"584 -5 OFFCURVE",
"567 27 OFFCURVE",
"567 53 CURVE SMOOTH",
"567 62 OFFCURVE",
"569 70 OFFCURVE",
"571 78 CURVE SMOOTH"
);
},
{
closed = 1;
nodes = (
"972 395 LINE",
"980 434 OFFCURVE",
"1019 450 OFFCURVE",
"1045 450 CURVE SMOOTH",
"1054 450 OFFCURVE",
"1062 449 OFFCURVE",
"1070 447 CURVE SMOOTH",
"1111 436 OFFCURVE",
"1134 396 OFFCURVE",
"1122 351 CURVE SMOOTH",
"966 -236 LINE SMOOTH",
"959 -264 OFFCURVE",
"947 -282 OFFCURVE",
"927 -290 CURVE",
"916 -295 OFFCURVE",
"904 -297 OFFCURVE",
"891 -297 CURVE SMOOTH",
"883 -297 OFFCURVE",
"876 -295 OFFCURVE",
"868 -293 CURVE SMOOTH",
"829 -282 OFFCURVE",
"809 -259 OFFCURVE",
"809 -225 CURVE SMOOTH",
"809 -217 OFFCURVE",
"811 -207 OFFCURVE",
"813 -197 CURVE"
);
},
{
closed = 1;
nodes = (
"1284 395 LINE SMOOTH",
"1295 435 OFFCURVE",
"1330 450 OFFCURVE",
"1356 450 CURVE SMOOTH",
"1364 450 OFFCURVE",
"1373 449 OFFCURVE",
"1381 447 CURVE SMOOTH",
"1422 436 OFFCURVE",
"1438 400 OFFCURVE",
"1438 375 CURVE SMOOTH",
"1438 367 OFFCURVE",
"1436 359 OFFCURVE",
"1435 351 CURVE",
"1351 39 LINE SMOOTH",
"1345 16 OFFCURVE",
"1331 -1 OFFCURVE",
"1313 -10 CURVE",
"1302 -15 OFFCURVE",
"1290 -19 OFFCURVE",
"1279 -19 CURVE SMOOTH",
"1271 -19 OFFCURVE",
"1263 -17 OFFCURVE",
"1254 -15 CURVE",
"1215 -2 OFFCURVE",
"1197 34 OFFCURVE",
"1197 58 CURVE SMOOTH",
"1197 67 OFFCURVE",
"1199 73 OFFCURVE",
"1200 81 CURVE"
);
},
{
closed = 1;
nodes = (
"502 -192 OFFCURVE",
"499 -172 OFFCURVE",
"510 -153 CURVE",
"528 -112 OFFCURVE",
"574 -92 OFFCURVE",
"611 -112 CURVE",
"651 -127 OFFCURVE",
"669 -172 OFFCURVE",
"651 -213 CURVE",
"636 -253 OFFCURVE",
"589 -271 OFFCURVE",
"551 -253 CURVE SMOOTH",
"531 -244 OFFCURVE",
"517 -230 OFFCURVE",
"508 -210 CURVE"
);
},
{
closed = 1;
nodes = (
"1132 -202 OFFCURVE",
"1130 -192 OFFCURVE",
"1130 -182 CURVE SMOOTH",
"1130 -172 OFFCURVE",
"1132 -163 OFFCURVE",
"1137 -153 CURVE",
"1155 -112 OFFCURVE",
"1200 -92 OFFCURVE",
"1241 -112 CURVE SMOOTH",
"1279 -130 OFFCURVE",
"1295 -172 OFFCURVE",
"1281 -213 CURVE",
"1272 -233 OFFCURVE",
"1258 -246 OFFCURVE",
"1238 -254 CURVE",
"1228 -257 OFFCURVE",
"1218 -259 OFFCURVE",
"1210 -259 CURVE SMOOTH",
"1199 -259 OFFCURVE",
"1189 -257 OFFCURVE",
"1178 -253 CURVE",
"1160 -244 OFFCURVE",
"1145 -231 OFFCURVE",
"1137 -212 CURVE"
);
},
{
closed = 1;
nodes = (
"742 -486 OFFCURVE",
"741 -477 OFFCURVE",
"741 -468 CURVE SMOOTH",
"741 -447 OFFCURVE",
"752 -410 OFFCURVE",
"791 -393 CURVE SMOOTH",
"831 -377 OFFCURVE",
"873 -395 OFFCURVE",
"891 -436 CURVE SMOOTH",
"909 -477 OFFCURVE",
"888 -524 OFFCURVE",
"847 -539 CURVE",
"837 -542 OFFCURVE",
"827 -544 OFFCURVE",
"819 -544 CURVE SMOOTH",
"808 -544 OFFCURVE",
"798 -542 OFFCURVE",
"788 -537 CURVE",
"767 -529 OFFCURVE",
"754 -514 OFFCURVE",
"746 -495 CURVE SMOOTH"
);
}
);
width = 1934;
}
);
unicode = F015;
},
{
glyphname = uniF016;
lastChange = "2014-05-03 20:15:03 +0000";
layers = (
{
layerId = "8BEE18A2-62EC-4A69-8B77-4987BEDA7528";
name = Regular;
paths = (
{
closed = 1;
nodes = (
"819 343 LINE",
"794 343 LINE",
"1017 933 LINE",
"826 933 LINE SMOOTH",
"809 933 OFFCURVE",
"803 943 OFFCURVE",
"808 959 CURVE",
"1002 1471 LINE",
"1008 1482 OFFCURVE",
"1020 1488 OFFCURVE",
"1030 1488 CURVE SMOOTH",
"1285 1488 LINE SMOOTH",
"1306 1488 OFFCURVE",
"1313 1479 OFFCURVE",
"1302 1460 CURVE SMOOTH",
"1098 1084 LINE",
"1294 1084 LINE SMOOTH",
"1311 1084 OFFCURVE",
"1315 1074 OFFCURVE",
"1306 1059 CURVE"
);
},
{
closed = 1;
nodes = (
"37 -248 LINE",
"0 -248 LINE",
"293 529 LINE",
"37 529 LINE SMOOTH",
"23 529 OFFCURVE",
"16 537 OFFCURVE",
"19 555 CURVE",
"278 1245 LINE",
"285 1255 OFFCURVE",
"295 1262 OFFCURVE",
"305 1262 CURVE SMOOTH",
"661 1262 LINE SMOOTH",
"680 1262 OFFCURVE",
"687 1253 OFFCURVE",
"679 1236 CURVE",
"400 728 LINE",
"665 728 LINE SMOOTH",
"683 728 OFFCURVE",
"687 718 OFFCURVE",
"679 703 CURVE"
);
}
);
width = 1315;
}
);
unicode = F016;
},
{
glyphname = uniF017;
lastChange = "2014-05-03 20:15:15 +0000";
layers = (
{
layerId = "8BEE18A2-62EC-4A69-8B77-4987BEDA7528";
name = Regular;
paths = (
{
closed = 1;
nodes = (
"1470 918 LINE SMOOTH",
"1725 918 OFFCURVE",
"1933 712 OFFCURVE",
"1933 457 CURVE SMOOTH",
"1933 210 OFFCURVE",
"1737 6 OFFCURVE",
"1488 -2 CURVE SMOOTH",
"1477 -2 OFFCURVE",
"1470 3 OFFCURVE",
"1470 14 CURVE SMOOTH",
"1470 138 LINE SMOOTH",
"1470 150 OFFCURVE",
"1477 155 OFFCURVE",
"1488 155 CURVE",
"1647 163 OFFCURVE",
"1776 300 OFFCURVE",
"1776 457 CURVE SMOOTH",
"1776 622 OFFCURVE",
"1639 761 OFFCURVE",
"1470 761 CURVE SMOOTH",
"1320 761 LINE SMOOTH",
"1308 761 OFFCURVE",
"1303 766 OFFCURVE",
"1303 778 CURVE",
"1297 832 LINE SMOOTH",
"1275 1033 OFFCURVE",
"1102 1187 OFFCURVE",
"901 1187 CURVE SMOOTH",
"696 1187 OFFCURVE",
"526 1033 OFFCURVE",
"507 828 CURVE",
"500 781 LINE",
"500 770 OFFCURVE",
"494 765 OFFCURVE",
"482 765 CURVE",
"433 758 LINE",
"278 745 OFFCURVE",
"158 614 OFFCURVE",
"158 457 CURVE SMOOTH",
"158 300 OFFCURVE",
"288 163 OFFCURVE",
"446 155 CURVE",
"458 155 OFFCURVE",
"463 150 OFFCURVE",
"463 138 CURVE SMOOTH",
"463 14 LINE SMOOTH",
"463 3 OFFCURVE",
"458 -2 OFFCURVE",
"446 -2 CURVE SMOOTH",
"198 6 OFFCURVE",
"0 210 OFFCURVE",
"0 457 CURVE SMOOTH",
"0 675 OFFCURVE",
"147 856 OFFCURVE",
"355 909 CURVE",
"412 1162 OFFCURVE",
"638 1344 OFFCURVE",
"901 1344 CURVE SMOOTH",
"1158 1344 OFFCURVE",
"1380 1167 OFFCURVE",
"1441 918 CURVE"
);
},
{
closed = 1;
nodes = (
"659 395 LINE",
"672 435 OFFCURVE",
"715 460 OFFCURVE",
"756 447 CURVE",
"800 435 OFFCURVE",
"827 396 OFFCURVE",
"813 350 CURVE SMOOTH",
"787 266 LINE SMOOTH",
"774 222 OFFCURVE",
"728 201 OFFCURVE",
"690 212 CURVE SMOOTH",
"646 226 OFFCURVE",
"631 258 OFFCURVE",
"633 284 CURVE",
"633 293 OFFCURVE",
"635 301 OFFCURVE",
"636 309 CURVE"
);
},
{
closed = 1;
nodes = (
"1285 391 LINE SMOOTH",
"1298 434 OFFCURVE",
"1338 457 OFFCURVE",
"1382 444 CURVE SMOOTH",
"1423 432 OFFCURVE",
"1448 390 OFFCURVE",
"1436 347 CURVE SMOOTH",
"1413 263 LINE SMOOTH",
"1407 240 OFFCURVE",
"1393 224 OFFCURVE",
"1375 214 CURVE",
"1364 209 OFFCURVE",
"1353 206 OFFCURVE",
"1341 206 CURVE SMOOTH",
"1333 206 OFFCURVE",
"1325 208 OFFCURVE",
"1317 209 CURVE",
"1272 222 OFFCURVE",
"1256 257 OFFCURVE",
"1256 284 CURVE SMOOTH",
"1256 291 OFFCURVE",
"1258 297 OFFCURVE",
"1259 306 CURVE"
);
},
{
closed = 1;
nodes = (
"896 102 LINE",
"909 146 OFFCURVE",
"953 171 OFFCURVE",
"994 159 CURVE SMOOTH",
"1039 146 OFFCURVE",
"1063 103 OFFCURVE",
"1050 63 CURVE SMOOTH",
"1025 -21 LINE SMOOTH",
"1009 -75 OFFCURVE",
"967 -90 OFFCURVE",
"927 -79 CURVE",
"886 -71 OFFCURVE",
"870 -31 OFFCURVE",
"872 -7 CURVE",
"872 1 OFFCURVE",
"873 10 OFFCURVE",
"875 18 CURVE SMOOTH"
);
},
{
closed = 1;
nodes = (
"584 33 OFFCURVE",
"576 50 OFFCURVE",
"576 72 CURVE SMOOTH",
"576 116 OFFCURVE",
"608 149 OFFCURVE",
"652 149 CURVE SMOOTH",
"697 149 OFFCURVE",
"731 116 OFFCURVE",
"731 72 CURVE SMOOTH",
"731 28 OFFCURVE",
"697 -5 OFFCURVE",
"652 -5 CURVE SMOOTH",
"631 -5 OFFCURVE",
"613 3 OFFCURVE",
"599 18 CURVE SMOOTH"
);
},
{
closed = 1;
nodes = (
"1207 29 OFFCURVE",
"1199 47 OFFCURVE",
"1199 68 CURVE SMOOTH",
"1199 113 OFFCURVE",
"1232 145 OFFCURVE",
"1276 145 CURVE SMOOTH",
"1320 145 OFFCURVE",
"1353 113 OFFCURVE",
"1353 68 CURVE SMOOTH",
"1353 24 OFFCURVE",
"1320 -8 OFFCURVE",
"1276 -8 CURVE SMOOTH",
"1254 -8 OFFCURVE",
"1236 0 OFFCURVE",
"1222 15 CURVE"
);
},
{
closed = 1;
nodes = (
"520 -126 LINE SMOOTH",
"531 -81 OFFCURVE",
"576 -57 OFFCURVE",
"617 -69 CURVE SMOOTH",
"661 -82 OFFCURVE",
"683 -124 OFFCURVE",
"674 -165 CURVE SMOOTH",
"661 -222 LINE SMOOTH",
"648 -278 OFFCURVE",
"603 -289 OFFCURVE",
"564 -278 CURVE SMOOTH",
"523 -265 OFFCURVE",
"505 -227 OFFCURVE",
"505 -199 CURVE SMOOTH",
"505 -193 OFFCURVE",
"505 -186 OFFCURVE",
"507 -181 CURVE"
);
},
{
closed = 1;
nodes = (
"1142 -129 LINE",
"1155 -85 OFFCURVE",
"1197 -61 OFFCURVE",
"1243 -72 CURVE",
"1284 -85 OFFCURVE",
"1310 -129 OFFCURVE",
"1297 -169 CURVE",
"1284 -225 LINE SMOOTH",
"1274 -267 OFFCURVE",
"1248 -286 OFFCURVE",
"1213 -286 CURVE SMOOTH",
"1205 -286 OFFCURVE",
"1197 -284 OFFCURVE",
"1187 -283 CURVE",
"1146 -271 OFFCURVE",
"1130 -234 OFFCURVE",
"1130 -207 CURVE SMOOTH",
"1130 -199 OFFCURVE",
"1132 -193 OFFCURVE",
"1133 -184 CURVE"
);
},
{
closed = 1;
nodes = (
"823 -259 OFFCURVE",
"814 -241 OFFCURVE",
"814 -219 CURVE SMOOTH",
"814 -175 OFFCURVE",
"847 -143 OFFCURVE",
"891 -143 CURVE SMOOTH",
"935 -143 OFFCURVE",
"968 -175 OFFCURVE",
"968 -219 CURVE SMOOTH",
"968 -264 OFFCURVE",
"935 -296 OFFCURVE",
"891 -296 CURVE SMOOTH",
"870 -296 OFFCURVE",
"852 -288 OFFCURVE",
"837 -273 CURVE SMOOTH"
);
},
{
closed = 1;
nodes = (
"757 -414 LINE",
"770 -373 OFFCURVE",
"814 -347 OFFCURVE",
"854 -360 CURVE",
"898 -368 OFFCURVE",
"922 -411 OFFCURVE",
"911 -458 CURVE SMOOTH",
"898 -513 LINE SMOOTH",
"886 -562 OFFCURVE",
"849 -570 OFFCURVE",
"824 -570 CURVE SMOOTH",
"816 -570 OFFCURVE",
"809 -569 OFFCURVE",
"801 -567 CURVE",
"757 -554 OFFCURVE",
"741 -518 OFFCURVE",
"741 -490 CURVE SMOOTH",
"741 -484 OFFCURVE",
"742 -477 OFFCURVE",
"744 -469 CURVE SMOOTH"
);
}
);
width = 1933;
}
);
unicode = F017;
},
{
glyphname = uniF018;
lastChange = "2014-05-03 20:15:32 +0000";
layers = (
{
layerId = "8BEE18A2-62EC-4A69-8B77-4987BEDA7528";
name = Regular;
paths = (
{
closed = 1;
nodes = (
"1476 922 LINE SMOOTH",
"1732 922 OFFCURVE",
"1937 715 OFFCURVE",
"1937 459 CURVE SMOOTH",
"1937 222 OFFCURVE",
"1755 22 OFFCURVE",
"1523 -2 CURVE",
"1326 -229 LINE",
"1313 -250 OFFCURVE",
"1294 -262 OFFCURVE",
"1269 -262 CURVE SMOOTH",
"1244 -262 OFFCURVE",
"1226 -255 OFFCURVE",
"1216 -244 CURVE",
"1184 -218 OFFCURVE",
"1174 -165 OFFCURVE",
"1202 -132 CURVE SMOOTH",
"1423 129 LINE",
"1431 142 OFFCURVE",
"1451 149 OFFCURVE",
"1461 150 CURVE",
"1471 152 OFFCURVE",
"1502 155 OFFCURVE",
"1507 155 CURVE",
"1659 173 OFFCURVE",
"1779 303 OFFCURVE",
"1779 459 CURVE SMOOTH",
"1779 625 OFFCURVE",
"1645 761 OFFCURVE",
"1476 761 CURVE SMOOTH",
"1325 761 LINE SMOOTH",
"1315 761 OFFCURVE",
"1308 766 OFFCURVE",
"1305 777 CURVE",
"1298 831 LINE",
"1279 1035 OFFCURVE",
"1106 1187 OFFCURVE",
"901 1187 CURVE SMOOTH",
"696 1187 OFFCURVE",
"530 1036 OFFCURVE",
"506 831 CURVE SMOOTH",
"499 780 LINE",
"499 772 OFFCURVE",
"494 767 OFFCURVE",
"484 767 CURVE",
"435 761 LINE",
"278 748 OFFCURVE",
"160 616 OFFCURVE",
"160 459 CURVE SMOOTH",
"160 290 OFFCURVE",
"296 155 OFFCURVE",
"461 155 CURVE",
"353 21 LINE",
"345 14 OFFCURVE",
"338 12 OFFCURVE",
"330 14 CURVE",
"135 73 OFFCURVE",
"0 249 OFFCURVE",
"0 459 CURVE SMOOTH",
"0 675 OFFCURVE",
"146 861 OFFCURVE",
"356 908 CURVE",
"411 1164 OFFCURVE",
"637 1345 OFFCURVE",
"901 1345 CURVE SMOOTH",
"1162 1345 OFFCURVE",
"1385 1169 OFFCURVE",
"1446 922 CURVE"
);
},
{
closed = 1;
nodes = (
"1138 254 LINE",
"1151 272 OFFCURVE",
"1169 282 OFFCURVE",
"1190 283 CURVE",
"1202 283 LINE SMOOTH",
"1236 283 OFFCURVE",
"1272 259 OFFCURVE",
"1277 214 CURVE",
"1277 203 LINE SMOOTH",
"1277 185 OFFCURVE",
"1274 170 OFFCURVE",
"1261 155 CURVE SMOOTH",
"855 -334 LINE SMOOTH",
"837 -355 OFFCURVE",
"818 -365 OFFCURVE",
"796 -365 CURVE SMOOTH",
"764 -365 OFFCURVE",
"721 -337 OFFCURVE",
"716 -293 CURVE",
"716 -283 LINE SMOOTH",
"716 -265 OFFCURVE",
"721 -249 OFFCURVE",
"732 -232 CURVE"
);
},
{
closed = 1;
nodes = (
"726 248 LINE SMOOTH",
"739 264 OFFCURVE",
"757 274 OFFCURVE",
"779 278 CURVE SMOOTH",
"784 279 OFFCURVE",
"787 279 OFFCURVE",
"792 279 CURVE SMOOTH",
"826 279 OFFCURVE",
"861 250 OFFCURVE",
"866 209 CURVE",
"867 187 OFFCURVE",
"864 167 OFFCURVE",
"848 148 CURVE SMOOTH",
"631 -110 LINE SMOOTH",
"614 -130 OFFCURVE",
"595 -141 OFFCURVE",
"574 -141 CURVE SMOOTH",
"556 -141 OFFCURVE",
"538 -135 OFFCURVE",
"516 -123 CURVE",
"500 -110 OFFCURVE",
"490 -92 OFFCURVE",
"488 -71 CURVE",
"488 -61 LINE SMOOTH",
"488 -43 OFFCURVE",
"494 -25 OFFCURVE",
"506 -11 CURVE SMOOTH"
);
},
{
closed = 1;
nodes = (
"318 -307 OFFCURVE",
"316 -297 OFFCURVE",
"316 -289 CURVE SMOOTH",
"316 -279 OFFCURVE",
"318 -269 OFFCURVE",
"323 -258 CURVE SMOOTH",
"341 -217 OFFCURVE",
"385 -197 OFFCURVE",
"426 -217 CURVE",
"467 -231 OFFCURVE",
"485 -277 OFFCURVE",
"467 -318 CURVE",
"452 -358 OFFCURVE",
"403 -376 OFFCURVE",
"362 -358 CURVE SMOOTH",
"342 -350 OFFCURVE",
"329 -336 OFFCURVE",
"321 -317 CURVE"
);
},
{
closed = 1;
nodes = (
"1156 -318 LINE",
"1175 -326 OFFCURVE",
"1189 -339 OFFCURVE",
"1197 -359 CURVE",
"1203 -378 OFFCURVE",
"1207 -400 OFFCURVE",
"1195 -421 CURVE",
"1187 -439 OFFCURVE",
"1172 -452 OFFCURVE",
"1152 -460 CURVE",
"1143 -465 OFFCURVE",
"1133 -467 OFFCURVE",
"1121 -467 CURVE SMOOTH",
"1111 -467 OFFCURVE",
"1102 -465 OFFCURVE",
"1092 -462 CURVE",
"1070 -452 OFFCURVE",
"1057 -437 OFFCURVE",
"1049 -418 CURVE",
"1046 -410 OFFCURVE",
"1044 -400 OFFCURVE",
"1044 -390 CURVE SMOOTH",
"1044 -378 OFFCURVE",
"1046 -369 OFFCURVE",
"1051 -357 CURVE SMOOTH",
"1059 -337 OFFCURVE",
"1072 -324 OFFCURVE",
"1093 -316 CURVE",
"1103 -313 OFFCURVE",
"1113 -311 OFFCURVE",
"1123 -309 CURVE"
);
},
{
closed = 1;
nodes = (
"581 -433 OFFCURVE",
"631 -413 OFFCURVE",
"672 -431 CURVE",
"711 -446 OFFCURVE",
"729 -495 OFFCURVE",
"711 -536 CURVE SMOOTH",
"703 -554 OFFCURVE",
"688 -567 OFFCURVE",
"668 -575 CURVE",
"659 -580 OFFCURVE",
"649 -582 OFFCURVE",
"639 -582 CURVE SMOOTH",
"629 -582 OFFCURVE",
"619 -580 OFFCURVE",
"608 -575 CURVE",
"588 -565 OFFCURVE",
"575 -551 OFFCURVE",
"567 -531 CURVE",
"562 -521 OFFCURVE",
"560 -511 OFFCURVE",
"560 -501 CURVE SMOOTH",
"560 -492 OFFCURVE",
"562 -482 OFFCURVE",
"567 -472 CURVE"
);
}
);
width = 1937;
}
);
unicode = F018;
},
{
glyphname = uniF019;
lastChange = "2014-05-03 20:15:46 +0000";
layers = (
{
layerId = "8BEE18A2-62EC-4A69-8B77-4987BEDA7528";
name = Regular;
paths = (
{
closed = 1;
nodes = (
"463 138 LINE SMOOTH",
"463 150 OFFCURVE",
"459 155 OFFCURVE",
"447 155 CURVE",
"288 163 OFFCURVE",
"159 299 OFFCURVE",
"159 461 CURVE SMOOTH",
"159 616 OFFCURVE",
"279 744 OFFCURVE",
"434 762 CURVE",
"483 765 LINE",
"495 765 OFFCURVE",
"501 770 OFFCURVE",
"501 782 CURVE",
"508 832 LINE",
"527 1034 OFFCURVE",
"698 1187 OFFCURVE",
"902 1187 CURVE SMOOTH",
"1103 1187 OFFCURVE",
"1277 1034 OFFCURVE",
"1298 832 CURVE SMOOTH",
"1305 778 LINE",
"1305 767 OFFCURVE",
"1310 762 OFFCURVE",
"1321 762 CURVE SMOOTH",
"1472 762 LINE SMOOTH",
"1637 762 OFFCURVE",
"1778 624 OFFCURVE",
"1778 461 CURVE SMOOTH",
"1778 299 OFFCURVE",
"1648 163 OFFCURVE",
"1490 155 CURVE",
"1478 155 OFFCURVE",
"1472 150 OFFCURVE",
"1472 138 CURVE SMOOTH",
"1472 14 LINE SMOOTH",
"1472 3 OFFCURVE",
"1478 -2 OFFCURVE",
"1490 -2 CURVE SMOOTH",
"1738 6 OFFCURVE",
"1935 212 OFFCURVE",
"1935 461 CURVE SMOOTH",
"1935 716 OFFCURVE",
"1727 919 OFFCURVE",
"1472 919 CURVE SMOOTH",
"1442 919 LINE",
"1382 1168 OFFCURVE",
"1159 1345 OFFCURVE",
"902 1345 CURVE SMOOTH",
"639 1345 OFFCURVE",
"413 1163 OFFCURVE",
"355 909 CURVE",
"151 862 OFFCURVE",
"0 677 OFFCURVE",
"0 461 CURVE SMOOTH",
"0 212 OFFCURVE",
"198 9 OFFCURVE",
"447 -2 CURVE",
"459 -2 OFFCURVE",
"463 3 OFFCURVE",
"463 14 CURVE SMOOTH"
);
},
{
closed = 1;
nodes = (
"503 -144 LINE",
"501 -150 OFFCURVE",
"500 -157 OFFCURVE",
"500 -163 CURVE SMOOTH",
"500 -190 OFFCURVE",
"516 -227 OFFCURVE",
"560 -240 CURVE",
"562 -240 OFFCURVE",
"565 -240 OFFCURVE",
"570 -242 CURVE SMOOTH",
"575 -244 OFFCURVE",
"578 -244 OFFCURVE",
"580 -244 CURVE SMOOTH",
"621 -244 OFFCURVE",
"646 -224 OFFCURVE",
"657 -185 CURVE SMOOTH",
"809 350 LINE SMOOTH",
"822 396 OFFCURVE",
"796 438 OFFCURVE",
"752 446 CURVE",
"743 448 OFFCURVE",
"737 449 OFFCURVE",
"729 449 CURVE SMOOTH",
"704 449 OFFCURVE",
"668 433 OFFCURVE",
"655 394 CURVE"
);
},
{
closed = 1;
nodes = (
"745 -425 LINE SMOOTH",
"740 -443 OFFCURVE",
"737 -465 OFFCURVE",
"750 -486 CURVE SMOOTH",
"762 -504 OFFCURVE",
"776 -517 OFFCURVE",
"798 -522 CURVE",
"804 -525 OFFCURVE",
"812 -527 OFFCURVE",
"822 -527 CURVE SMOOTH",
"855 -527 OFFCURVE",
"889 -502 OFFCURVE",
"896 -470 CURVE",
"1123 350 LINE SMOOTH",
"1135 394 OFFCURVE",
"1112 435 OFFCURVE",
"1071 446 CURVE",
"1062 448 OFFCURVE",
"1054 449 OFFCURVE",
"1046 449 CURVE SMOOTH",
"1018 449 OFFCURVE",
"981 433 OFFCURVE",
"972 394 CURVE"
);
},
{
closed = 1;
nodes = (
"1133 -144 LINE SMOOTH",
"1131 -152 OFFCURVE",
"1130 -159 OFFCURVE",
"1130 -165 CURVE SMOOTH",
"1130 -190 OFFCURVE",
"1146 -229 OFFCURVE",
"1187 -240 CURVE",
"1210 -244 LINE",
"1244 -244 OFFCURVE",
"1277 -222 OFFCURVE",
"1284 -185 CURVE",
"1436 350 LINE",
"1437 358 OFFCURVE",
"1439 366 OFFCURVE",
"1439 374 CURVE SMOOTH",
"1439 400 OFFCURVE",
"1423 435 OFFCURVE",
"1382 446 CURVE",
"1373 448 OFFCURVE",
"1365 449 OFFCURVE",
"1357 449 CURVE SMOOTH",
"1331 449 OFFCURVE",
"1296 433 OFFCURVE",
"1285 394 CURVE SMOOTH"
);
}
);
width = 1935;
}
);
unicode = F019;
},
{
glyphname = uniF01A;
lastChange = "2014-05-03 20:15:55 +0000";
layers = (
{
layerId = "8BEE18A2-62EC-4A69-8B77-4987BEDA7528";
name = Regular;
paths = (
{
closed = 1;
nodes = (
"465 139 LINE SMOOTH",
"465 150 OFFCURVE",
"460 155 OFFCURVE",
"448 155 CURVE",
"289 164 OFFCURVE",
"163 297 OFFCURVE",
"163 459 CURVE SMOOTH",
"163 617 OFFCURVE",
"281 748 OFFCURVE",
"439 761 CURVE",
"488 768 LINE",
"498 768 OFFCURVE",
"503 773 OFFCURVE",
"503 781 CURVE",
"509 832 LINE SMOOTH",
"529 1036 OFFCURVE",
"700 1188 OFFCURVE",
"905 1188 CURVE SMOOTH",
"1110 1188 OFFCURVE",
"1283 1037 OFFCURVE",
"1302 835 CURVE",
"1309 781 LINE",
"1312 770 OFFCURVE",
"1319 765 OFFCURVE",
"1329 765 CURVE SMOOTH",
"1481 765 LINE SMOOTH",
"1646 765 OFFCURVE",
"1784 625 OFFCURVE",
"1784 459 CURVE SMOOTH",
"1784 300 OFFCURVE",
"1655 167 OFFCURVE",
"1498 155 CURVE",
"1486 155 OFFCURVE",
"1481 150 OFFCURVE",
"1481 139 CURVE SMOOTH",
"1481 14 LINE SMOOTH",
"1481 3 OFFCURVE",
"1486 -2 OFFCURVE",
"1498 -2 CURVE SMOOTH",
"1747 6 OFFCURVE",
"1941 210 OFFCURVE",
"1941 459 CURVE SMOOTH",
"1941 715 OFFCURVE",
"1738 922 OFFCURVE",
"1481 922 CURVE SMOOTH",
"1450 922 LINE",
"1389 1174 OFFCURVE",
"1166 1349 OFFCURVE",
"905 1349 CURVE SMOOTH",
"641 1349 OFFCURVE",
"416 1165 OFFCURVE",
"361 909 CURVE",
"151 861 OFFCURVE",
"0 676 OFFCURVE",
"0 459 CURVE SMOOTH",
"0 210 OFFCURVE",
"199 9 OFFCURVE",
"448 -2 CURVE",
"460 -2 OFFCURVE",
"465 3 OFFCURVE",
"465 14 CURVE SMOOTH"
);
},
{
closed = 1;
nodes = (
"632 297 LINE",
"631 290 OFFCURVE",
"629 283 OFFCURVE",
"629 277 CURVE SMOOTH",
"629 251 OFFCURVE",
"645 213 OFFCURVE",
"690 200 CURVE",
"734 182 OFFCURVE",
"775 206 OFFCURVE",
"788 257 CURVE SMOOTH",
"811 351 LINE",
"824 395 OFFCURVE",
"798 436 OFFCURVE",
"757 448 CURVE",
"749 449 OFFCURVE",
"741 451 OFFCURVE",
"733 451 CURVE SMOOTH",
"706 451 OFFCURVE",
"672 434 OFFCURVE",
"660 395 CURVE SMOOTH"
);
},
{
closed = 1;
nodes = (
"1265 293 LINE",
"1263 285 OFFCURVE",
"1261 277 OFFCURVE",
"1261 269 CURVE SMOOTH",
"1261 242 OFFCURVE",
"1278 208 OFFCURVE",
"1319 196 CURVE SMOOTH",
"1330 193 OFFCURVE",
"1340 191 OFFCURVE",
"1350 191 CURVE SMOOTH",
"1385 191 OFFCURVE",
"1409 211 OFFCURVE",
"1421 251 CURVE",
"1444 347 LINE SMOOTH",
"1449 366 OFFCURVE",
"1452 387 OFFCURVE",
"1437 408 CURVE",
"1426 426 OFFCURVE",
"1411 439 OFFCURVE",
"1389 444 CURVE SMOOTH",
"1381 446 OFFCURVE",
"1375 448 OFFCURVE",
"1366 446 CURVE",
"1339 448 OFFCURVE",
"1301 433 OFFCURVE",
"1293 389 CURVE"
);
},
{
closed = 1;
nodes = (
"872 4 LINE SMOOTH",
"870 -4 OFFCURVE",
"869 -11 OFFCURVE",
"869 -19 CURVE SMOOTH",
"869 -47 OFFCURVE",
"885 -84 OFFCURVE",
"930 -93 CURVE",
"941 -96 OFFCURVE",
"951 -98 OFFCURVE",
"959 -98 CURVE SMOOTH",
"992 -98 OFFCURVE",
"1015 -76 OFFCURVE",
"1026 -35 CURVE SMOOTH",
"1049 58 LINE",
"1063 103 OFFCURVE",
"1038 144 OFFCURVE",
"997 155 CURVE SMOOTH",
"953 168 OFFCURVE",
"910 142 OFFCURVE",
"898 101 CURVE SMOOTH"
);
},
{
closed = 1;
nodes = (
"509 -150 LINE",
"508 -158 OFFCURVE",
"506 -165 OFFCURVE",
"506 -172 CURVE SMOOTH",
"506 -196 OFFCURVE",
"521 -236 OFFCURVE",
"565 -249 CURVE",
"575 -250 OFFCURVE",
"585 -252 OFFCURVE",
"593 -252 CURVE SMOOTH",
"629 -252 OFFCURVE",
"652 -232 OFFCURVE",
"664 -191 CURVE",
"687 -96 LINE",
"700 -52 OFFCURVE",
"673 -11 OFFCURVE",
"632 1 CURVE SMOOTH",
"588 14 OFFCURVE",
"547 -12 OFFCURVE",
"535 -53 CURVE SMOOTH"
);
},
{
closed = 1;
nodes = (
"1135 -153 LINE",
"1133 -162 OFFCURVE",
"1132 -168 OFFCURVE",
"1132 -176 CURVE",
"1133 -203 OFFCURVE",
"1150 -244 OFFCURVE",
"1191 -252 CURVE",
"1199 -254 OFFCURVE",
"1207 -255 OFFCURVE",
"1215 -255 CURVE SMOOTH",
"1242 -255 OFFCURVE",
"1278 -244 OFFCURVE",
"1289 -198 CURVE SMOOTH",
"1316 -99 LINE SMOOTH",
"1327 -58 OFFCURVE",
"1302 -15 OFFCURVE",
"1258 -2 CURVE SMOOTH",
"1217 9 OFFCURVE",
"1174 -15 OFFCURVE",
"1161 -60 CURVE SMOOTH"
);
},
{
closed = 1;
nodes = (
"747 -442 LINE",
"746 -451 OFFCURVE",
"744 -457 OFFCURVE",
"744 -465 CURVE SMOOTH",
"744 -492 OFFCURVE",
"760 -533 OFFCURVE",
"805 -541 CURVE",
"813 -543 OFFCURVE",
"820 -544 OFFCURVE",
"828 -544 CURVE SMOOTH",
"854 -544 OFFCURVE",
"890 -533 OFFCURVE",
"902 -487 CURVE SMOOTH",
"926 -390 LINE",
"939 -346 OFFCURVE",
"913 -303 OFFCURVE",
"872 -291 CURVE SMOOTH",
"828 -278 OFFCURVE",
"785 -305 OFFCURVE",
"774 -349 CURVE"
);
}
);
width = 1941;
}
);
unicode = F01A;
},
{
glyphname = uniF01B;
lastChange = "2014-05-03 20:16:06 +0000";
layers = (
{
layerId = "8BEE18A2-62EC-4A69-8B77-4987BEDA7528";
name = Regular;
paths = (
{
closed = 1;
nodes = (
"463 138 LINE SMOOTH",
"463 150 OFFCURVE",
"458 155 OFFCURVE",
"447 155 CURVE",
"288 163 OFFCURVE",
"159 300 OFFCURVE",
"159 458 CURVE SMOOTH",
"159 615 OFFCURVE",
"278 746 OFFCURVE",
"434 759 CURVE",
"483 765 LINE",
"494 765 OFFCURVE",
"501 770 OFFCURVE",
"501 782 CURVE",
"507 829 LINE SMOOTH",
"527 1034 OFFCURVE",
"697 1188 OFFCURVE",
"902 1188 CURVE SMOOTH",
"1103 1188 OFFCURVE",
"1277 1034 OFFCURVE",
"1298 832 CURVE SMOOTH",
"1305 778 LINE",
"1305 767 OFFCURVE",
"1310 762 OFFCURVE",
"1321 762 CURVE SMOOTH",
"1472 762 LINE SMOOTH",
"1640 762 OFFCURVE",
"1778 623 OFFCURVE",
"1778 458 CURVE SMOOTH",
"1778 300 OFFCURVE",
"1648 163 OFFCURVE",
"1490 155 CURVE",
"1478 155 OFFCURVE",
"1472 150 OFFCURVE",
"1472 138 CURVE SMOOTH",
"1472 14 LINE SMOOTH",
"1472 3 OFFCURVE",
"1478 -2 OFFCURVE",
"1490 -2 CURVE SMOOTH",
"1738 6 OFFCURVE",
"1935 210 OFFCURVE",
"1935 458 CURVE SMOOTH",
"1935 713 OFFCURVE",
"1727 919 OFFCURVE",
"1472 919 CURVE SMOOTH",
"1442 919 LINE",
"1382 1168 OFFCURVE",
"1159 1345 OFFCURVE",
"902 1345 CURVE SMOOTH",
"638 1345 OFFCURVE",
"413 1163 OFFCURVE",
"355 909 CURVE",
"147 857 OFFCURVE",
"0 675 OFFCURVE",
"0 458 CURVE SMOOTH",
"0 210 OFFCURVE",
"198 6 OFFCURVE",
"447 -2 CURVE SMOOTH",
"458 -2 OFFCURVE",
"463 3 OFFCURVE",
"463 14 CURVE SMOOTH"
);
},
{
closed = 1;
nodes = (
"900 276 OFFCURVE",
"892 256 OFFCURVE",
"892 235 CURVE SMOOTH",
"892 191 OFFCURVE",
"928 158 OFFCURVE",
"969 158 CURVE SMOOTH",
"1013 158 OFFCURVE",
"1049 191 OFFCURVE",
"1049 235 CURVE SMOOTH",
"1049 279 OFFCURVE",
"1013 314 OFFCURVE",
"969 314 CURVE SMOOTH",
"948 314 OFFCURVE",
"930 305 OFFCURVE",
"915 291 CURVE SMOOTH"
);
},
{
closed = 1;
nodes = (
"594 34 OFFCURVE",
"627 -2 OFFCURVE",
"671 -2 CURVE SMOOTH",
"715 -2 OFFCURVE",
"748 34 OFFCURVE",
"748 78 CURVE SMOOTH",
"748 119 OFFCURVE",
"715 155 OFFCURVE",
"671 155 CURVE SMOOTH",
"627 155 OFFCURVE",
"594 119 OFFCURVE",
"594 78 CURVE SMOOTH"
);
},
{
closed = 1;
nodes = (
"1193 34 OFFCURVE",
"1228 -2 OFFCURVE",
"1272 -2 CURVE SMOOTH",
"1316 -2 OFFCURVE",
"1349 34 OFFCURVE",
"1349 78 CURVE SMOOTH",
"1349 119 OFFCURVE",
"1316 155 OFFCURVE",
"1272 155 CURVE SMOOTH",
"1228 155 OFFCURVE",
"1193 119 OFFCURVE",
"1193 78 CURVE SMOOTH"
);
},
{
closed = 1;
nodes = (
"900 -61 OFFCURVE",
"892 -81 OFFCURVE",
"892 -102 CURVE SMOOTH",
"892 -146 OFFCURVE",
"928 -181 OFFCURVE",
"969 -181 CURVE SMOOTH",
"1013 -181 OFFCURVE",
"1049 -146 OFFCURVE",
"1049 -102 CURVE SMOOTH",
"1049 -58 OFFCURVE",
"1013 -22 OFFCURVE",
"969 -22 CURVE SMOOTH",
"948 -22 OFFCURVE",
"930 -30 OFFCURVE",
"915 -45 CURVE SMOOTH"
);
},
{
closed = 1;
nodes = (
"602 -220 OFFCURVE",
"594 -240 OFFCURVE",
"594 -261 CURVE SMOOTH",
"594 -305 OFFCURVE",
"627 -338 OFFCURVE",
"671 -338 CURVE SMOOTH",
"715 -338 OFFCURVE",
"748 -305 OFFCURVE",
"748 -261 CURVE SMOOTH",
"748 -217 OFFCURVE",
"715 -184 OFFCURVE",
"671 -184 CURVE SMOOTH",
"650 -184 OFFCURVE",
"632 -191 OFFCURVE",
"617 -205 CURVE SMOOTH"
);
},
{
closed = 1;
nodes = (
"1202 -220 OFFCURVE",
"1193 -240 OFFCURVE",
"1193 -261 CURVE SMOOTH",
"1193 -305 OFFCURVE",
"1228 -338 OFFCURVE",
"1272 -338 CURVE SMOOTH",
"1316 -338 OFFCURVE",
"1349 -305 OFFCURVE",
"1349 -261 CURVE SMOOTH",
"1349 -217 OFFCURVE",
"1316 -184 OFFCURVE",
"1272 -184 CURVE SMOOTH",
"1251 -184 OFFCURVE",
"1231 -191 OFFCURVE",
"1216 -205 CURVE"
);
},
{
closed = 1;
nodes = (
"900 -403 OFFCURVE",
"892 -423 OFFCURVE",
"892 -444 CURVE SMOOTH",
"892 -488 OFFCURVE",
"928 -521 OFFCURVE",
"969 -521 CURVE SMOOTH",
"1013 -521 OFFCURVE",
"1049 -488 OFFCURVE",
"1049 -444 CURVE SMOOTH",
"1049 -400 OFFCURVE",
"1013 -364 OFFCURVE",
"969 -364 CURVE SMOOTH",
"948 -364 OFFCURVE",
"930 -372 OFFCURVE",
"915 -387 CURVE SMOOTH"
);
}
);
width = 1935;
}
);
unicode = F01B;
},
{
glyphname = uniF01C;
lastChange = "2014-05-03 20:16:15 +0000";
layers = (
{
layerId = "8BEE18A2-62EC-4A69-8B77-4987BEDA7528";
name = Regular;
paths = (
{
closed = 1;
nodes = (
"463 138 LINE SMOOTH",
"463 150 OFFCURVE",
"458 155 OFFCURVE",
"447 155 CURVE",
"288 163 OFFCURVE",
"159 299 OFFCURVE",
"159 461 CURVE SMOOTH",
"159 619 OFFCURVE",
"281 755 OFFCURVE",
"434 762 CURVE SMOOTH",
"483 765 LINE",
"494 765 OFFCURVE",
"501 770 OFFCURVE",
"501 781 CURVE",
"507 832 LINE SMOOTH",
"527 1033 OFFCURVE",
"697 1187 OFFCURVE",
"902 1187 CURVE SMOOTH",
"1105 1187 OFFCURVE",
"1278 1033 OFFCURVE",
"1298 832 CURVE SMOOTH",
"1304 778 LINE",
"1304 767 OFFCURVE",
"1309 762 OFFCURVE",
"1321 762 CURVE SMOOTH",
"1471 762 LINE SMOOTH",
"1636 762 OFFCURVE",
"1777 624 OFFCURVE",
"1777 461 CURVE SMOOTH",
"1777 299 OFFCURVE",
"1648 163 OFFCURVE",
"1489 155 CURVE",
"1478 155 OFFCURVE",
"1471 150 OFFCURVE",
"1471 138 CURVE SMOOTH",
"1471 14 LINE SMOOTH",
"1471 3 OFFCURVE",
"1478 -2 OFFCURVE",
"1489 -2 CURVE SMOOTH",
"1738 6 OFFCURVE",
"1934 212 OFFCURVE",
"1934 461 CURVE SMOOTH",
"1934 716 OFFCURVE",
"1726 919 OFFCURVE",
"1471 919 CURVE SMOOTH",
"1442 919 LINE",
"1381 1168 OFFCURVE",
"1159 1344 OFFCURVE",
"902 1344 CURVE SMOOTH",
"638 1344 OFFCURVE",
"412 1163 OFFCURVE",
"355 909 CURVE",
"151 862 OFFCURVE",
"0 677 OFFCURVE",
"0 461 CURVE SMOOTH",
"0 212 OFFCURVE",
"198 9 OFFCURVE",
"447 -2 CURVE",
"458 -2 OFFCURVE",
"463 3 OFFCURVE",
"463 14 CURVE SMOOTH"
);
},
{
closed = 1;
nodes = (
"1060 778 LINE",
"1000 718 OFFCURVE",
"969 669 OFFCURVE",
"969 628 CURVE SMOOTH",
"969 580 OFFCURVE",
"1010 541 OFFCURVE",
"1060 541 CURVE SMOOTH",
"1108 541 OFFCURVE",
"1147 580 OFFCURVE",
"1147 628 CURVE SMOOTH",
"1147 662 OFFCURVE",
"1109 721 OFFCURVE",
"1082 754 CURVE"
);
},
{
closed = 1;
nodes = (
"687 605 LINE",
"677 595 OFFCURVE",
"666 582 OFFCURVE",
"651 565 CURVE SMOOTH",
"622 531 OFFCURVE",
"553 431 OFFCURVE",
"553 379 CURVE SMOOTH",
"553 307 OFFCURVE",
"614 250 OFFCURVE",
"687 250 CURVE SMOOTH",
"761 250 OFFCURVE",
"818 305 OFFCURVE",
"818 379 CURVE SMOOTH",
"818 431 OFFCURVE",
"764 520 OFFCURVE",
"720 567 CURVE"
);
},
{
closed = 1;
nodes = (
"1049 353 LINE",
"1044 348 OFFCURVE",
"1036 340 OFFCURVE",
"1026 331 CURVE SMOOTH",
"1006 312 OFFCURVE",
"946 245 OFFCURVE",
"908 192 CURVE SMOOTH",
"869 138 OFFCURVE",
"831 61 OFFCURVE",
"831 7 CURVE SMOOTH",
"831 -115 OFFCURVE",
"929 -210 OFFCURVE",
"1049 -210 CURVE SMOOTH",
"1172 -210 OFFCURVE",
"1268 -112 OFFCURVE",
"1268 7 CURVE SMOOTH",
"1268 61 OFFCURVE",
"1234 135 OFFCURVE",
"1191 194 CURVE SMOOTH",
"1149 251 OFFCURVE",
"1103 304 OFFCURVE",
"1072 331 CURVE"
);
}
);
width = 1934;
}
);
unicode = F01C;
},
{
glyphname = uniF01D;
lastChange = "2014-05-03 20:16:23 +0000";
layers = (
{
layerId = "8BEE18A2-62EC-4A69-8B77-4987BEDA7528";
name = Regular;
paths = (
{
closed = 1;
nodes = (
"1473 923 LINE SMOOTH",
"1728 923 OFFCURVE",
"1936 717 OFFCURVE",
"1936 461 CURVE SMOOTH",
"1936 213 OFFCURVE",
"1739 6 OFFCURVE",
"1491 -2 CURVE SMOOTH",
"1479 -2 OFFCURVE",
"1473 3 OFFCURVE",
"1473 14 CURVE SMOOTH",
"1473 142 LINE SMOOTH",
"1473 154 OFFCURVE",
"1479 159 OFFCURVE",
"1491 159 CURVE",
"1653 170 OFFCURVE",
"1779 302 OFFCURVE",
"1779 461 CURVE SMOOTH",
"1779 627 OFFCURVE",
"1642 762 OFFCURVE",
"1473 762 CURVE SMOOTH",
"1322 762 LINE SMOOTH",
"1310 762 OFFCURVE",
"1305 767 OFFCURVE",
"1305 779 CURVE",
"1299 833 LINE SMOOTH",
"1277 1035 OFFCURVE",
"1104 1189 OFFCURVE",
"902 1189 CURVE SMOOTH",
"698 1189 OFFCURVE",
"527 1035 OFFCURVE",
"508 833 CURVE",
"501 785 LINE",
"501 774 OFFCURVE",
"495 769 OFFCURVE",
"483 769 CURVE",
"434 762 LINE SMOOTH",
"278 744 OFFCURVE",
"159 617 OFFCURVE",
"159 461 CURVE SMOOTH",
"159 322 OFFCURVE",
"256 198 OFFCURVE",
"389 165 CURVE",
"490 433 LINE",
"495 442 OFFCURVE",
"503 446 OFFCURVE",
"511 446 CURVE SMOOTH",
"786 446 LINE SMOOTH",
"801 446 OFFCURVE",
"805 440 OFFCURVE",
"799 427 CURVE",
"568 -6 LINE",
"771 -6 LINE SMOOTH",
"784 -6 OFFCURVE",
"789 -17 OFFCURVE",
"782 -25 CURVE",
"412 -513 LINE",
"386 -513 LINE",
"483 -160 LINE",
"284 -160 LINE SMOOTH",
"273 -160 OFFCURVE",
"268 -153 OFFCURVE",
"271 -140 CURVE",
"332 17 LINE",
"138 76 OFFCURVE",
"0 253 OFFCURVE",
"0 461 CURVE SMOOTH",
"0 678 OFFCURVE",
"151 863 OFFCURVE",
"355 910 CURVE",
"412 1165 OFFCURVE",
"639 1346 OFFCURVE",
"902 1346 CURVE SMOOTH",
"1160 1346 OFFCURVE",
"1382 1171 OFFCURVE",
"1443 923 CURVE"
);
},
{
closed = 1;
nodes = (
"1305 394 LINE SMOOTH",
"1318 438 OFFCURVE",
"1354 453 OFFCURVE",
"1381 453 CURVE SMOOTH",
"1387 453 OFFCURVE",
"1394 451 OFFCURVE",
"1402 450 CURVE",
"1446 437 OFFCURVE",
"1463 401 OFFCURVE",
"1463 373 CURVE SMOOTH",
"1463 366 OFFCURVE",
"1461 359 OFFCURVE",
"1460 353 CURVE",
"1433 256 LINE",
"1425 231 OFFCURVE",
"1412 213 OFFCURVE",
"1392 203 CURVE",
"1381 198 OFFCURVE",
"1371 195 OFFCURVE",
"1361 195 CURVE SMOOTH",
"1353 195 OFFCURVE",
"1345 196 OFFCURVE",
"1336 200 CURVE SMOOTH",
"1292 219 OFFCURVE",
"1276 253 OFFCURVE",
"1277 279 CURVE",
"1277 286 OFFCURVE",
"1277 292 OFFCURVE",
"1279 299 CURVE SMOOTH"
);
},
{
closed = 1;
nodes = (
"912 106 LINE",
"925 150 OFFCURVE",
"970 173 OFFCURVE",
"1011 162 CURVE SMOOTH",
"1055 149 OFFCURVE",
"1080 106 OFFCURVE",
"1068 65 CURVE SMOOTH",
"1040 -32 LINE SMOOTH",
"1027 -78 OFFCURVE",
"984 -99 OFFCURVE",
"943 -86 CURVE",
"902 -71 OFFCURVE",
"886 -38 OFFCURVE",
"886 -14 CURVE SMOOTH",
"886 -6 OFFCURVE",
"888 3 OFFCURVE",
"889 11 CURVE"
);
},
{
closed = 1;
nodes = (
"1178 -53 LINE",
"1186 -9 OFFCURVE",
"1230 16 OFFCURVE",
"1276 4 CURVE",
"1317 -9 OFFCURVE",
"1341 -52 OFFCURVE",
"1328 -96 CURVE",
"1305 -191 LINE",
"1297 -219 OFFCURVE",
"1284 -237 OFFCURVE",
"1266 -244 CURVE SMOOTH",
"1254 -249 OFFCURVE",
"1243 -251 OFFCURVE",
"1231 -251 CURVE SMOOTH",
"1224 -251 OFFCURVE",
"1218 -249 OFFCURVE",
"1209 -248 CURVE",
"1168 -235 OFFCURVE",
"1150 -196 OFFCURVE",
"1150 -168 CURVE SMOOTH",
"1150 -162 OFFCURVE",
"1150 -155 OFFCURVE",
"1152 -150 CURVE"
);
},
{
closed = 1;
nodes = (
"789 -341 LINE SMOOTH",
"802 -297 OFFCURVE",
"845 -272 OFFCURVE",
"886 -284 CURVE SMOOTH",
"930 -297 OFFCURVE",
"955 -340 OFFCURVE",
"943 -381 CURVE SMOOTH",
"917 -479 LINE SMOOTH",
"911 -502 OFFCURVE",
"897 -519 OFFCURVE",
"878 -528 CURVE",
"866 -533 OFFCURVE",
"855 -537 OFFCURVE",
"843 -537 CURVE SMOOTH",
"835 -537 OFFCURVE",
"827 -535 OFFCURVE",
"819 -533 CURVE",
"778 -520 OFFCURVE",
"761 -484 OFFCURVE",
"761 -459 CURVE SMOOTH",
"761 -451 OFFCURVE",
"763 -443 OFFCURVE",
"764 -435 CURVE"
);
}
);
width = 1936;
}
);
unicode = F01D;
},
{
glyphname = uniF01E;
lastChange = "2014-05-03 20:18:00 +0000";
layers = (
{
layerId = "8BEE18A2-62EC-4A69-8B77-4987BEDA7528";
name = Regular;
paths = (
{
closed = 1;
nodes = (
"1473 923 LINE SMOOTH",
"1729 923 OFFCURVE",
"1937 717 OFFCURVE",
"1937 461 CURVE SMOOTH",
"1937 212 OFFCURVE",
"1740 6 OFFCURVE",
"1491 -2 CURVE SMOOTH",
"1480 -2 OFFCURVE",
"1473 3 OFFCURVE",
"1473 14 CURVE SMOOTH",
"1473 142 LINE SMOOTH",
"1473 153 OFFCURVE",
"1480 158 OFFCURVE",
"1491 158 CURVE",
"1654 170 OFFCURVE",
"1780 302 OFFCURVE",
"1780 461 CURVE SMOOTH",
"1780 627 OFFCURVE",
"1642 763 OFFCURVE",
"1473 763 CURVE SMOOTH",
"1323 763 LINE SMOOTH",
"1311 763 OFFCURVE",
"1306 768 OFFCURVE",
"1306 779 CURVE",
"1300 833 LINE SMOOTH",
"1278 1035 OFFCURVE",
"1105 1189 OFFCURVE",
"903 1189 CURVE SMOOTH",
"698 1189 OFFCURVE",
"528 1035 OFFCURVE",
"508 833 CURVE SMOOTH",
"502 786 LINE",
"502 774 OFFCURVE",
"495 769 OFFCURVE",
"484 769 CURVE",
"435 763 LINE SMOOTH",
"279 745 OFFCURVE",
"159 617 OFFCURVE",
"159 461 CURVE SMOOTH",
"159 322 OFFCURVE",
"258 198 OFFCURVE",
"390 165 CURVE",
"490 433 LINE",
"495 442 OFFCURVE",
"503 447 OFFCURVE",
"512 447 CURVE SMOOTH",
"787 447 LINE SMOOTH",
"802 447 OFFCURVE",
"806 440 OFFCURVE",
"800 427 CURVE",
"569 -6 LINE",
"772 -6 LINE SMOOTH",
"785 -6 OFFCURVE",
"790 -17 OFFCURVE",
"784 -25 CURVE",
"418 -562 LINE",
"392 -562 LINE",
"484 -160 LINE",
"285 -160 LINE SMOOTH",
"274 -160 OFFCURVE",
"269 -153 OFFCURVE",
"272 -140 CURVE",
"333 17 LINE",
"138 76 OFFCURVE",
"0 253 OFFCURVE",
"0 461 CURVE SMOOTH",
"0 678 OFFCURVE",
"151 863 OFFCURVE",
"356 910 CURVE",
"413 1164 OFFCURVE",
"639 1346 OFFCURVE",
"903 1346 CURVE SMOOTH",
"1160 1346 OFFCURVE",
"1383 1171 OFFCURVE",
"1444 923 CURVE"
);
},
{
closed = 1;
nodes = (
"974 394 LINE SMOOTH",
"985 435 OFFCURVE",
"1021 450 OFFCURVE",
"1047 450 CURVE SMOOTH",
"1055 450 OFFCURVE",
"1064 448 OFFCURVE",
"1072 447 CURVE",
"1113 435 OFFCURVE",
"1136 395 OFFCURVE",
"1124 350 CURVE SMOOTH",
"914 -461 LINE SMOOTH",
"902 -508 OFFCURVE",
"863 -520 OFFCURVE",
"838 -520 CURVE SMOOTH",
"830 -520 OFFCURVE",
"824 -518 OFFCURVE",
"815 -517 CURVE",
"771 -504 OFFCURVE",
"760 -471 OFFCURVE",
"760 -445 CURVE SMOOTH",
"760 -436 OFFCURVE",
"761 -428 OFFCURVE",
"763 -420 CURVE SMOOTH"
);
},
{
closed = 1;
nodes = (
"1287 394 LINE SMOOTH",
"1298 436 OFFCURVE",
"1332 450 OFFCURVE",
"1359 450 CURVE SMOOTH",
"1367 450 OFFCURVE",
"1375 448 OFFCURVE",
"1383 447 CURVE",
"1424 435 OFFCURVE",
"1441 399 OFFCURVE",
"1441 375 CURVE SMOOTH",
"1441 366 OFFCURVE",
"1439 358 OFFCURVE",
"1437 350 CURVE SMOOTH",
"1302 -179 LINE SMOOTH",
"1295 -207 OFFCURVE",
"1281 -225 OFFCURVE",
"1263 -233 CURVE SMOOTH",
"1251 -238 OFFCURVE",
"1241 -240 OFFCURVE",
"1233 -240 CURVE SMOOTH",
"1223 -240 OFFCURVE",
"1214 -238 OFFCURVE",
"1205 -235 CURVE",
"1184 -227 OFFCURVE",
"1169 -212 OFFCURVE",
"1158 -194 CURVE SMOOTH",
"1151 -182 OFFCURVE",
"1148 -171 OFFCURVE",
"1148 -159 CURVE SMOOTH",
"1148 -153 OFFCURVE",
"1150 -146 OFFCURVE",
"1151 -138 CURVE"
);
}
);
width = 1937;
}
);
unicode = F01E;
},
{
glyphname = uniF021;
lastChange = "2014-05-03 20:17:51 +0000";
layers = (
{
layerId = "8BEE18A2-62EC-4A69-8B77-4987BEDA7528";
name = Regular;
paths = (
{
closed = 1;
nodes = (
"1429 790 LINE SMOOTH",
"1469 790 OFFCURVE",
"1500 823 OFFCURVE",
"1500 864 CURVE SMOOTH",
"1500 904 OFFCURVE",
"1469 936 OFFCURVE",
"1429 936 CURVE SMOOTH",
"300 936 LINE SMOOTH",
"280 936 OFFCURVE",
"262 929 OFFCURVE",
"248 915 CURVE SMOOTH",
"233 901 OFFCURVE",
"226 883 OFFCURVE",
"226 864 CURVE SMOOTH",
"226 823 OFFCURVE",
"259 790 OFFCURVE",
"300 790 CURVE SMOOTH"
);
},
{
closed = 1;
nodes = (
"1203 522 LINE SMOOTH",
"1244 522 OFFCURVE",
"1274 552 OFFCURVE",
"1274 593 CURVE SMOOTH",
"1274 636 OFFCURVE",
"1244 667 OFFCURVE",
"1203 667 CURVE SMOOTH",
"75 667 LINE SMOOTH",
"33 667 OFFCURVE",
"0 635 OFFCURVE",
"0 593 CURVE SMOOTH",
"0 552 OFFCURVE",
"33 522 OFFCURVE",
"75 522 CURVE SMOOTH"
);
},
{
closed = 1;
nodes = (
"1859 522 LINE SMOOTH",
"1900 522 OFFCURVE",
"1933 552 OFFCURVE",
"1933 593 CURVE SMOOTH",
"1933 635 OFFCURVE",
"1902 667 OFFCURVE",
"1859 667 CURVE SMOOTH",
"1438 667 LINE SMOOTH",
"1394 667 OFFCURVE",
"1364 636 OFFCURVE",
"1364 593 CURVE SMOOTH",
"1364 552 OFFCURVE",
"1394 522 OFFCURVE",
"1438 522 CURVE SMOOTH"
);
},
{
closed = 1;
nodes = (
"1579 254 LINE SMOOTH",
"1620 254 OFFCURVE",
"1653 287 OFFCURVE",
"1653 328 CURVE SMOOTH",
"1653 369 OFFCURVE",
"1620 399 OFFCURVE",
"1579 399 CURVE SMOOTH",
"450 399 LINE SMOOTH",
"431 399 OFFCURVE",
"413 393 OFFCURVE",
"399 379 CURVE SMOOTH",
"384 365 OFFCURVE",
"376 347 OFFCURVE",
"376 328 CURVE SMOOTH",
"376 287 OFFCURVE",
"410 254 OFFCURVE",
"450 254 CURVE SMOOTH"
);
}
);
width = 1933;
}
);
unicode = F021;
},
{
glyphname = uniF022;
lastChange = "2014-05-03 20:17:24 +0000";
layers = (
{
layerId = "8BEE18A2-62EC-4A69-8B77-4987BEDA7528";
name = Regular;
paths = (
{
closed = 1;
nodes = (
"237 590 LINE",
"284 748 OFFCURVE",
"417 872 OFFCURVE",
"576 910 CURVE",
"630 1163 OFFCURVE",
"854 1345 OFFCURVE",
"1118 1345 CURVE SMOOTH",
"1198 1345 OFFCURVE",
"1270 1330 OFFCURVE",
"1334 1303 CURVE",
"1445 1486 OFFCURVE",
"1624 1542 OFFCURVE",
"1753 1542 CURVE SMOOTH",
"1791 1542 OFFCURVE",
"1830 1537 OFFCURVE",
"1869 1527 CURVE",
"1943 1504 LINE",
"1954 1499 OFFCURVE",
"1959 1493 OFFCURVE",
"1956 1483 CURVE",
"1943 1425 LINE SMOOTH",
"1938 1401 OFFCURVE",
"1935 1376 OFFCURVE",
"1935 1352 CURVE SMOOTH",
"1935 1236 OFFCURVE",
"2007 1088 OFFCURVE",
"2175 1037 CURVE SMOOTH",
"2231 1018 LINE",
"2239 1013 OFFCURVE",
"2244 1008 OFFCURVE",
"2244 1003 CURVE SMOOTH",
"2244 1001 OFFCURVE",
"2244 998 OFFCURVE",
"2242 996 CURVE",
"2228 933 LINE",
"2203 839 OFFCURVE",
"2157 759 OFFCURVE",
"2087 692 CURVE",
"2129 621 OFFCURVE",
"2151 545 OFFCURVE",
"2151 461 CURVE SMOOTH",
"2151 206 OFFCURVE",
"1944 -2 OFFCURVE",
"1689 -2 CURVE SMOOTH",
"1044 -2 LINE SMOOTH",
"1032 -2 OFFCURVE",
"1028 3 OFFCURVE",
"1028 14 CURVE SMOOTH",
"1028 142 LINE SMOOTH",
"1028 153 OFFCURVE",
"1032 158 OFFCURVE",
"1044 158 CURVE SMOOTH",
"1689 158 LINE SMOOTH",
"1858 158 OFFCURVE",
"1994 296 OFFCURVE",
"1994 461 CURVE SMOOTH",
"1994 626 OFFCURVE",
"1858 762 OFFCURVE",
"1689 762 CURVE SMOOTH",
"1537 762 LINE SMOOTH",
"1525 762 OFFCURVE",
"1520 767 OFFCURVE",
"1520 779 CURVE",
"1514 833 LINE SMOOTH",
"1493 1037 OFFCURVE",
"1322 1188 OFFCURVE",
"1118 1188 CURVE SMOOTH",
"913 1188 OFFCURVE",
"743 1034 OFFCURVE",
"723 833 CURVE",
"716 785 LINE",
"716 774 OFFCURVE",
"710 769 OFFCURVE",
"698 769 CURVE",
"649 762 LINE",
"538 754 OFFCURVE",
"445 680 OFFCURVE",
"404 581 CURVE",
"399 572 OFFCURVE",
"392 567 OFFCURVE",
"384 567 CURVE SMOOTH",
"250 567 LINE SMOOTH",
"240 567 OFFCURVE",
"235 571 OFFCURVE",
"235 579 CURVE SMOOTH",
"235 581 OFFCURVE",
"235 584 OFFCURVE",
"237 587 CURVE"
);
},
{
closed = 1;
nodes = (
"1689 923 LINE SMOOTH",
"1804 923 OFFCURVE",
"1902 887 OFFCURVE",
"1984 816 CURVE",
"2015 844 OFFCURVE",
"2038 875 OFFCURVE",
"2054 913 CURVE",
"1876 996 OFFCURVE",
"1777 1177 OFFCURVE",
"1777 1347 CURVE SMOOTH",
"1777 1358 OFFCURVE",
"1777 1368 OFFCURVE",
"1779 1380 CURVE",
"1769 1381 OFFCURVE",
"1759 1381 OFFCURVE",
"1750 1381 CURVE SMOOTH",
"1646 1381 OFFCURVE",
"1530 1329 OFFCURVE",
"1470 1222 CURVE",
"1569 1141 OFFCURVE",
"1633 1041 OFFCURVE",
"1658 923 CURVE"
);
},
{
closed = 1;
nodes = (
"1095 440 LINE SMOOTH",
"1142 440 OFFCURVE",
"1185 481 OFFCURVE",
"1185 531 CURVE SMOOTH",
"1185 582 OFFCURVE",
"1142 621 OFFCURVE",
"1095 621 CURVE SMOOTH",
"1070 621 OFFCURVE",
"1049 613 OFFCURVE",
"1031 595 CURVE",
"1014 581 OFFCURVE",
"995 574 OFFCURVE",
"973 574 CURVE SMOOTH",
"928 574 OFFCURVE",
"897 605 OFFCURVE",
"897 651 CURVE SMOOTH",
"897 672 OFFCURVE",
"903 692 OFFCURVE",
"918 708 CURVE SMOOTH",
"965 756 OFFCURVE",
"1024 779 OFFCURVE",
"1095 779 CURVE SMOOTH",
"1232 779 OFFCURVE",
"1344 669 OFFCURVE",
"1344 531 CURVE SMOOTH",
"1344 394 OFFCURVE",
"1232 283 OFFCURVE",
"1095 283 CURVE SMOOTH",
"82 283 LINE SMOOTH",
"59 283 OFFCURVE",
"40 291 OFFCURVE",
"25 305 CURVE SMOOTH",
"9 320 OFFCURVE",
"0 338 OFFCURVE",
"0 360 CURVE SMOOTH",
"0 404 OFFCURVE",
"38 440 OFFCURVE",
"82 440 CURVE SMOOTH"
);
},
{
closed = 1;
nodes = (
"618 158 LINE SMOOTH",
"756 158 OFFCURVE",
"867 45 OFFCURVE",
"867 -92 CURVE SMOOTH",
"867 -230 OFFCURVE",
"756 -341 OFFCURVE",
"618 -341 CURVE SMOOTH",
"549 -341 OFFCURVE",
"490 -317 OFFCURVE",
"441 -268 CURVE SMOOTH",
"427 -253 OFFCURVE",
"418 -233 OFFCURVE",
"418 -212 CURVE SMOOTH",
"418 -168 OFFCURVE",
"453 -133 OFFCURVE",
"497 -133 CURVE SMOOTH",
"518 -133 OFFCURVE",
"538 -142 OFFCURVE",
"554 -156 CURVE",
"572 -174 OFFCURVE",
"594 -184 OFFCURVE",
"618 -184 CURVE SMOOTH",
"666 -184 OFFCURVE",
"710 -143 OFFCURVE",
"710 -92 CURVE SMOOTH",
"710 -42 OFFCURVE",
"666 -2 OFFCURVE",
"618 -2 CURVE SMOOTH",
"82 -2 LINE SMOOTH",
"61 -2 OFFCURVE",
"41 6 OFFCURVE",
"25 22 CURVE SMOOTH",
"9 37 OFFCURVE",
"0 57 OFFCURVE",
"0 78 CURVE SMOOTH",
"0 122 OFFCURVE",
"38 158 OFFCURVE",
"82 158 CURVE SMOOTH"
);
}
);
width = 2244;
}
);
unicode = F022;
},
{
glyphname = uniF023;
lastChange = "2014-05-03 20:18:18 +0000";
layers = (
{
layerId = "8BEE18A2-62EC-4A69-8B77-4987BEDA7528";
name = Regular;
paths = (
{
closed = 1;
nodes = (
"345 588 LINE",
"393 747 OFFCURVE",
"522 870 OFFCURVE",
"685 908 CURVE",
"739 1164 OFFCURVE",
"965 1347 OFFCURVE",
"1229 1347 CURVE SMOOTH",
"1303 1347 OFFCURVE",
"1377 1333 OFFCURVE",
"1451 1302 CURVE",
"1560 1485 OFFCURVE",
"1739 1541 OFFCURVE",
"1869 1541 CURVE SMOOTH",
"1906 1541 OFFCURVE",
"1946 1536 OFFCURVE",
"1985 1526 CURVE",
"2062 1503 LINE",
"2074 1498 OFFCURVE",
"2079 1492 OFFCURVE",
"2075 1482 CURVE",
"2062 1425 LINE SMOOTH",
"2056 1397 OFFCURVE",
"2052 1370 OFFCURVE",
"2052 1344 CURVE SMOOTH",
"2051 1233 OFFCURVE",
"2120 1087 OFFCURVE",
"2290 1036 CURVE",
"2348 1016 LINE",
"2358 1013 OFFCURVE",
"2362 1008 OFFCURVE",
"2362 1001 CURVE SMOOTH",
"2362 1000 OFFCURVE",
"2362 997 OFFCURVE",
"2361 995 CURVE",
"2344 931 LINE SMOOTH",
"2317 829 OFFCURVE",
"2269 749 OFFCURVE",
"2203 690 CURVE",
"2244 618 OFFCURVE",
"2264 541 OFFCURVE",
"2264 459 CURVE SMOOTH",
"2264 203 OFFCURVE",
"2056 -2 OFFCURVE",
"1800 -2 CURVE SMOOTH",
"1155 -2 LINE SMOOTH",
"1144 -2 OFFCURVE",
"1139 3 OFFCURVE",
"1139 14 CURVE SMOOTH",
"1139 139 LINE SMOOTH",
"1139 150 OFFCURVE",
"1144 155 OFFCURVE",
"1155 155 CURVE SMOOTH",
"1800 155 LINE SMOOTH",
"1966 155 OFFCURVE",
"2105 295 OFFCURVE",
"2105 459 CURVE SMOOTH",
"2105 627 OFFCURVE",
"1969 764 OFFCURVE",
"1800 764 CURVE SMOOTH",
"1649 764 LINE SMOOTH",
"1637 764 OFFCURVE",
"1633 769 OFFCURVE",
"1633 780 CURVE",
"1626 834 LINE SMOOTH",
"1601 1036 OFFCURVE",
"1434 1187 OFFCURVE",
"1229 1187 CURVE SMOOTH",
"1024 1187 OFFCURVE",
"852 1034 OFFCURVE",
"832 831 CURVE SMOOTH",
"826 783 LINE",
"826 772 OFFCURVE",
"821 767 OFFCURVE",
"809 767 CURVE",
"758 760 LINE",
"648 752 OFFCURVE",
"555 678 OFFCURVE",
"514 578 CURVE",
"509 570 OFFCURVE",
"501 565 OFFCURVE",
"493 565 CURVE SMOOTH",
"360 565 LINE SMOOTH",
"348 565 OFFCURVE",
"343 570 OFFCURVE",
"343 578 CURVE SMOOTH",
"343 580 OFFCURVE",
"343 583 OFFCURVE",
"345 585 CURVE"
);
},
{
closed = 1;
nodes = (
"1800 921 LINE SMOOTH",
"1916 921 OFFCURVE",
"2015 885 OFFCURVE",
"2098 811 CURVE",
"2130 842 OFFCURVE",
"2154 877 OFFCURVE",
"2169 911 CURVE",
"1993 995 OFFCURVE",
"1893 1179 OFFCURVE",
"1893 1356 CURVE SMOOTH",
"1893 1379 LINE",
"1885 1380 OFFCURVE",
"1877 1380 OFFCURVE",
"1869 1380 CURVE SMOOTH",
"1764 1382 OFFCURVE",
"1651 1326 OFFCURVE",
"1585 1220 CURVE",
"1683 1136 OFFCURVE",
"1746 1036 OFFCURVE",
"1770 921 CURVE"
);
},
{
closed = 1;
nodes = (
"1206 437 LINE SMOOTH",
"1250 437 OFFCURVE",
"1283 404 OFFCURVE",
"1283 360 CURVE SMOOTH",
"1283 316 OFFCURVE",
"1250 280 OFFCURVE",
"1206 280 CURVE SMOOTH",
"326 280 LINE SMOOTH",
"305 280 OFFCURVE",
"285 288 OFFCURVE",
"270 304 CURVE",
"254 319 OFFCURVE",
"246 339 OFFCURVE",
"246 360 CURVE SMOOTH",
"246 404 OFFCURVE",
"282 437 OFFCURVE",
"326 437 CURVE SMOOTH"
);
},
{
closed = 1;
nodes = (
"960 155 LINE SMOOTH",
"1004 155 OFFCURVE",
"1037 122 OFFCURVE",
"1037 75 CURVE SMOOTH",
"1037 30 OFFCURVE",
"1004 -2 OFFCURVE",
"960 -2 CURVE SMOOTH",
"82 -2 LINE SMOOTH",
"36 -2 OFFCURVE",
"0 30 OFFCURVE",
"0 75 CURVE SMOOTH",
"0 121 OFFCURVE",
"36 155 OFFCURVE",
"82 155 CURVE SMOOTH"
);
},
{
closed = 1;
nodes = (
"1370 -137 LINE SMOOTH",
"1414 -137 OFFCURVE",
"1451 -170 OFFCURVE",
"1451 -214 CURVE SMOOTH",
"1451 -258 OFFCURVE",
"1414 -294 OFFCURVE",
"1370 -294 CURVE SMOOTH",
"490 -294 LINE SMOOTH",
"469 -294 OFFCURVE",
"449 -286 OFFCURVE",
"434 -270 CURVE",
"418 -255 OFFCURVE",
"410 -235 OFFCURVE",
"410 -214 CURVE SMOOTH",
"410 -170 OFFCURVE",
"446 -137 OFFCURVE",
"490 -137 CURVE SMOOTH"
);
}
);
width = 2362;
}
);
unicode = F023;
},
{
glyphname = uniF024;
lastChange = "2014-05-03 20:18:26 +0000";
layers = (
{
layerId = "8BEE18A2-62EC-4A69-8B77-4987BEDA7528";
name = Regular;
paths = (
{
closed = 1;
nodes = (
"1735 1497 LINE",
"1746 1492 OFFCURVE",
"1751 1485 OFFCURVE",
"1748 1477 CURVE",
"1735 1423 LINE",
"1730 1398 OFFCURVE",
"1727 1374 OFFCURVE",
"1728 1349 CURVE",
"1728 1233 OFFCURVE",
"1799 1082 OFFCURVE",
"1968 1031 CURVE SMOOTH",
"2020 1015 LINE SMOOTH",
"2030 1012 OFFCURVE",
"2035 1007 OFFCURVE",
"2035 1000 CURVE SMOOTH",
"2035 999 OFFCURVE",
"2035 995 OFFCURVE",
"2033 994 CURVE",
"2020 930 LINE",
"1997 836 OFFCURVE",
"1950 756 OFFCURVE",
"1876 686 CURVE",
"1917 614 OFFCURVE",
"1936 538 OFFCURVE",
"1936 461 CURVE SMOOTH",
"1936 212 OFFCURVE",
"1740 6 OFFCURVE",
"1491 -2 CURVE SMOOTH",
"1479 -2 OFFCURVE",
"1473 3 OFFCURVE",
"1473 14 CURVE SMOOTH",
"1473 139 LINE SMOOTH",
"1473 150 OFFCURVE",
"1479 155 OFFCURVE",
"1491 155 CURVE",
"1650 163 OFFCURVE",
"1779 299 OFFCURVE",
"1779 461 CURVE SMOOTH",
"1779 625 OFFCURVE",
"1638 763 OFFCURVE",
"1473 763 CURVE SMOOTH",
"1322 763 LINE SMOOTH",
"1311 763 OFFCURVE",
"1306 768 OFFCURVE",
"1306 779 CURVE",
"1299 833 LINE SMOOTH",
"1278 1035 OFFCURVE",
"1104 1189 OFFCURVE",
"903 1189 CURVE SMOOTH",
"698 1189 OFFCURVE",
"528 1035 OFFCURVE",
"508 833 CURVE",
"501 782 LINE",
"501 771 OFFCURVE",
"495 766 OFFCURVE",
"483 766 CURVE",
"434 763 LINE",
"279 745 OFFCURVE",
"159 617 OFFCURVE",
"159 461 CURVE SMOOTH",
"159 299 OFFCURVE",
"288 163 OFFCURVE",
"447 155 CURVE",
"459 155 OFFCURVE",
"464 150 OFFCURVE",
"464 139 CURVE SMOOTH",
"464 14 LINE SMOOTH",
"464 3 OFFCURVE",
"459 -2 OFFCURVE",
"447 -2 CURVE",
"198 9 OFFCURVE",
"0 212 OFFCURVE",
"0 461 CURVE SMOOTH",
"0 678 OFFCURVE",
"151 863 OFFCURVE",
"356 910 CURVE",
"413 1164 OFFCURVE",
"639 1346 OFFCURVE",
"903 1346 CURVE SMOOTH",
"980 1346 OFFCURVE",
"1053 1331 OFFCURVE",
"1124 1300 CURVE",
"1235 1484 OFFCURVE",
"1416 1538 OFFCURVE",
"1538 1538 CURVE SMOOTH",
"1579 1538 OFFCURVE",
"1620 1533 OFFCURVE",
"1661 1521 CURVE SMOOTH"
);
},
{
closed = 1;
nodes = (
"1473 920 LINE SMOOTH",
"1592 920 OFFCURVE",
"1692 884 OFFCURVE",
"1776 810 CURVE",
"1805 836 OFFCURVE",
"1828 869 OFFCURVE",
"1846 910 CURVE",
"1669 994 OFFCURVE",
"1571 1171 OFFCURVE",
"1571 1348 CURVE SMOOTH",
"1571 1377 LINE",
"1563 1379 OFFCURVE",
"1555 1379 OFFCURVE",
"1547 1379 CURVE SMOOTH",
"1437 1380 OFFCURVE",
"1322 1326 OFFCURVE",
"1262 1215 CURVE",
"1358 1135 OFFCURVE",
"1419 1036 OFFCURVE",
"1443 920 CURVE"
);
},
{
closed = 1;
nodes = (
"655 394 LINE",
"668 435 OFFCURVE",
"711 460 OFFCURVE",
"752 447 CURVE",
"796 438 OFFCURVE",
"822 397 OFFCURVE",
"809 350 CURVE SMOOTH",
"727 51 LINE SMOOTH",
"713 0 OFFCURVE",
"675 -21 OFFCURVE",
"627 -3 CURVE",
"586 9 OFFCURVE",
"570 45 OFFCURVE",
"570 69 CURVE SMOOTH",
"570 77 OFFCURVE",
"572 86 OFFCURVE",
"573 94 CURVE"
);
},
{
closed = 1;
nodes = (
"973 394 LINE SMOOTH",
"984 435 OFFCURVE",
"1027 460 OFFCURVE",
"1071 447 CURVE SMOOTH",
"1112 435 OFFCURVE",
"1136 395 OFFCURVE",
"1124 350 CURVE SMOOTH",
"970 -221 LINE SMOOTH",
"962 -249 OFFCURVE",
"949 -267 OFFCURVE",
"927 -275 CURVE",
"916 -280 OFFCURVE",
"904 -283 OFFCURVE",
"894 -283 CURVE SMOOTH",
"886 -283 OFFCURVE",
"880 -281 OFFCURVE",
"872 -278 CURVE",
"832 -265 OFFCURVE",
"813 -241 OFFCURVE",
"813 -206 CURVE SMOOTH",
"813 -198 OFFCURVE",
"814 -190 OFFCURVE",
"816 -182 CURVE SMOOTH"
);
},
{
closed = 1;
nodes = (
"1286 394 LINE SMOOTH",
"1298 436 OFFCURVE",
"1339 460 OFFCURVE",
"1383 447 CURVE SMOOTH",
"1424 435 OFFCURVE",
"1449 395 OFFCURVE",
"1437 350 CURVE SMOOTH",
"1355 54 LINE SMOOTH",
"1345 17 OFFCURVE",
"1320 -3 OFFCURVE",
"1284 -3 CURVE SMOOTH",
"1276 -3 OFFCURVE",
"1266 -1 OFFCURVE",
"1258 0 CURVE",
"1219 12 OFFCURVE",
"1201 45 OFFCURVE",
"1201 72 CURVE SMOOTH",
"1201 81 OFFCURVE",
"1202 89 OFFCURVE",
"1204 97 CURVE SMOOTH"
);
},
{
closed = 1;
nodes = (
"505 -177 OFFCURVE",
"501 -157 OFFCURVE",
"513 -137 CURVE",
"531 -96 OFFCURVE",
"577 -77 OFFCURVE",
"614 -96 CURVE",
"654 -111 OFFCURVE",
"672 -157 OFFCURVE",
"654 -198 CURVE",
"639 -237 OFFCURVE",
"591 -255 OFFCURVE",
"554 -237 CURVE",
"534 -229 OFFCURVE",
"519 -214 OFFCURVE",
"511 -195 CURVE"
);
},
{
closed = 1;
nodes = (
"1135 -186 OFFCURVE",
"1134 -177 OFFCURVE",
"1134 -167 CURVE SMOOTH",
"1134 -157 OFFCURVE",
"1135 -147 OFFCURVE",
"1140 -137 CURVE",
"1158 -96 OFFCURVE",
"1204 -77 OFFCURVE",
"1245 -96 CURVE SMOOTH",
"1283 -114 OFFCURVE",
"1299 -157 OFFCURVE",
"1284 -198 CURVE SMOOTH",
"1276 -218 OFFCURVE",
"1261 -231 OFFCURVE",
"1242 -239 CURVE",
"1232 -242 OFFCURVE",
"1222 -244 OFFCURVE",
"1214 -244 CURVE SMOOTH",
"1202 -244 OFFCURVE",
"1193 -242 OFFCURVE",
"1181 -237 CURVE SMOOTH",
"1163 -229 OFFCURVE",
"1148 -216 OFFCURVE",
"1140 -196 CURVE"
);
},
{
closed = 1;
nodes = (
"745 -472 OFFCURVE",
"744 -462 OFFCURVE",
"744 -453 CURVE SMOOTH",
"744 -432 OFFCURVE",
"755 -395 OFFCURVE",
"795 -378 CURVE SMOOTH",
"834 -362 OFFCURVE",
"876 -380 OFFCURVE",
"894 -421 CURVE SMOOTH",
"913 -462 OFFCURVE",
"891 -509 OFFCURVE",
"850 -524 CURVE",
"840 -527 OFFCURVE",
"831 -529 OFFCURVE",
"822 -529 CURVE SMOOTH",
"811 -529 OFFCURVE",
"801 -527 OFFCURVE",
"791 -522 CURVE",
"770 -514 OFFCURVE",
"757 -499 OFFCURVE",
"749 -480 CURVE"
);
}
);
width = 2035;
}
);
unicode = F024;
},
{
glyphname = uniF025;
lastChange = "2014-05-03 20:18:34 +0000";
layers = (
{
layerId = "8BEE18A2-62EC-4A69-8B77-4987BEDA7528";
name = Regular;
paths = (
{
closed = 1;
nodes = (
"1731 1504 LINE",
"1742 1499 OFFCURVE",
"1747 1492 OFFCURVE",
"1744 1483 CURVE",
"1731 1425 LINE SMOOTH",
"1726 1401 OFFCURVE",
"1722 1376 OFFCURVE",
"1722 1352 CURVE SMOOTH",
"1722 1235 OFFCURVE",
"1793 1085 OFFCURVE",
"1961 1037 CURVE SMOOTH",
"2015 1021 LINE SMOOTH",
"2025 1018 OFFCURVE",
"2030 1013 OFFCURVE",
"2030 1006 CURVE SMOOTH",
"2030 1005 OFFCURVE",
"2030 1001 OFFCURVE",
"2029 1000 CURVE",
"2015 933 LINE SMOOTH",
"1993 839 OFFCURVE",
"1945 759 OFFCURVE",
"1871 692 CURVE",
"1914 621 OFFCURVE",
"1935 544 OFFCURVE",
"1935 461 CURVE SMOOTH",
"1935 212 OFFCURVE",
"1739 6 OFFCURVE",
"1490 -2 CURVE SMOOTH",
"1478 -2 OFFCURVE",
"1472 3 OFFCURVE",
"1472 14 CURVE SMOOTH",
"1472 142 LINE SMOOTH",
"1472 153 OFFCURVE",
"1478 158 OFFCURVE",
"1490 158 CURVE",
"1652 170 OFFCURVE",
"1778 302 OFFCURVE",
"1778 461 CURVE SMOOTH",
"1778 626 OFFCURVE",
"1641 762 OFFCURVE",
"1472 762 CURVE SMOOTH",
"1321 762 LINE SMOOTH",
"1310 762 OFFCURVE",
"1305 767 OFFCURVE",
"1305 779 CURVE",
"1298 833 LINE SMOOTH",
"1277 1036 OFFCURVE",
"1105 1188 OFFCURVE",
"902 1188 CURVE SMOOTH",
"697 1188 OFFCURVE",
"527 1034 OFFCURVE",
"508 833 CURVE",
"501 785 LINE",
"501 774 OFFCURVE",
"494 769 OFFCURVE",
"483 769 CURVE",
"434 762 LINE",
"278 749 OFFCURVE",
"159 618 OFFCURVE",
"159 461 CURVE SMOOTH",
"159 302 OFFCURVE",
"285 170 OFFCURVE",
"447 158 CURVE",
"458 158 OFFCURVE",
"463 153 OFFCURVE",
"463 142 CURVE SMOOTH",
"463 14 LINE SMOOTH",
"463 3 OFFCURVE",
"458 -2 OFFCURVE",
"447 -2 CURVE",
"198 9 OFFCURVE",
"0 212 OFFCURVE",
"0 461 CURVE SMOOTH",
"0 677 OFFCURVE",
"151 862 OFFCURVE",
"355 910 CURVE",
"413 1165 OFFCURVE",
"639 1345 OFFCURVE",
"902 1345 CURVE SMOOTH",
"982 1345 OFFCURVE",
"1056 1330 OFFCURVE",
"1120 1303 CURVE",
"1231 1486 OFFCURVE",
"1415 1542 OFFCURVE",
"1541 1542 CURVE SMOOTH",
"1578 1542 OFFCURVE",
"1618 1537 OFFCURVE",
"1657 1527 CURVE"
);
},
{
closed = 1;
nodes = (
"1472 923 LINE SMOOTH",
"1585 923 OFFCURVE",
"1685 887 OFFCURVE",
"1772 813 CURVE",
"1803 844 OFFCURVE",
"1827 878 OFFCURVE",
"1842 913 CURVE",
"1665 1000 OFFCURVE",
"1567 1175 OFFCURVE",
"1567 1350 CURVE SMOOTH",
"1567 1379 LINE",
"1559 1381 OFFCURVE",
"1550 1381 OFFCURVE",
"1542 1381 CURVE SMOOTH",
"1436 1381 OFFCURVE",
"1321 1327 OFFCURVE",
"1257 1217 CURVE",
"1354 1137 OFFCURVE",
"1416 1039 OFFCURVE",
"1442 923 CURVE"
);
},
{
closed = 1;
nodes = (
"836 -380 LINE",
"808 -380 LINE",
"930 7 LINE",
"729 7 LINE SMOOTH",
"717 7 OFFCURVE",
"712 14 OFFCURVE",
"716 27 CURVE",
"917 561 LINE",
"922 569 OFFCURVE",
"928 574 OFFCURVE",
"937 574 CURVE SMOOTH",
"1212 574 LINE SMOOTH",
"1226 574 OFFCURVE",
"1231 567 OFFCURVE",
"1225 554 CURVE",
"1010 161 LINE",
"1215 161 LINE SMOOTH",
"1228 161 OFFCURVE",
"1231 150 OFFCURVE",
"1225 142 CURVE SMOOTH"
);
}
);
width = 2030;
}
);
unicode = F025;
},
{
glyphname = uniF026;
lastChange = "2014-05-03 20:18:42 +0000";
layers = (
{
layerId = "8BEE18A2-62EC-4A69-8B77-4987BEDA7528";
name = Regular;
paths = (
{
closed = 1;
nodes = (
"1740 1510 LINE",
"1752 1505 OFFCURVE",
"1757 1498 OFFCURVE",
"1753 1488 CURVE",
"1740 1434 LINE SMOOTH",
"1734 1408 OFFCURVE",
"1730 1381 OFFCURVE",
"1732 1357 CURVE",
"1732 1245 OFFCURVE",
"1804 1092 OFFCURVE",
"1974 1041 CURVE SMOOTH",
"2026 1025 LINE",
"2036 1021 OFFCURVE",
"2041 1017 OFFCURVE",
"2041 1010 CURVE SMOOTH",
"2041 1008 OFFCURVE",
"2041 1005 OFFCURVE",
"2039 1003 CURVE",
"2026 939 LINE SMOOTH",
"2005 846 OFFCURVE",
"1955 763 OFFCURVE",
"1878 694 CURVE",
"1921 620 OFFCURVE",
"1942 543 OFFCURVE",
"1942 459 CURVE SMOOTH",
"1942 211 OFFCURVE",
"1745 6 OFFCURVE",
"1495 -2 CURVE SMOOTH",
"1484 -2 OFFCURVE",
"1477 3 OFFCURVE",
"1477 14 CURVE SMOOTH",
"1477 139 LINE SMOOTH",
"1477 150 OFFCURVE",
"1484 155 OFFCURVE",
"1495 155 CURVE",
"1655 164 OFFCURVE",
"1785 302 OFFCURVE",
"1785 459 CURVE SMOOTH",
"1785 625 OFFCURVE",
"1646 765 OFFCURVE",
"1477 765 CURVE SMOOTH",
"1326 765 LINE SMOOTH",
"1314 765 OFFCURVE",
"1310 770 OFFCURVE",
"1310 782 CURVE",
"1303 836 LINE SMOOTH",
"1282 1038 OFFCURVE",
"1107 1192 OFFCURVE",
"905 1192 CURVE SMOOTH",
"700 1192 OFFCURVE",
"529 1038 OFFCURVE",
"509 832 CURVE SMOOTH",
"503 785 LINE",
"503 773 OFFCURVE",
"496 768 OFFCURVE",
"485 768 CURVE",
"435 762 LINE",
"279 749 OFFCURVE",
"159 617 OFFCURVE",
"159 459 CURVE SMOOTH",
"159 302 OFFCURVE",
"289 164 OFFCURVE",
"448 155 CURVE",
"460 155 OFFCURVE",
"465 150 OFFCURVE",
"465 139 CURVE SMOOTH",
"465 14 LINE SMOOTH",
"465 3 OFFCURVE",
"460 -2 OFFCURVE",
"448 -2 CURVE SMOOTH",
"199 6 OFFCURVE",
"0 211 OFFCURVE",
"0 459 CURVE SMOOTH",
"0 678 OFFCURVE",
"148 860 OFFCURVE",
"356 913 CURVE",
"414 1168 OFFCURVE",
"641 1350 OFFCURVE",
"905 1350 CURVE SMOOTH",
"978 1350 OFFCURVE",
"1050 1335 OFFCURVE",
"1124 1307 CURVE",
"1234 1492 OFFCURVE",
"1418 1549 OFFCURVE",
"1545 1549 CURVE SMOOTH",
"1586 1549 OFFCURVE",
"1625 1544 OFFCURVE",
"1666 1533 CURVE"
);
},
{
closed = 1;
nodes = (
"1477 923 LINE SMOOTH",
"1592 923 OFFCURVE",
"1692 887 OFFCURVE",
"1778 816 CURVE",
"1809 847 OFFCURVE",
"1834 882 OFFCURVE",
"1852 920 CURVE",
"1669 1003 OFFCURVE",
"1571 1181 OFFCURVE",
"1573 1358 CURVE SMOOTH",
"1573 1388 LINE",
"1563 1390 OFFCURVE",
"1553 1390 OFFCURVE",
"1545 1390 CURVE SMOOTH",
"1439 1391 OFFCURVE",
"1323 1334 OFFCURVE",
"1262 1222 CURVE",
"1356 1145 OFFCURVE",
"1418 1046 OFFCURVE",
"1448 923 CURVE"
);
},
{
closed = 1;
nodes = (
"659 395 LINE",
"672 435 OFFCURVE",
"715 460 OFFCURVE",
"756 447 CURVE",
"800 435 OFFCURVE",
"827 396 OFFCURVE",
"813 350 CURVE SMOOTH",
"787 266 LINE SMOOTH",
"774 222 OFFCURVE",
"728 201 OFFCURVE",
"690 212 CURVE SMOOTH",
"646 226 OFFCURVE",
"631 258 OFFCURVE",
"633 284 CURVE",
"633 293 OFFCURVE",
"635 301 OFFCURVE",
"636 309 CURVE"
);
},
{
closed = 1;
nodes = (
"1285 391 LINE SMOOTH",
"1298 434 OFFCURVE",
"1338 457 OFFCURVE",
"1382 444 CURVE SMOOTH",
"1423 432 OFFCURVE",
"1448 390 OFFCURVE",
"1436 347 CURVE SMOOTH",
"1413 263 LINE SMOOTH",
"1407 240 OFFCURVE",
"1393 224 OFFCURVE",
"1375 214 CURVE",
"1364 209 OFFCURVE",
"1353 206 OFFCURVE",
"1341 206 CURVE SMOOTH",
"1333 206 OFFCURVE",
"1325 208 OFFCURVE",
"1317 209 CURVE",
"1272 222 OFFCURVE",
"1256 257 OFFCURVE",
"1256 284 CURVE SMOOTH",
"1256 291 OFFCURVE",
"1258 297 OFFCURVE",
"1259 306 CURVE"
);
},
{
closed = 1;
nodes = (
"896 102 LINE",
"909 146 OFFCURVE",
"953 171 OFFCURVE",
"994 159 CURVE SMOOTH",
"1039 146 OFFCURVE",
"1063 103 OFFCURVE",
"1050 63 CURVE SMOOTH",
"1025 -21 LINE SMOOTH",
"1009 -75 OFFCURVE",
"967 -90 OFFCURVE",
"927 -79 CURVE",
"886 -71 OFFCURVE",
"870 -31 OFFCURVE",
"872 -7 CURVE",
"872 1 OFFCURVE",
"873 10 OFFCURVE",
"875 18 CURVE SMOOTH"
);
},
{
closed = 1;
nodes = (
"584 33 OFFCURVE",
"576 50 OFFCURVE",
"576 72 CURVE SMOOTH",
"576 116 OFFCURVE",
"608 149 OFFCURVE",
"652 149 CURVE SMOOTH",
"697 149 OFFCURVE",
"731 116 OFFCURVE",
"731 72 CURVE SMOOTH",
"731 28 OFFCURVE",
"697 -5 OFFCURVE",
"652 -5 CURVE SMOOTH",
"631 -5 OFFCURVE",
"613 3 OFFCURVE",
"599 18 CURVE SMOOTH"
);
},
{
closed = 1;
nodes = (
"1207 29 OFFCURVE",
"1199 47 OFFCURVE",
"1199 68 CURVE SMOOTH",
"1199 113 OFFCURVE",
"1232 145 OFFCURVE",
"1276 145 CURVE SMOOTH",
"1320 145 OFFCURVE",
"1353 113 OFFCURVE",
"1353 68 CURVE SMOOTH",
"1353 24 OFFCURVE",
"1320 -8 OFFCURVE",
"1276 -8 CURVE SMOOTH",
"1254 -8 OFFCURVE",
"1236 0 OFFCURVE",
"1222 15 CURVE"
);
},
{
closed = 1;
nodes = (
"520 -126 LINE SMOOTH",
"531 -81 OFFCURVE",
"576 -57 OFFCURVE",
"617 -69 CURVE SMOOTH",
"661 -82 OFFCURVE",
"683 -124 OFFCURVE",
"674 -165 CURVE SMOOTH",
"661 -222 LINE SMOOTH",
"648 -278 OFFCURVE",
"603 -289 OFFCURVE",
"564 -278 CURVE SMOOTH",
"523 -265 OFFCURVE",
"505 -227 OFFCURVE",
"505 -199 CURVE SMOOTH",
"505 -193 OFFCURVE",
"505 -186 OFFCURVE",
"507 -181 CURVE"
);
},
{
closed = 1;
nodes = (
"1142 -129 LINE",
"1155 -85 OFFCURVE",
"1197 -61 OFFCURVE",
"1243 -72 CURVE",
"1284 -85 OFFCURVE",
"1310 -129 OFFCURVE",
"1297 -169 CURVE",
"1284 -225 LINE SMOOTH",
"1274 -267 OFFCURVE",
"1248 -286 OFFCURVE",
"1213 -286 CURVE SMOOTH",
"1205 -286 OFFCURVE",
"1197 -284 OFFCURVE",
"1187 -283 CURVE",
"1146 -271 OFFCURVE",
"1130 -234 OFFCURVE",
"1130 -207 CURVE SMOOTH",
"1130 -199 OFFCURVE",
"1132 -193 OFFCURVE",
"1133 -184 CURVE"
);
},
{
closed = 1;
nodes = (
"823 -259 OFFCURVE",
"814 -241 OFFCURVE",
"814 -219 CURVE SMOOTH",
"814 -175 OFFCURVE",
"847 -143 OFFCURVE",
"891 -143 CURVE SMOOTH",
"935 -143 OFFCURVE",
"968 -175 OFFCURVE",
"968 -219 CURVE SMOOTH",
"968 -264 OFFCURVE",
"935 -296 OFFCURVE",
"891 -296 CURVE SMOOTH",
"870 -296 OFFCURVE",
"852 -288 OFFCURVE",
"837 -273 CURVE SMOOTH"
);
},
{
closed = 1;
nodes = (
"757 -414 LINE",
"770 -373 OFFCURVE",
"814 -347 OFFCURVE",
"854 -360 CURVE",
"898 -368 OFFCURVE",
"922 -411 OFFCURVE",
"911 -458 CURVE SMOOTH",
"898 -513 LINE SMOOTH",
"886 -562 OFFCURVE",
"849 -570 OFFCURVE",
"824 -570 CURVE SMOOTH",
"816 -570 OFFCURVE",
"809 -569 OFFCURVE",
"801 -567 CURVE",
"757 -554 OFFCURVE",
"741 -518 OFFCURVE",
"741 -490 CURVE SMOOTH",
"741 -484 OFFCURVE",
"742 -477 OFFCURVE",
"744 -469 CURVE SMOOTH"
);
}
);
width = 2041;
}
);
unicode = F026;
},
{
glyphname = uniF027;
lastChange = "2014-05-03 20:18:53 +0000";
layers = (
{
layerId = "8BEE18A2-62EC-4A69-8B77-4987BEDA7528";
name = Regular;
paths = (
{
closed = 1;
nodes = (
"1755 1499 LINE",
"1738 1426 LINE SMOOTH",
"1733 1401 OFFCURVE",
"1730 1376 OFFCURVE",
"1730 1352 CURVE SMOOTH",
"1730 1235 OFFCURVE",
"1802 1087 OFFCURVE",
"1971 1037 CURVE",
"2042 1012 LINE",
"2024 941 LINE",
"2024 932 LINE",
"2001 838 OFFCURVE",
"1952 756 OFFCURVE",
"1876 687 CURVE",
"1919 616 OFFCURVE",
"1940 541 OFFCURVE",
"1940 459 CURVE SMOOTH",
"1940 221 OFFCURVE",
"1758 22 OFFCURVE",
"1523 -2 CURVE",
"1333 -243 LINE SMOOTH",
"1315 -266 OFFCURVE",
"1295 -278 OFFCURVE",
"1273 -278 CURVE SMOOTH",
"1239 -278 OFFCURVE",
"1196 -247 OFFCURVE",
"1191 -201 CURVE SMOOTH",
"1188 -179 OFFCURVE",
"1193 -160 OFFCURVE",
"1208 -143 CURVE",
"1426 129 LINE",
"1438 142 OFFCURVE",
"1464 150 OFFCURVE",
"1507 155 CURVE SMOOTH",
"1659 168 OFFCURVE",
"1779 301 OFFCURVE",
"1779 459 CURVE SMOOTH",
"1779 623 OFFCURVE",
"1641 761 OFFCURVE",
"1476 761 CURVE SMOOTH",
"1325 761 LINE SMOOTH",
"1313 761 OFFCURVE",
"1308 766 OFFCURVE",
"1308 777 CURVE",
"1302 831 LINE SMOOTH",
"1280 1033 OFFCURVE",
"1106 1188 OFFCURVE",
"904 1188 CURVE SMOOTH",
"699 1188 OFFCURVE",
"530 1033 OFFCURVE",
"506 831 CURVE SMOOTH",
"499 781 LINE",
"499 769 OFFCURVE",
"492 764 OFFCURVE",
"481 764 CURVE",
"435 758 LINE",
"277 744 OFFCURVE",
"159 615 OFFCURVE",
"159 459 CURVE SMOOTH",
"159 293 OFFCURVE",
"297 152 OFFCURVE",
"461 152 CURVE",
"356 21 LINE",
"348 14 OFFCURVE",
"341 12 OFFCURVE",
"333 14 CURVE SMOOTH",
"138 68 OFFCURVE",
"0 249 OFFCURVE",
"0 459 CURVE SMOOTH",
"0 676 OFFCURVE",
"146 858 OFFCURVE",
"356 909 CURVE",
"414 1163 OFFCURVE",
"640 1345 OFFCURVE",
"904 1345 CURVE SMOOTH",
"980 1345 OFFCURVE",
"1052 1330 OFFCURVE",
"1123 1299 CURVE",
"1233 1485 OFFCURVE",
"1417 1540 OFFCURVE",
"1548 1542 CURVE SMOOTH",
"1586 1542 OFFCURVE",
"1625 1537 OFFCURVE",
"1664 1527 CURVE",
"1666 1526 OFFCURVE",
"1668 1526 OFFCURVE",
"1671 1524 CURVE SMOOTH",
"1674 1522 OFFCURVE",
"1676 1522 OFFCURVE",
"1677 1521 CURVE"
);
},
{
closed = 1;
nodes = (
"1476 918 LINE SMOOTH",
"1592 918 OFFCURVE",
"1692 882 OFFCURVE",
"1776 808 CURVE",
"1804 836 OFFCURVE",
"1828 871 OFFCURVE",
"1850 912 CURVE",
"1673 997 OFFCURVE",
"1571 1176 OFFCURVE",
"1571 1352 CURVE SMOOTH",
"1571 1380 LINE",
"1563 1381 OFFCURVE",
"1554 1381 OFFCURVE",
"1546 1381 CURVE SMOOTH",
"1436 1383 OFFCURVE",
"1321 1329 OFFCURVE",
"1261 1217 CURVE",
"1356 1137 OFFCURVE",
"1418 1037 OFFCURVE",
"1446 918 CURVE"
);
},
{
closed = 1;
nodes = (
"753 259 LINE",
"779 297 OFFCURVE",
"832 300 OFFCURVE",
"865 274 CURVE SMOOTH",
"897 247 OFFCURVE",
"904 194 OFFCURVE",
"878 162 CURVE SMOOTH",
"661 -110 LINE",
"620 -151 OFFCURVE",
"575 -146 OFFCURVE",
"549 -120 CURVE",
"531 -107 OFFCURVE",
"520 -89 OFFCURVE",
"518 -68 CURVE",
"518 -58 LINE SMOOTH",
"518 -40 OFFCURVE",
"524 -22 OFFCURVE",
"536 -8 CURVE SMOOTH"
);
},
{
closed = 1;
nodes = (
"1137 254 LINE SMOOTH",
"1163 287 OFFCURVE",
"1213 291 OFFCURVE",
"1251 264 CURVE",
"1284 237 OFFCURVE",
"1287 184 OFFCURVE",
"1261 152 CURVE SMOOTH",
"858 -348 LINE SMOOTH",
"841 -369 OFFCURVE",
"824 -380 OFFCURVE",
"802 -380 CURVE SMOOTH",
"770 -380 OFFCURVE",
"725 -348 OFFCURVE",
"720 -304 CURVE",
"720 -296 LINE SMOOTH",
"720 -278 OFFCURVE",
"727 -261 OFFCURVE",
"738 -247 CURVE SMOOTH"
);
},
{
closed = 1;
nodes = (
"367 -214 OFFCURVE",
"415 -196 OFFCURVE",
"456 -214 CURVE",
"495 -228 OFFCURVE",
"515 -278 OFFCURVE",
"497 -319 CURVE",
"482 -358 OFFCURVE",
"433 -376 OFFCURVE",
"392 -358 CURVE SMOOTH",
"374 -350 OFFCURVE",
"360 -335 OFFCURVE",
"352 -315 CURVE",
"347 -306 OFFCURVE",
"346 -296 OFFCURVE",
"346 -286 CURVE SMOOTH",
"346 -276 OFFCURVE",
"347 -266 OFFCURVE",
"352 -255 CURVE"
);
},
{
closed = 1;
nodes = (
"1073 -330 OFFCURVE",
"1118 -314 OFFCURVE",
"1159 -329 CURVE",
"1200 -348 OFFCURVE",
"1216 -391 OFFCURVE",
"1198 -432 CURVE SMOOTH",
"1190 -452 OFFCURVE",
"1175 -467 OFFCURVE",
"1155 -475 CURVE SMOOTH",
"1136 -483 OFFCURVE",
"1118 -481 OFFCURVE",
"1098 -473 CURVE SMOOTH",
"1077 -465 OFFCURVE",
"1062 -452 OFFCURVE",
"1054 -430 CURVE",
"1049 -419 OFFCURVE",
"1047 -409 OFFCURVE",
"1047 -399 CURVE SMOOTH",
"1047 -389 OFFCURVE",
"1049 -380 OFFCURVE",
"1054 -368 CURVE"
);
},
{
closed = 1;
nodes = (
"564 -526 OFFCURVE",
"561 -504 OFFCURVE",
"573 -483 CURVE",
"591 -445 OFFCURVE",
"633 -427 OFFCURVE",
"674 -442 CURVE",
"715 -462 OFFCURVE",
"729 -506 OFFCURVE",
"714 -547 CURVE SMOOTH",
"706 -567 OFFCURVE",
"692 -580 OFFCURVE",
"673 -588 CURVE",
"663 -591 OFFCURVE",
"653 -593 OFFCURVE",
"645 -593 CURVE SMOOTH",
"635 -593 OFFCURVE",
"625 -591 OFFCURVE",
"614 -586 CURVE",
"594 -578 OFFCURVE",
"579 -563 OFFCURVE",
"571 -544 CURVE SMOOTH"
);
}
);
width = 2042;
}
);
unicode = F027;
},
{
glyphname = uniF028;
lastChange = "2014-05-03 20:18:59 +0000";
layers = (
{
layerId = "8BEE18A2-62EC-4A69-8B77-4987BEDA7528";
name = Regular;
paths = (
{
closed = 1;
nodes = (
"1739 1509 LINE",
"1751 1504 OFFCURVE",
"1756 1497 OFFCURVE",
"1752 1487 CURVE",
"1739 1430 LINE SMOOTH",
"1733 1403 OFFCURVE",
"1729 1377 OFFCURVE",
"1731 1353 CURVE",
"1731 1241 OFFCURVE",
"1803 1088 OFFCURVE",
"1972 1040 CURVE SMOOTH",
"2025 1024 LINE SMOOTH",
"2035 1021 OFFCURVE",
"2040 1016 OFFCURVE",
"2040 1009 CURVE SMOOTH",
"2040 1008 OFFCURVE",
"2040 1004 OFFCURVE",
"2038 1003 CURVE",
"2025 935 LINE",
"2002 842 OFFCURVE",
"1953 760 OFFCURVE",
"1877 691 CURVE",
"1920 620 OFFCURVE",
"1941 545 OFFCURVE",
"1941 462 CURVE SMOOTH",
"1941 213 OFFCURVE",
"1744 6 OFFCURVE",
"1495 -2 CURVE SMOOTH",
"1483 -2 OFFCURVE",
"1476 3 OFFCURVE",
"1476 14 CURVE SMOOTH",
"1476 139 LINE SMOOTH",
"1476 150 OFFCURVE",
"1483 155 OFFCURVE",
"1495 155 CURVE",
"1654 164 OFFCURVE",
"1784 300 OFFCURVE",
"1784 462 CURVE SMOOTH",
"1784 627 OFFCURVE",
"1642 765 OFFCURVE",
"1476 765 CURVE SMOOTH",
"1325 765 LINE SMOOTH",
"1314 765 OFFCURVE",
"1309 770 OFFCURVE",
"1309 781 CURVE",
"1302 835 LINE SMOOTH",
"1281 1037 OFFCURVE",
"1107 1192 OFFCURVE",
"905 1192 CURVE SMOOTH",
"700 1192 OFFCURVE",
"529 1037 OFFCURVE",
"509 835 CURVE SMOOTH",
"503 784 LINE",
"503 773 OFFCURVE",
"496 768 OFFCURVE",
"485 768 CURVE",
"435 765 LINE",
"279 747 OFFCURVE",
"159 618 OFFCURVE",
"159 462 CURVE SMOOTH",
"159 300 OFFCURVE",
"289 164 OFFCURVE",
"448 155 CURVE",
"460 155 OFFCURVE",
"465 150 OFFCURVE",
"465 139 CURVE SMOOTH",
"465 14 LINE SMOOTH",
"465 3 OFFCURVE",
"460 -2 OFFCURVE",
"448 -2 CURVE",
"199 9 OFFCURVE",
"0 213 OFFCURVE",
"0 462 CURVE SMOOTH",
"0 679 OFFCURVE",
"151 865 OFFCURVE",
"356 912 CURVE",
"414 1167 OFFCURVE",
"641 1349 OFFCURVE",
"905 1349 CURVE SMOOTH",
"977 1349 OFFCURVE",
"1049 1334 OFFCURVE",
"1123 1307 CURVE",
"1233 1490 OFFCURVE",
"1417 1546 OFFCURVE",
"1547 1546 CURVE SMOOTH",
"1586 1546 OFFCURVE",
"1626 1541 OFFCURVE",
"1665 1532 CURVE"
);
},
{
closed = 1;
nodes = (
"1476 922 LINE SMOOTH",
"1591 922 OFFCURVE",
"1692 886 OFFCURVE",
"1777 816 CURVE",
"1805 840 OFFCURVE",
"1830 873 OFFCURVE",
"1851 916 CURVE",
"1669 1003 OFFCURVE",
"1570 1180 OFFCURVE",
"1572 1356 CURVE SMOOTH",
"1572 1384 LINE",
"1563 1385 OFFCURVE",
"1555 1385 OFFCURVE",
"1547 1385 CURVE SMOOTH",
"1437 1387 OFFCURVE",
"1322 1333 OFFCURVE",
"1261 1221 CURVE",
"1358 1141 OFFCURVE",
"1421 1042 OFFCURVE",
"1447 922 CURVE"
);
},
{
closed = 1;
nodes = (
"657 395 LINE",
"670 436 OFFCURVE",
"713 461 OFFCURVE",
"754 448 CURVE",
"798 439 OFFCURVE",
"822 397 OFFCURVE",
"811 351 CURVE SMOOTH",
"677 -197 LINE SMOOTH",
"664 -251 OFFCURVE",
"619 -264 OFFCURVE",
"580 -253 CURVE SMOOTH",
"536 -240 OFFCURVE",
"519 -203 OFFCURVE",
"519 -176 CURVE SMOOTH",
"519 -169 OFFCURVE",
"521 -162 OFFCURVE",
"522 -156 CURVE"
);
},
{
closed = 1;
nodes = (
"976 395 LINE SMOOTH",
"986 436 OFFCURVE",
"1030 461 OFFCURVE",
"1074 448 CURVE SMOOTH",
"1115 436 OFFCURVE",
"1139 397 OFFCURVE",
"1127 351 CURVE SMOOTH",
"917 -483 LINE SMOOTH",
"905 -529 OFFCURVE",
"866 -538 OFFCURVE",
"841 -538 CURVE SMOOTH",
"833 -538 OFFCURVE",
"826 -537 OFFCURVE",
"818 -535 CURVE SMOOTH",
"779 -524 OFFCURVE",
"762 -488 OFFCURVE",
"762 -463 CURVE SMOOTH",
"762 -455 OFFCURVE",
"764 -447 OFFCURVE",
"765 -438 CURVE"
);
},
{
closed = 1;
nodes = (
"1289 395 LINE SMOOTH",
"1299 437 OFFCURVE",
"1342 461 OFFCURVE",
"1386 448 CURVE SMOOTH",
"1427 436 OFFCURVE",
"1451 396 OFFCURVE",
"1440 351 CURVE SMOOTH",
"1306 -197 LINE",
"1301 -225 OFFCURVE",
"1289 -243 OFFCURVE",
"1270 -251 CURVE SMOOTH",
"1258 -256 OFFCURVE",
"1248 -258 OFFCURVE",
"1237 -258 CURVE SMOOTH",
"1229 -258 OFFCURVE",
"1219 -256 OFFCURVE",
"1209 -253 CURVE SMOOTH",
"1171 -241 OFFCURVE",
"1151 -218 OFFCURVE",
"1151 -184 CURVE SMOOTH",
"1151 -176 OFFCURVE",
"1153 -166 OFFCURVE",
"1155 -156 CURVE"
);
}
);
width = 2040;
}
);
unicode = F028;
},
{
glyphname = uniF029;
lastChange = "2014-05-03 20:19:05 +0000";
layers = (
{
layerId = "8BEE18A2-62EC-4A69-8B77-4987BEDA7528";
name = Regular;
paths = (
{
closed = 1;
nodes = (
"1676 1523 LINE",
"1755 1500 LINE",
"1737 1425 LINE SMOOTH",
"1732 1401 OFFCURVE",
"1729 1378 OFFCURVE",
"1729 1353 CURVE SMOOTH",
"1729 1237 OFFCURVE",
"1806 1085 OFFCURVE",
"1969 1037 CURVE SMOOTH",
"2040 1018 LINE",
"2022 944 LINE",
"2022 932 LINE",
"1999 837 OFFCURVE",
"1950 756 OFFCURVE",
"1874 688 CURVE",
"1915 616 OFFCURVE",
"1935 541 OFFCURVE",
"1935 461 CURVE SMOOTH",
"1935 212 OFFCURVE",
"1739 6 OFFCURVE",
"1490 -2 CURVE SMOOTH",
"1478 -2 OFFCURVE",
"1472 3 OFFCURVE",
"1472 14 CURVE SMOOTH",
"1472 142 LINE SMOOTH",
"1472 153 OFFCURVE",
"1478 158 OFFCURVE",
"1490 158 CURVE",
"1652 170 OFFCURVE",
"1778 302 OFFCURVE",
"1778 461 CURVE SMOOTH",
"1778 626 OFFCURVE",
"1640 762 OFFCURVE",
"1472 762 CURVE SMOOTH",
"1321 762 LINE SMOOTH",
"1310 762 OFFCURVE",
"1305 767 OFFCURVE",
"1305 779 CURVE",
"1298 833 LINE SMOOTH",
"1277 1036 OFFCURVE",
"1105 1188 OFFCURVE",
"902 1188 CURVE SMOOTH",
"697 1188 OFFCURVE",
"527 1034 OFFCURVE",
"508 833 CURVE",
"501 785 LINE",
"501 774 OFFCURVE",
"494 769 OFFCURVE",
"483 769 CURVE",
"434 762 LINE SMOOTH",
"278 744 OFFCURVE",
"159 616 OFFCURVE",
"159 461 CURVE SMOOTH",
"159 302 OFFCURVE",
"285 170 OFFCURVE",
"447 158 CURVE",
"458 158 OFFCURVE",
"463 153 OFFCURVE",
"463 142 CURVE SMOOTH",
"463 14 LINE SMOOTH",
"463 3 OFFCURVE",
"458 -2 OFFCURVE",
"447 -2 CURVE",
"198 9 OFFCURVE",
"0 212 OFFCURVE",
"0 461 CURVE SMOOTH",
"0 677 OFFCURVE",
"151 862 OFFCURVE",
"360 909 CURVE",
"414 1163 OFFCURVE",
"638 1345 OFFCURVE",
"902 1345 CURVE SMOOTH",
"979 1345 OFFCURVE",
"1053 1330 OFFCURVE",
"1123 1299 CURVE",
"1233 1484 OFFCURVE",
"1416 1540 OFFCURVE",
"1547 1540 CURVE SMOOTH",
"1585 1540 OFFCURVE",
"1624 1535 OFFCURVE",
"1663 1527 CURVE"
);
},
{
closed = 1;
nodes = (
"1472 923 LINE SMOOTH",
"1588 923 OFFCURVE",
"1688 885 OFFCURVE",
"1775 810 CURVE",
"1802 837 OFFCURVE",
"1827 872 OFFCURVE",
"1848 913 CURVE",
"1670 1000 OFFCURVE",
"1572 1176 OFFCURVE",
"1572 1348 CURVE SMOOTH",
"1572 1360 OFFCURVE",
"1572 1371 OFFCURVE",
"1573 1383 CURVE",
"1554 1383 LINE SMOOTH",
"1437 1383 OFFCURVE",
"1321 1324 OFFCURVE",
"1261 1217 CURVE",
"1357 1132 OFFCURVE",
"1418 1034 OFFCURVE",
"1442 923 CURVE"
);
},
{
closed = 1;
nodes = (
"655 394 LINE SMOOTH",
"668 438 OFFCURVE",
"709 461 OFFCURVE",
"755 449 CURVE SMOOTH",
"796 438 OFFCURVE",
"822 397 OFFCURVE",
"809 353 CURVE SMOOTH",
"783 256 LINE SMOOTH",
"769 210 OFFCURVE",
"729 191 OFFCURVE",
"684 202 CURVE",
"660 209 OFFCURVE",
"642 220 OFFCURVE",
"634 238 CURVE",
"629 248 OFFCURVE",
"625 260 OFFCURVE",
"625 271 CURVE SMOOTH",
"625 279 OFFCURVE",
"627 289 OFFCURVE",
"630 299 CURVE SMOOTH"
);
},
{
closed = 1;
nodes = (
"1285 391 LINE",
"1298 435 OFFCURVE",
"1341 458 OFFCURVE",
"1382 446 CURVE SMOOTH",
"1426 433 OFFCURVE",
"1450 391 OFFCURVE",
"1439 350 CURVE SMOOTH",
"1413 253 LINE",
"1405 227 OFFCURVE",
"1392 209 OFFCURVE",
"1372 201 CURVE SMOOTH",
"1360 196 OFFCURVE",
"1349 192 OFFCURVE",
"1337 192 CURVE SMOOTH",
"1329 192 OFFCURVE",
"1323 194 OFFCURVE",
"1315 196 CURVE",
"1274 209 OFFCURVE",
"1257 243 OFFCURVE",
"1257 269 CURVE SMOOTH",
"1257 278 OFFCURVE",
"1259 284 OFFCURVE",
"1261 292 CURVE SMOOTH"
);
},
{
closed = 1;
nodes = (
"892 101 LINE",
"905 145 OFFCURVE",
"948 170 OFFCURVE",
"994 158 CURVE",
"1035 145 OFFCURVE",
"1059 102 OFFCURVE",
"1046 62 CURVE",
"1020 -35 LINE SMOOTH",
"1007 -81 OFFCURVE",
"964 -102 OFFCURVE",
"923 -89 CURVE",
"882 -74 OFFCURVE",
"866 -42 OFFCURVE",
"866 -17 CURVE SMOOTH",
"866 -9 OFFCURVE",
"868 -1 OFFCURVE",
"869 7 CURVE"
);
},
{
closed = 1;
nodes = (
"530 -53 LINE",
"544 -9 OFFCURVE",
"586 16 OFFCURVE",
"630 4 CURVE",
"671 -9 OFFCURVE",
"697 -53 OFFCURVE",
"684 -92 CURVE",
"658 -191 LINE SMOOTH",
"645 -236 OFFCURVE",
"599 -256 OFFCURVE",
"560 -243 CURVE",
"521 -228 OFFCURVE",
"504 -196 OFFCURVE",
"504 -171 CURVE SMOOTH",
"504 -163 OFFCURVE",
"506 -155 OFFCURVE",
"508 -146 CURVE SMOOTH"
);
},
{
closed = 1;
nodes = (
"1157 -56 LINE SMOOTH",
"1169 -15 OFFCURVE",
"1210 11 OFFCURVE",
"1254 -2 CURVE",
"1298 -11 OFFCURVE",
"1323 -53 OFFCURVE",
"1311 -99 CURVE SMOOTH",
"1285 -194 LINE SMOOTH",
"1277 -222 OFFCURVE",
"1264 -240 OFFCURVE",
"1244 -248 CURVE",
"1233 -253 OFFCURVE",
"1221 -254 OFFCURVE",
"1210 -254 CURVE SMOOTH",
"1202 -254 OFFCURVE",
"1195 -253 OFFCURVE",
"1187 -251 CURVE SMOOTH",
"1148 -240 OFFCURVE",
"1128 -217 OFFCURVE",
"1128 -181 CURVE SMOOTH",
"1128 -173 OFFCURVE",
"1130 -163 OFFCURVE",
"1131 -153 CURVE"
);
},
{
closed = 1;
nodes = (
"768 -344 LINE",
"781 -300 OFFCURVE",
"823 -276 OFFCURVE",
"869 -287 CURVE",
"910 -300 OFFCURVE",
"936 -344 OFFCURVE",
"923 -384 CURVE",
"895 -482 LINE SMOOTH",
"887 -508 OFFCURVE",
"874 -526 OFFCURVE",
"855 -534 CURVE SMOOTH",
"843 -539 OFFCURVE",
"832 -543 OFFCURVE",
"820 -543 CURVE SMOOTH",
"812 -543 OFFCURVE",
"805 -541 OFFCURVE",
"799 -539 CURVE SMOOTH",
"758 -526 OFFCURVE",
"742 -489 OFFCURVE",
"742 -462 CURVE SMOOTH",
"742 -454 OFFCURVE",
"743 -446 OFFCURVE",
"745 -438 CURVE SMOOTH"
);
}
);
width = 2040;
}
);
unicode = F029;
},
{
glyphname = uniF02A;
lastChange = "2014-05-03 23:31:02 +0000";
layers = (
{
layerId = "8BEE18A2-62EC-4A69-8B77-4987BEDA7528";
name = Regular;
paths = (
{
closed = 1;
nodes = (
"1736 1505 LINE",
"1747 1500 OFFCURVE",
"1752 1494 OFFCURVE",
"1749 1484 CURVE",
"1739 1426 LINE",
"1733 1399 OFFCURVE",
"1729 1372 OFFCURVE",
"1729 1346 CURVE SMOOTH",
"1728 1234 OFFCURVE",
"1797 1088 OFFCURVE",
"1968 1037 CURVE SMOOTH",
"2025 1021 LINE SMOOTH",
"2035 1018 OFFCURVE",
"2040 1013 OFFCURVE",
"2040 1006 CURVE SMOOTH",
"2040 1004 OFFCURVE",
"2040 1001 OFFCURVE",
"2038 999 CURVE",
"2022 932 LINE SMOOTH",
"1997 835 OFFCURVE",
"1951 755 OFFCURVE",
"1880 691 CURVE",
"1922 618 OFFCURVE",
"1941 541 OFFCURVE",
"1941 459 CURVE SMOOTH",
"1941 211 OFFCURVE",
"1744 6 OFFCURVE",
"1495 -2 CURVE SMOOTH",
"1483 -2 OFFCURVE",
"1476 3 OFFCURVE",
"1476 14 CURVE SMOOTH",
"1476 139 LINE SMOOTH",
"1476 150 OFFCURVE",
"1483 155 OFFCURVE",
"1495 155 CURVE",
"1654 164 OFFCURVE",
"1784 301 OFFCURVE",
"1784 459 CURVE SMOOTH",
"1784 625 OFFCURVE",
"1646 765 OFFCURVE",
"1476 765 CURVE SMOOTH",
"1325 765 LINE SMOOTH",
"1314 765 OFFCURVE",
"1309 770 OFFCURVE",
"1309 781 CURVE",
"1302 835 LINE SMOOTH",
"1281 1037 OFFCURVE",
"1107 1192 OFFCURVE",
"905 1192 CURVE SMOOTH",
"700 1192 OFFCURVE",
"529 1037 OFFCURVE",
"509 832 CURVE SMOOTH",
"503 784 LINE",
"503 773 OFFCURVE",
"496 768 OFFCURVE",
"485 768 CURVE",
"435 761 LINE",
"279 748 OFFCURVE",
"159 617 OFFCURVE",
"159 459 CURVE SMOOTH",
"159 301 OFFCURVE",
"289 164 OFFCURVE",
"448 155 CURVE",
"460 155 OFFCURVE",
"465 150 OFFCURVE",
"465 139 CURVE SMOOTH",
"465 14 LINE SMOOTH",
"465 3 OFFCURVE",
"460 -2 OFFCURVE",
"448 -2 CURVE SMOOTH",
"199 6 OFFCURVE",
"0 211 OFFCURVE",
"0 459 CURVE SMOOTH",
"0 678 OFFCURVE",
"148 860 OFFCURVE",
"356 912 CURVE",
"414 1167 OFFCURVE",
"641 1349 OFFCURVE",
"905 1349 CURVE SMOOTH",
"979 1349 OFFCURVE",
"1053 1334 OFFCURVE",
"1127 1303 CURVE",
"1237 1487 OFFCURVE",
"1416 1543 OFFCURVE",
"1545 1543 CURVE SMOOTH",
"1583 1543 OFFCURVE",
"1623 1538 OFFCURVE",
"1662 1528 CURVE"
);
},
{
closed = 1;
nodes = (
"1476 922 LINE SMOOTH",
"1593 922 OFFCURVE",
"1693 886 OFFCURVE",
"1777 812 CURVE",
"1808 843 OFFCURVE",
"1833 878 OFFCURVE",
"1848 912 CURVE",
"1670 998 OFFCURVE",
"1572 1175 OFFCURVE",
"1572 1351 CURVE SMOOTH",
"1572 1380 LINE",
"1562 1382 OFFCURVE",
"1552 1382 OFFCURVE",
"1542 1382 CURVE SMOOTH",
"1439 1380 OFFCURVE",
"1322 1328 OFFCURVE",
"1261 1221 CURVE",
"1360 1137 OFFCURVE",
"1422 1037 OFFCURVE",
"1447 922 CURVE"
);
},
{
closed = 1;
nodes = (
"903 196 OFFCURVE",
"895 214 OFFCURVE",
"895 236 CURVE SMOOTH",
"895 280 OFFCURVE",
"931 315 OFFCURVE",
"972 315 CURVE SMOOTH",
"1017 315 OFFCURVE",
"1053 280 OFFCURVE",
"1053 236 CURVE SMOOTH",
"1053 191 OFFCURVE",
"1017 159 OFFCURVE",
"972 159 CURVE SMOOTH",
"951 159 OFFCURVE",
"933 167 OFFCURVE",
"918 182 CURVE SMOOTH"
);
},
{
closed = 1;
nodes = (
"596 119 OFFCURVE",
"629 155 OFFCURVE",
"673 155 CURVE SMOOTH",
"718 155 OFFCURVE",
"751 119 OFFCURVE",
"751 78 CURVE SMOOTH",
"751 34 OFFCURVE",
"718 -2 OFFCURVE",
"673 -2 CURVE SMOOTH",
"629 -2 OFFCURVE",
"596 34 OFFCURVE",
"596 78 CURVE SMOOTH"
);
},
{
closed = 1;
nodes = (
"1197 119 OFFCURVE",
"1232 155 OFFCURVE",
"1276 155 CURVE SMOOTH",
"1320 155 OFFCURVE",
"1353 119 OFFCURVE",
"1353 78 CURVE SMOOTH",
"1353 34 OFFCURVE",
"1320 -2 OFFCURVE",
"1276 -2 CURVE SMOOTH",
"1232 -2 OFFCURVE",
"1197 34 OFFCURVE",
"1197 78 CURVE SMOOTH"
);
},
{
closed = 1;
nodes = (
"903 -144 OFFCURVE",
"895 -124 OFFCURVE",
"895 -103 CURVE SMOOTH",
"895 -58 OFFCURVE",
"931 -22 OFFCURVE",
"972 -22 CURVE SMOOTH",
"1017 -22 OFFCURVE",
"1053 -58 OFFCURVE",
"1053 -103 CURVE SMOOTH",
"1053 -147 OFFCURVE",
"1017 -181 OFFCURVE",
"972 -181 CURVE SMOOTH",
"951 -181 OFFCURVE",
"933 -173 OFFCURVE",
"918 -158 CURVE SMOOTH"
);
},
{
closed = 1;
nodes = (
"604 -301 OFFCURVE",
"596 -283 OFFCURVE",
"596 -262 CURVE SMOOTH",
"596 -217 OFFCURVE",
"629 -185 OFFCURVE",
"673 -185 CURVE SMOOTH",
"718 -185 OFFCURVE",
"751 -217 OFFCURVE",
"751 -262 CURVE SMOOTH",
"751 -306 OFFCURVE",
"718 -339 OFFCURVE",
"673 -339 CURVE SMOOTH",
"652 -339 OFFCURVE",
"634 -331 OFFCURVE",
"619 -316 CURVE SMOOTH"
);
},
{
closed = 1;
nodes = (
"1205 -301 OFFCURVE",
"1197 -283 OFFCURVE",
"1197 -262 CURVE SMOOTH",
"1197 -217 OFFCURVE",
"1232 -185 OFFCURVE",
"1276 -185 CURVE SMOOTH",
"1320 -185 OFFCURVE",
"1353 -217 OFFCURVE",
"1353 -262 CURVE SMOOTH",
"1353 -306 OFFCURVE",
"1320 -339 OFFCURVE",
"1276 -339 CURVE SMOOTH",
"1255 -339 OFFCURVE",
"1235 -331 OFFCURVE",
"1220 -316 CURVE SMOOTH"
);
},
{
closed = 1;
nodes = (
"903 -485 OFFCURVE",
"895 -467 OFFCURVE",
"895 -446 CURVE SMOOTH",
"895 -401 OFFCURVE",
"931 -365 OFFCURVE",
"972 -365 CURVE SMOOTH",
"1017 -365 OFFCURVE",
"1053 -401 OFFCURVE",
"1053 -446 CURVE SMOOTH",
"1053 -490 OFFCURVE",
"1017 -523 OFFCURVE",
"972 -523 CURVE SMOOTH",
"951 -523 OFFCURVE",
"933 -515 OFFCURVE",
"918 -500 CURVE SMOOTH"
);
}
);
width = 2040;
}
);
unicode = F02A;
},
{
glyphname = uniF02B;
lastChange = "2014-05-03 20:19:22 +0000";
layers = (
{
layerId = "8BEE18A2-62EC-4A69-8B77-4987BEDA7528";
name = Regular;
paths = (
{
closed = 1;
nodes = (
"1733 1505 LINE",
"1744 1500 OFFCURVE",
"1749 1493 OFFCURVE",
"1746 1483 CURVE",
"1733 1426 LINE",
"1726 1400 OFFCURVE",
"1723 1373 OFFCURVE",
"1723 1347 CURVE SMOOTH",
"1723 1234 OFFCURVE",
"1795 1085 OFFCURVE",
"1964 1037 CURVE SMOOTH",
"2018 1021 LINE SMOOTH",
"2028 1018 OFFCURVE",
"2033 1013 OFFCURVE",
"2033 1006 CURVE SMOOTH",
"2033 1005 OFFCURVE",
"2033 1001 OFFCURVE",
"2031 1000 CURVE",
"2018 932 LINE",
"1995 842 OFFCURVE",
"1948 762 OFFCURVE",
"1874 691 CURVE",
"1916 621 OFFCURVE",
"1938 545 OFFCURVE",
"1938 463 CURVE SMOOTH",
"1938 214 OFFCURVE",
"1741 8 OFFCURVE",
"1492 -1 CURVE",
"1480 -1 OFFCURVE",
"1474 4 OFFCURVE",
"1474 16 CURVE SMOOTH",
"1474 140 LINE SMOOTH",
"1474 152 OFFCURVE",
"1480 157 OFFCURVE",
"1492 157 CURVE",
"1651 165 OFFCURVE",
"1780 301 OFFCURVE",
"1780 463 CURVE SMOOTH",
"1780 627 OFFCURVE",
"1639 765 OFFCURVE",
"1474 765 CURVE SMOOTH",
"1323 765 LINE SMOOTH",
"1311 765 OFFCURVE",
"1306 770 OFFCURVE",
"1306 782 CURVE",
"1300 836 LINE SMOOTH",
"1279 1037 OFFCURVE",
"1105 1191 OFFCURVE",
"903 1191 CURVE SMOOTH",
"698 1191 OFFCURVE",
"528 1037 OFFCURVE",
"508 836 CURVE",
"501 785 LINE",
"501 773 OFFCURVE",
"495 768 OFFCURVE",
"483 768 CURVE",
"434 765 LINE",
"278 747 OFFCURVE",
"159 619 OFFCURVE",
"159 463 CURVE SMOOTH",
"159 301 OFFCURVE",
"288 165 OFFCURVE",
"447 157 CURVE",
"459 157 OFFCURVE",
"464 152 OFFCURVE",
"464 140 CURVE SMOOTH",
"464 16 LINE SMOOTH",
"464 4 OFFCURVE",
"459 -1 OFFCURVE",
"447 -1 CURVE",
"198 11 OFFCURVE",
"0 214 OFFCURVE",
"0 463 CURVE SMOOTH",
"0 680 OFFCURVE",
"150 865 OFFCURVE",
"355 913 CURVE",
"413 1167 OFFCURVE",
"639 1349 OFFCURVE",
"903 1349 CURVE SMOOTH",
"975 1349 OFFCURVE",
"1047 1334 OFFCURVE",
"1121 1306 CURVE",
"1231 1485 OFFCURVE",
"1415 1542 OFFCURVE",
"1541 1542 CURVE SMOOTH",
"1580 1542 OFFCURVE",
"1620 1537 OFFCURVE",
"1659 1528 CURVE"
);
},
{
closed = 1;
nodes = (
"1474 923 LINE SMOOTH",
"1588 923 OFFCURVE",
"1688 887 OFFCURVE",
"1774 816 CURVE",
"1805 844 OFFCURVE",
"1828 875 OFFCURVE",
"1844 913 CURVE",
"1666 1000 OFFCURVE",
"1566 1177 OFFCURVE",
"1566 1352 CURVE SMOOTH",
"1566 1380 LINE",
"1557 1382 OFFCURVE",
"1549 1382 OFFCURVE",
"1541 1382 CURVE SMOOTH",
"1434 1382 OFFCURVE",
"1323 1331 OFFCURVE",
"1256 1221 CURVE",
"1352 1146 OFFCURVE",
"1415 1046 OFFCURVE",
"1444 923 CURVE"
);
},
{
closed = 1;
nodes = (
"1062 782 LINE",
"1120 721 OFFCURVE",
"1149 672 OFFCURVE",
"1149 631 CURVE SMOOTH",
"1149 583 OFFCURVE",
"1110 544 OFFCURVE",
"1062 544 CURVE SMOOTH",
"1011 544 OFFCURVE",
"970 583 OFFCURVE",
"970 631 CURVE SMOOTH",
"970 665 OFFCURVE",
"1008 724 OFFCURVE",
"1039 757 CURVE SMOOTH"
);
},
{
closed = 1;
nodes = (
"688 608 LINE",
"698 598 OFFCURVE",
"711 585 OFFCURVE",
"726 568 CURVE SMOOTH",
"756 534 OFFCURVE",
"819 434 OFFCURVE",
"819 381 CURVE SMOOTH",
"819 308 OFFCURVE",
"762 252 OFFCURVE",
"688 252 CURVE SMOOTH",
"614 252 OFFCURVE",
"554 309 OFFCURVE",
"554 381 CURVE SMOOTH",
"554 434 OFFCURVE",
"610 522 OFFCURVE",
"655 570 CURVE"
);
},
{
closed = 1;
nodes = (
"1051 355 LINE",
"1056 350 OFFCURVE",
"1064 342 OFFCURVE",
"1075 334 CURVE",
"1095 314 OFFCURVE",
"1156 247 OFFCURVE",
"1195 195 CURVE",
"1233 140 OFFCURVE",
"1270 63 OFFCURVE",
"1270 9 CURVE SMOOTH",
"1270 -110 OFFCURVE",
"1174 -209 OFFCURVE",
"1051 -209 CURVE SMOOTH",
"931 -209 OFFCURVE",
"833 -114 OFFCURVE",
"833 9 CURVE SMOOTH",
"833 63 OFFCURVE",
"867 137 OFFCURVE",
"910 196 CURVE SMOOTH",
"952 254 OFFCURVE",
"998 306 OFFCURVE",
"1029 334 CURVE SMOOTH"
);
}
);
width = 2033;
}
);
unicode = F02B;
},
{
glyphname = uniF02C;
lastChange = "2014-05-03 20:19:32 +0000";
layers = (
{
layerId = "8BEE18A2-62EC-4A69-8B77-4987BEDA7528";
name = Regular;
paths = (
{
closed = 1;
nodes = (
"1734 1505 LINE",
"1745 1500 OFFCURVE",
"1750 1493 OFFCURVE",
"1747 1483 CURVE",
"1737 1426 LINE",
"1731 1400 OFFCURVE",
"1727 1374 OFFCURVE",
"1727 1347 CURVE SMOOTH",
"1726 1237 OFFCURVE",
"1795 1088 OFFCURVE",
"1965 1037 CURVE SMOOTH",
"2023 1021 LINE SMOOTH",
"2033 1018 OFFCURVE",
"2037 1013 OFFCURVE",
"2037 1006 CURVE SMOOTH",
"2037 1005 OFFCURVE",
"2037 1001 OFFCURVE",
"2036 1000 CURVE",
"2019 936 LINE SMOOTH",
"1996 841 OFFCURVE",
"1949 759 OFFCURVE",
"1878 691 CURVE",
"1919 619 OFFCURVE",
"1939 544 OFFCURVE",
"1939 463 CURVE SMOOTH",
"1939 214 OFFCURVE",
"1742 7 OFFCURVE",
"1493 -1 CURVE SMOOTH",
"1481 -1 OFFCURVE",
"1475 4 OFFCURVE",
"1475 16 CURVE SMOOTH",
"1475 143 LINE SMOOTH",
"1475 155 OFFCURVE",
"1481 160 OFFCURVE",
"1493 160 CURVE",
"1655 171 OFFCURVE",
"1782 304 OFFCURVE",
"1782 463 CURVE SMOOTH",
"1782 629 OFFCURVE",
"1644 765 OFFCURVE",
"1475 765 CURVE SMOOTH",
"1324 765 LINE SMOOTH",
"1312 765 OFFCURVE",
"1308 770 OFFCURVE",
"1308 782 CURVE",
"1301 836 LINE SMOOTH",
"1280 1037 OFFCURVE",
"1106 1192 OFFCURVE",
"904 1192 CURVE SMOOTH",
"699 1192 OFFCURVE",
"529 1037 OFFCURVE",
"509 836 CURVE",
"502 788 LINE",
"502 777 OFFCURVE",
"496 772 OFFCURVE",
"484 772 CURVE",
"435 765 LINE SMOOTH",
"279 747 OFFCURVE",
"159 619 OFFCURVE",
"159 463 CURVE SMOOTH",
"159 324 OFFCURVE",
"258 199 OFFCURVE",
"391 166 CURVE",
"491 435 LINE",
"496 444 OFFCURVE",
"504 449 OFFCURVE",
"512 449 CURVE SMOOTH",
"788 449 LINE SMOOTH",
"802 449 OFFCURVE",
"807 442 OFFCURVE",
"801 429 CURVE",
"570 -4 LINE",
"773 -4 LINE SMOOTH",
"786 -4 OFFCURVE",
"791 -16 OFFCURVE",
"784 -24 CURVE",
"389 -549 LINE",
"363 -549 LINE",
"484 -158 LINE",
"286 -158 LINE SMOOTH",
"274 -158 OFFCURVE",
"269 -152 OFFCURVE",
"273 -139 CURVE",
"333 19 LINE",
"138 78 OFFCURVE",
"0 255 OFFCURVE",
"0 463 CURVE SMOOTH",
"0 680 OFFCURVE",
"151 865 OFFCURVE",
"356 913 CURVE",
"414 1167 OFFCURVE",
"640 1349 OFFCURVE",
"904 1349 CURVE SMOOTH",
"975 1349 OFFCURVE",
"1048 1334 OFFCURVE",
"1126 1306 CURVE",
"1235 1485 OFFCURVE",
"1414 1543 OFFCURVE",
"1544 1541 CURVE SMOOTH",
"1581 1541 OFFCURVE",
"1621 1536 OFFCURVE",
"1660 1528 CURVE"
);
},
{
closed = 1;
nodes = (
"1475 926 LINE SMOOTH",
"1588 926 OFFCURVE",
"1688 890 OFFCURVE",
"1775 816 CURVE",
"1806 844 OFFCURVE",
"1829 875 OFFCURVE",
"1846 913 CURVE",
"1668 1000 OFFCURVE",
"1570 1177 OFFCURVE",
"1570 1354 CURVE SMOOTH",
"1570 1364 OFFCURVE",
"1570 1374 OFFCURVE",
"1570 1383 CURVE",
"1550 1383 LINE SMOOTH",
"1439 1383 OFFCURVE",
"1324 1328 OFFCURVE",
"1260 1221 CURVE",
"1357 1141 OFFCURVE",
"1419 1042 OFFCURVE",
"1445 926 CURVE"
);
},
{
closed = 1;
nodes = (
"1308 396 LINE SMOOTH",
"1321 440 OFFCURVE",
"1357 455 OFFCURVE",
"1383 455 CURVE SMOOTH",
"1390 455 OFFCURVE",
"1396 453 OFFCURVE",
"1404 452 CURVE",
"1449 439 OFFCURVE",
"1465 403 OFFCURVE",
"1463 375 CURVE",
"1463 368 OFFCURVE",
"1463 362 OFFCURVE",
"1462 355 CURVE",
"1436 258 LINE SMOOTH",
"1424 217 OFFCURVE",
"1401 198 OFFCURVE",
"1367 198 CURVE SMOOTH",
"1358 198 OFFCURVE",
"1349 199 OFFCURVE",
"1339 201 CURVE",
"1291 214 OFFCURVE",
"1278 250 OFFCURVE",
"1278 278 CURVE SMOOTH",
"1278 285 OFFCURVE",
"1280 293 OFFCURVE",
"1281 301 CURVE"
);
},
{
closed = 1;
nodes = (
"914 107 LINE",
"927 152 OFFCURVE",
"971 175 OFFCURVE",
"1012 163 CURVE SMOOTH",
"1057 150 OFFCURVE",
"1081 107 OFFCURVE",
"1070 66 CURVE SMOOTH",
"1042 -30 LINE SMOOTH",
"1030 -68 OFFCURVE",
"1007 -88 OFFCURVE",
"970 -88 CURVE SMOOTH",
"962 -88 OFFCURVE",
"953 -86 OFFCURVE",
"945 -84 CURVE",
"899 -76 OFFCURVE",
"888 -40 OFFCURVE",
"888 -14 CURVE SMOOTH",
"888 -6 OFFCURVE",
"889 4 OFFCURVE",
"891 12 CURVE SMOOTH"
);
},
{
closed = 1;
nodes = (
"1180 -52 LINE",
"1188 -7 OFFCURVE",
"1232 17 OFFCURVE",
"1278 6 CURVE",
"1319 -7 OFFCURVE",
"1344 -50 OFFCURVE",
"1331 -94 CURVE",
"1308 -189 LINE",
"1296 -230 OFFCURVE",
"1275 -252 OFFCURVE",
"1242 -252 CURVE SMOOTH",
"1232 -252 OFFCURVE",
"1222 -250 OFFCURVE",
"1211 -247 CURVE",
"1167 -232 OFFCURVE",
"1152 -196 OFFCURVE",
"1150 -170 CURVE",
"1150 -163 OFFCURVE",
"1152 -157 OFFCURVE",
"1153 -148 CURVE"
);
},
{
closed = 1;
nodes = (
"791 -340 LINE SMOOTH",
"804 -296 OFFCURVE",
"847 -271 OFFCURVE",
"888 -283 CURVE SMOOTH",
"932 -296 OFFCURVE",
"957 -339 OFFCURVE",
"945 -380 CURVE SMOOTH",
"919 -478 LINE",
"912 -501 OFFCURVE",
"899 -517 OFFCURVE",
"879 -527 CURVE",
"868 -532 OFFCURVE",
"857 -536 OFFCURVE",
"845 -536 CURVE SMOOTH",
"837 -536 OFFCURVE",
"829 -534 OFFCURVE",
"820 -532 CURVE",
"779 -519 OFFCURVE",
"763 -483 OFFCURVE",
"763 -458 CURVE SMOOTH",
"763 -450 OFFCURVE",
"765 -442 OFFCURVE",
"766 -434 CURVE"
);
}
);
width = 2037;
}
);
unicode = F02C;
},
